<svg width="218" height="55" viewBox="0 0 218 55" fill="none" xmlns="http://www.w3.org/2000/svg">
<g clip-path="url(#clip0_5302_3957)">
<path fill-rule="evenodd" clip-rule="evenodd" d="M71.0712 38.6083C70.8106 40.1478 69.4237 41.077 67.6618 41.077H64.0791V40.7001C65.7549 40.7001 66.3622 40.1774 66.3905 38.5217V13.8378C66.3905 12.3278 65.5521 11.8336 64.1074 11.8336V11.4556C66.4189 11.4556 68.9037 11.1071 71.129 10.5264V25.0757C72.3425 22.9555 74.2789 21.5913 76.8215 21.3294C82.6 20.7771 86.9057 25.5688 86.9057 31.4936C86.9057 37.4183 83.0045 41.5701 76.9076 41.5701C74.6245 41.5701 72.4864 40.4951 71.0712 38.6083ZM128.688 23.2174C129.093 22.6947 129.555 22.2586 130.047 22.2301C130.827 22.2301 131.232 22.8108 131.607 23.2754C131.868 23.5373 132.157 23.7696 132.532 23.9143C133.775 24.4369 135.247 23.8858 135.768 22.6366C136.317 21.3875 135.738 19.9652 134.467 19.4425C132.184 18.4837 129.641 20.8078 128.196 22.8985C126.491 21.8816 124.469 21.3886 122.476 21.3886C117.333 21.3886 112.94 24.6408 112.94 28.9975C112.94 31.292 113.952 33.0627 115.454 34.3119C112.651 35.996 112.218 40.2355 114.731 42.2111C112.737 42.7054 110.83 44.3018 110.715 46.3925C110.454 51.3004 117.13 53.8557 123.574 53.5072C129.266 53.2169 134.727 50.4873 135.016 45.6079C135.247 41.5427 131.404 39.1901 126.925 39.2198C123.949 39.2198 122.822 39.2198 119.846 39.1901C115.281 39.1901 114.153 36.2864 115.945 34.7184C117.823 36.0837 120.279 36.751 122.504 36.751C126.867 36.751 132.01 34.1957 132.01 28.9975C132.01 26.6164 130.739 24.5838 128.687 23.2185L128.688 23.2174ZM202.256 24.9015C202.43 25.25 202.517 25.628 202.517 26.0346C202.517 27.4579 201.361 28.5898 199.917 28.5898C198.472 28.5898 197.316 27.4568 197.316 26.0346C197.316 22.7824 202.633 21.3305 205.234 21.3305C209.309 21.3305 214.394 23.2185 214.394 27.836C214.394 30.9139 214.249 33.9338 214.249 36.9833C214.249 38.1163 214.133 40.0613 215.578 40.0613C216.502 40.0613 217.138 38.754 217.369 38.0286L217.919 38.2325C217.283 40.3232 215.867 41.6304 213.585 41.6304C210.839 41.6304 209.655 39.5978 209.51 37.3329C208.036 40.2662 205.003 41.6885 201.766 41.6885C199.136 41.6885 196.131 40.4974 196.131 37.3329C196.131 32.0766 205.609 30.102 209.481 30.102C209.481 29.5794 209.539 29.3471 209.539 28.7948C209.539 25.7749 209.076 21.9409 205.175 21.9409C204.048 21.9409 202.95 22.2028 202.17 23.0739C201.679 23.6546 201.967 24.3515 202.258 24.9038L202.256 24.9015ZM188.473 12.8505C190.12 12.8505 191.478 14.1577 191.478 15.7838C191.478 17.4099 190.119 18.7172 188.473 18.7172C186.826 18.7172 185.496 17.4099 185.496 15.7838C185.496 14.1577 186.825 12.8505 188.473 12.8505ZM122.504 22.0274C118.718 22.0274 117.708 26.3249 117.708 28.9394C117.708 31.5539 118.777 36.1418 122.476 36.1418C126.174 36.1418 127.244 31.4378 127.244 28.9394C127.244 26.4411 126.319 22.0274 122.505 22.0274H122.504ZM115.28 42.53C113.835 43.1984 113.142 44.4465 113.054 45.986C112.708 52.258 121.723 54.1176 127.705 51.9392C130.103 51.0966 131.779 49.2678 131.865 47.2932C132.039 44.5922 129.092 43.7507 126.635 43.663C123.023 43.5173 118.458 44.0991 115.28 42.53ZM186.594 24.6704C186.565 23.1604 185.698 22.6958 184.311 22.6958V22.3474C186.507 22.3474 189.195 22.0274 191.304 21.4182C191.304 27.081 191.275 32.7723 191.304 38.4352C191.334 40.2355 192.171 40.7001 193.905 40.7001V41.077H184.253V40.7001C186.045 40.7001 186.594 40.0613 186.594 38.3475V24.6692V24.6704ZM165.211 26.1222C166.454 23.4508 168.303 21.7666 170.932 21.3886C175.295 20.7782 179.543 23.5089 179.543 28.4168V38.2609C179.572 40.0909 180.41 40.5555 182.144 40.5555V40.9039C178.936 40.9039 175.728 41.0781 172.492 41.0781V40.7012C174.284 40.7012 174.804 40.0624 174.804 38.3486V28.5044C174.804 25.9195 174.284 22.3189 170.96 22.3189C167.81 22.3189 165.413 26.3557 165.413 29.0852V38.3486C165.413 40.0624 165.933 40.7012 167.724 40.7012V41.0781H158.362V40.7012C160.125 40.7012 160.673 40.0624 160.673 38.3486V24.7284C160.673 23.1889 159.835 22.6958 158.39 22.6958V22.3474C160.644 22.3474 163.013 21.9989 165.21 21.4182V26.1222H165.211ZM109.761 31.4947C109.761 37.3021 105.542 41.6008 99.5313 41.6008C93.5204 41.6008 89.3021 37.0414 89.3021 31.4947C89.3021 25.948 93.5204 21.3886 99.5313 21.3886C105.542 21.3886 109.761 25.7157 109.761 31.4947ZM141.429 32.3077C141.776 41.9777 150.907 43.3134 155.097 35.7637H155.849C154.375 39.074 150.706 41.7169 146.891 41.5427C140.36 41.2523 136.662 36.6929 136.691 31.5243C136.749 26.0072 141.141 21.3897 146.66 21.3897C152.179 21.3897 156.773 25.4265 156.773 30.7113C156.773 32.105 155.935 32.3089 154.664 32.3089H141.429V32.3077ZM71.1267 37.1279C72.1091 39.1901 74.2188 40.8162 76.4725 40.8162C80.7486 40.8162 82.1355 34.9507 82.1355 31.6689C82.1355 28.3871 81.1531 22.2597 76.6741 22.2597C73.9004 22.2597 71.964 24.7285 71.1267 27.0514V37.1279ZM105.021 31.4947C105.021 28.0968 104.096 22.0274 99.5313 22.0274C94.9662 22.0274 94.0416 28.0387 94.0416 31.4947C94.0416 34.9507 95.0535 40.9904 99.5313 40.9904C101.41 40.9904 102.797 39.6251 103.634 38.0867C104.674 36.1122 105.021 33.7015 105.021 31.4947ZM209.479 30.7101C205.434 30.7101 200.897 32.4239 200.897 37.0118C200.897 43.1096 209.277 40.0317 209.45 34.9792C209.48 33.6719 209.48 32.0174 209.48 30.7101H209.479ZM141.429 31.6108H150.878C152.41 31.6108 152.121 29.9848 152.034 28.9679C151.687 25.8023 150.328 22.0274 146.66 22.0274C142.527 22.0274 141.401 28.0968 141.429 31.6108Z" fill="#2A2421"/>
<path d="M46.7693 38.5798C48.879 36.4595 49.3991 32.8885 46.0758 28.7937C48.3295 30.4494 51.6527 30.7101 53.4158 28.9394C55.6989 26.6449 54.9182 23.0443 51.0749 19.1533L44.9496 13.0259L44.834 13.1716C45.9897 14.3331 45.8741 15.0881 45.0074 15.9888L33.4207 27.6049L35.9055 30.1021L41.3374 24.6431L43.9955 27.3145C46.5381 29.8698 46.7115 33.1515 44.1689 35.7068C41.3657 38.524 38.1297 37.9137 35.7605 35.503L27.7849 27.5172L37.0318 18.2241C40.5862 14.652 40.9907 10.6448 38.3608 8.00186C36.2511 5.88157 32.6978 5.3589 28.6234 8.67028C30.2708 6.43384 30.5303 3.09512 28.7684 1.29367C26.4853 -1.00084 22.9026 -0.216259 19.0592 3.67473L12.9339 9.80216L13.079 9.94792C14.2347 8.78643 14.9859 8.90257 15.8821 9.77369L27.4404 21.3897L29.9252 18.8925L24.4934 13.462L27.1515 10.7906C29.6941 8.23529 32.9596 8.03146 35.5021 10.5867C38.3053 13.4324 37.698 16.6561 35.2993 19.0668L27.3532 27.0526L18.1063 17.7595C14.5519 14.217 10.5647 13.8104 7.93489 16.4523C5.82514 18.5726 5.30507 22.1436 8.6 26.2384C6.37467 24.5827 3.05255 24.2923 1.28952 26.0926C-1.02192 28.3872 -0.212916 31.9878 3.63041 35.8503L9.72738 42.0062L9.87242 41.8605C8.7167 40.699 8.83227 39.944 9.69905 39.0433L21.2574 27.4272L18.7726 24.93L13.369 30.389L10.7109 27.7176C8.1683 25.1327 7.99494 21.8805 10.5081 19.3252C13.3396 16.5081 16.5473 17.1184 18.9459 19.4995L26.8921 27.5149L17.6452 36.808C14.1202 40.3801 13.7157 44.3588 16.3444 47.0302C18.4542 49.1209 22.0074 49.6732 26.0819 46.3333C24.4345 48.5982 24.1455 51.9381 25.9369 53.7099C28.22 56.0045 31.8027 55.2199 35.646 51.3573L41.7713 45.2014L41.6263 45.0853C40.4706 46.2468 39.7194 46.1306 38.8231 45.231L27.2648 33.615L24.78 36.1122L30.2119 41.5712L27.5538 44.2426C24.9817 46.7979 21.7457 46.9722 19.2031 44.4169C16.3999 41.5997 17.0073 38.3475 19.3765 35.9665L27.3521 27.951L36.5989 37.2441C40.1533 40.8162 44.1406 41.2228 46.7704 38.5798H46.7693ZM28.2189 51.2708C26.6009 49.6447 25.9652 46.7114 27.7566 44.8815L30.6459 42.0062L36.0494 47.4367C37.3207 48.7144 36.5412 49.557 35.8183 50.2824L35.1532 50.9508C32.6389 53.4776 29.8369 52.8969 28.2177 51.2708H28.2189ZM3.71539 28.3872C5.33339 26.7611 8.25215 26.1222 10.0718 27.9226L12.9328 30.8263L7.50093 36.2568C6.22964 37.5345 5.42064 36.751 4.69775 36.0245L4.03264 35.3561C1.49007 32.8293 2.09625 30.0132 3.71425 28.386L3.71539 28.3872ZM26.4853 3.76128C28.1033 5.38737 28.7389 8.3207 26.9192 10.1495L24.0583 13.0247L18.6547 7.56572C17.3834 6.28808 18.1347 5.47504 18.8575 4.74854L19.551 4.08011C22.0652 1.52483 24.8673 2.10558 26.4864 3.76014L26.4853 3.76128ZM50.9888 26.6449C49.3708 28.271 46.452 28.9098 44.6323 27.081L41.7713 24.2058L47.1749 18.7468C48.4462 17.4976 49.2846 18.2526 50.0064 18.9791L50.6715 19.676C53.2141 22.2028 52.6079 25.0188 50.9899 26.6449H50.9888Z" fill="#2A2421"/>
</g>
<defs>
<clipPath id="clip0_5302_3957">
<rect width="218" height="55" fill="white"/>
</clipPath>
</defs>
</svg>
