<svg width="162" height="38" viewBox="0 0 162 38" fill="none" xmlns="http://www.w3.org/2000/svg">
<path d="M47.9601 17.92V22.636H45.7461V10.036C46.3701 10.036 47.0481 10.03 47.7801 10.018C48.5121 10.006 49.1121 10 49.5801 10C52.6281 10 54.1521 11.296 54.1521 13.888C54.1521 14.848 53.9061 15.64 53.4141 16.264C52.9221 16.864 52.3581 17.272 51.7221 17.488L55.6641 22.636H52.9821L49.5081 17.92H47.9601ZM49.4721 12.07C49.4121 12.07 49.3161 12.076 49.1841 12.088C49.0521 12.088 48.8661 12.094 48.6261 12.106H47.9601V15.85H49.4001C50.1081 15.85 50.6841 15.676 51.1281 15.328C51.5841 14.98 51.8121 14.506 51.8121 13.906C51.8121 12.682 51.0321 12.07 49.4721 12.07ZM62.6151 20.368L63.2091 21.826C62.4051 22.498 61.3731 22.834 60.1131 22.834C58.8171 22.834 57.7611 22.444 56.9451 21.664C56.1531 20.896 55.7571 19.87 55.7571 18.586C55.7571 17.386 56.1471 16.378 56.9271 15.562C57.7071 14.746 58.7451 14.338 60.0411 14.338C61.1091 14.338 62.0151 14.692 62.7591 15.4C63.5031 16.108 63.8751 17.008 63.8751 18.1C63.8751 18.58 63.8331 18.952 63.7491 19.216H57.9001C57.9841 19.804 58.2421 20.266 58.6741 20.602C59.1181 20.938 59.6701 21.106 60.3301 21.106C61.2301 21.106 61.9921 20.86 62.6161 20.368H62.6151ZM59.9511 16.066C58.7751 16.066 58.0671 16.654 57.8271 17.83H61.8051C61.8171 17.314 61.6491 16.894 61.3011 16.57C60.9651 16.234 60.5151 16.066 59.9511 16.066ZM73.2661 26.236H71.1961V22.222C70.6056 22.6198 69.9101 22.8328 69.1981 22.834C67.9141 22.834 66.8881 22.45 66.1201 21.682C65.3641 20.902 64.9861 19.87 64.9861 18.586C64.9861 17.374 65.4241 16.366 66.3001 15.562C67.1881 14.746 68.2981 14.338 69.6301 14.338C71.0221 14.338 72.2341 14.662 73.2661 15.31V26.236ZM69.4681 20.908C70.1641 20.908 70.7401 20.662 71.1961 20.17V16.678C70.6561 16.414 70.1281 16.282 69.6121 16.282C68.8681 16.282 68.2801 16.51 67.8481 16.966C67.4161 17.41 67.2001 17.98 67.2001 18.676C67.2001 19.324 67.4041 19.858 67.8121 20.278C68.2321 20.698 68.7841 20.908 69.4681 20.908ZM80.8001 14.536H82.8701V22.636H80.8001V21.646C80.1521 22.438 79.2881 22.834 78.2081 22.834C77.3441 22.834 76.6541 22.546 76.1381 21.97C75.6221 21.394 75.3641 20.566 75.3641 19.486V14.536H77.4341V19.054C77.4341 20.29 77.9501 20.908 78.9821 20.908C79.6901 20.908 80.2961 20.578 80.8001 19.918V14.536ZM91.5301 20.368L92.1241 21.826C91.3201 22.498 90.2881 22.834 89.0281 22.834C87.7321 22.834 86.6761 22.444 85.8601 21.664C85.0681 20.896 84.6721 19.87 84.6721 18.586C84.6721 17.386 85.0621 16.378 85.8421 15.562C86.6221 14.746 87.6601 14.338 88.9561 14.338C90.0241 14.338 90.9301 14.692 91.6741 15.4C92.4181 16.108 92.7901 17.008 92.7901 18.1C92.7901 18.58 92.7481 18.952 92.6641 19.216H86.8141C86.8981 19.804 87.1561 20.266 87.5881 20.602C88.0321 20.938 88.5841 21.106 89.2441 21.106C90.1441 21.106 90.9061 20.86 91.5301 20.368ZM88.8661 16.066C87.6901 16.066 86.9821 16.654 86.7421 17.83H90.7201C90.7321 17.314 90.5641 16.894 90.2161 16.57C89.8801 16.234 89.4301 16.066 88.8661 16.066ZM94.1881 16.804C94.1881 16.048 94.4641 15.448 95.0161 15.004C95.5681 14.56 96.2821 14.338 97.1581 14.338C98.4781 14.338 99.5041 14.68 100.236 15.364L99.4621 16.84C98.8021 16.324 98.0701 16.066 97.2661 16.066C96.9781 16.066 96.7381 16.138 96.5461 16.282C96.3541 16.414 96.2581 16.576 96.2581 16.768C96.2581 17.164 96.7681 17.494 97.7881 17.758C98.1601 17.842 98.4901 17.938 98.7781 18.046C99.0661 18.142 99.3601 18.286 99.6601 18.478C99.9721 18.658 100.212 18.898 100.38 19.198C100.548 19.498 100.632 19.846 100.632 20.242C100.632 21.034 100.332 21.664 99.7321 22.132C99.1441 22.6 98.3521 22.834 97.3561 22.834C96.6481 22.834 95.9581 22.684 95.2861 22.384C94.6021 22.072 94.1641 21.76 93.9721 21.448L94.9801 20.098C95.2081 20.374 95.5861 20.608 96.1141 20.8C96.6541 21.004 97.1161 21.106 97.5001 21.106C97.9681 21.154 98.2981 21.004 98.4901 20.656C98.6821 20.296 98.5561 20.002 98.1121 19.774C97.9321 19.678 97.6501 19.576 97.2661 19.468C96.8941 19.36 96.5461 19.252 96.2221 19.144C95.8891 19.0143 95.5645 18.864 95.2501 18.694C94.9321 18.5197 94.6653 18.2653 94.4761 17.956C94.2841 17.632 94.1881 17.248 94.1881 16.804ZM102.276 19.558V12.286H104.346V14.536H106.956V16.48H104.346V19.432C104.346 20.404 104.67 20.89 105.318 20.89C105.726 20.89 106.14 20.734 106.56 20.422L107.19 22.024C106.53 22.552 105.732 22.816 104.796 22.816C103.92 22.816 103.278 22.552 102.87 22.024C102.474 21.484 102.276 20.662 102.276 19.558ZM113.649 22.636H113.496V10.736H113.683C114.171 10.736 114.624 10.73 115.043 10.719C115.542 10.7036 116.04 10.6923 116.539 10.685C117.684 10.685 118.693 10.844 119.565 11.161C120.449 11.467 121.152 11.898 121.673 12.453C122.185 12.9818 122.579 13.6134 122.829 14.306C123.09 14.986 123.22 15.723 123.22 16.516C123.22 18.306 122.625 19.78 121.435 20.936C120.257 22.092 118.579 22.67 116.403 22.67C115.916 22.67 115.468 22.664 115.06 22.653C114.59 22.6409 114.119 22.6352 113.649 22.636ZM116.505 11.569C116.256 11.569 115.888 11.58 115.4 11.603C114.924 11.614 114.601 11.62 114.431 11.62V21.752C114.805 21.752 115.157 21.758 115.485 21.769C115.814 21.769 116.052 21.775 116.199 21.786H116.437C118.285 21.786 119.713 21.299 120.721 20.324C121.73 19.338 122.234 18.069 122.234 16.516C122.234 15.054 121.753 13.864 120.789 12.946C119.815 12.028 118.387 11.569 116.505 11.569ZM131.456 21.021L131.745 21.701C131.053 22.426 130.113 22.789 128.923 22.789C127.699 22.789 126.718 22.426 125.982 21.701C125.234 20.976 124.86 20.012 124.86 18.811C124.86 17.655 125.2 16.703 125.88 15.955C126.571 15.207 127.523 14.833 128.736 14.833C129.722 14.833 130.549 15.15 131.218 15.785C131.875 16.408 132.204 17.241 132.204 18.284C132.204 18.556 132.187 18.794 132.153 18.998H125.846C125.88 19.916 126.18 20.641 126.747 21.174C127.313 21.695 128.056 21.956 128.974 21.956C130.039 21.956 130.866 21.644 131.456 21.021ZM128.651 15.666C127.835 15.666 127.172 15.904 126.662 16.38C126.163 16.856 125.874 17.485 125.795 18.267H131.303C131.291 17.462 131.048 16.827 130.572 16.363C130.096 15.898 129.455 15.666 128.651 15.666ZM138.28 20.63C138.28 20.279 138.132 19.995 137.838 19.78C137.52 19.548 137.163 19.3753 136.784 19.27C136.376 19.145 135.962 19.01 135.543 18.862C135.132 18.7093 134.764 18.4584 134.472 18.131C134.188 17.791 134.047 17.366 134.047 16.856C134.047 16.244 134.273 15.756 134.727 15.394C135.18 15.02 135.775 14.833 136.512 14.833C137.566 14.833 138.365 15.116 138.909 15.683L138.535 16.346C138.013 15.859 137.345 15.615 136.529 15.615C136.075 15.615 135.701 15.734 135.407 15.972C135.273 16.0726 135.164 16.2036 135.09 16.3544C135.016 16.5051 134.979 16.6712 134.982 16.839C134.982 17.202 135.123 17.502 135.407 17.74C135.701 17.967 136.053 18.148 136.461 18.284C136.88 18.409 137.299 18.544 137.719 18.692C138.138 18.839 138.489 19.072 138.773 19.389C139.067 19.706 139.215 20.109 139.215 20.596C139.215 21.287 138.954 21.826 138.433 22.211C137.923 22.596 137.265 22.789 136.461 22.789C135.962 22.789 135.441 22.676 134.897 22.449C134.387 22.234 134.035 21.979 133.843 21.684L134.336 21.106C134.551 21.366 134.874 21.582 135.305 21.752C135.747 21.922 136.166 22.007 136.563 22.007C137.061 22.007 137.469 21.888 137.787 21.65C138.115 21.4 138.28 21.06 138.28 20.63ZM142.733 22.636H141.849V14.986H142.733V22.636ZM141.696 12.011C141.693 11.9331 141.709 11.8557 141.741 11.7848C141.774 11.714 141.822 11.6517 141.883 11.603C142.008 11.5011 142.164 11.4469 142.325 11.45C142.472 11.45 142.603 11.507 142.716 11.62C142.776 11.666 142.824 11.7254 142.856 11.7933C142.888 11.8612 142.905 11.9358 142.903 12.011C142.907 12.095 142.894 12.1791 142.865 12.258C142.836 12.3369 142.791 12.409 142.733 12.47C142.682 12.5265 142.618 12.5709 142.548 12.6003C142.477 12.6297 142.401 12.6432 142.325 12.64C142.156 12.6444 141.992 12.5835 141.866 12.47C141.808 12.409 141.763 12.3369 141.734 12.258C141.705 12.1791 141.692 12.095 141.696 12.011ZM144.752 23.758C144.752 23.18 144.956 22.693 145.364 22.296C145.772 21.899 146.35 21.622 147.098 21.463C146.928 21.2581 146.837 20.9984 146.843 20.732C146.843 20.449 146.939 20.194 147.132 19.967C146.653 19.7683 146.245 19.4308 145.959 18.998C145.674 18.5641 145.526 18.0549 145.534 17.536C145.534 16.754 145.811 16.108 146.367 15.598C146.922 15.088 147.653 14.833 148.56 14.833C149.285 14.833 149.925 15.026 150.481 15.411H150.498L152.674 14.833V15.666L151.127 16.057C151.433 16.522 151.586 17.015 151.586 17.536C151.586 18.296 151.302 18.941 150.736 19.474C150.169 19.984 149.444 20.239 148.56 20.239C148.242 20.239 147.987 20.216 147.795 20.171C147.688 20.3378 147.634 20.5337 147.642 20.732C147.642 20.992 147.715 21.197 147.863 21.344C148.293 21.321 148.531 21.31 148.577 21.31C149.744 21.31 150.673 21.525 151.365 21.956C152.056 22.386 152.402 22.987 152.402 23.758C152.402 24.518 152.056 25.107 151.365 25.526C150.673 25.956 149.744 26.172 148.577 26.172C147.398 26.172 146.463 25.962 145.772 25.543C145.092 25.123 144.752 24.529 144.752 23.758ZM145.653 23.758C145.653 24.257 145.913 24.648 146.435 24.931C146.967 25.226 147.681 25.373 148.577 25.373C149.461 25.373 150.169 25.226 150.702 24.931C151.234 24.636 151.501 24.245 151.501 23.758C151.501 23.259 151.234 22.863 150.702 22.568C150.18 22.262 149.472 22.109 148.577 22.109C147.693 22.109 146.984 22.256 146.452 22.551C145.919 22.846 145.653 23.248 145.653 23.758ZM147.03 16.176C146.838 16.3459 146.685 16.5555 146.583 16.7904C146.48 17.0253 146.43 17.2797 146.435 17.536C146.435 18.08 146.633 18.533 147.03 18.896C147.426 19.259 147.936 19.44 148.56 19.44C149.183 19.44 149.693 19.259 150.09 18.896C150.486 18.533 150.685 18.08 150.685 17.536C150.685 16.992 150.481 16.539 150.073 16.176C149.676 15.813 149.172 15.632 148.56 15.632C147.959 15.632 147.449 15.813 147.03 16.176ZM155.075 22.636H154.191V14.986H155.075V16.057C155.392 15.706 155.8 15.417 156.299 15.19C156.779 14.9699 157.301 14.854 157.829 14.85C158.894 14.85 159.693 15.128 160.226 15.683C160.758 16.238 161.025 17.1 161.025 18.267V22.636H160.141V18.437C160.141 16.601 159.302 15.683 157.625 15.683C157.137 15.683 156.661 15.796 156.197 16.023C155.766 16.2133 155.382 16.498 155.075 16.856V22.636Z" fill="#2B2E34"/>
<path d="M16.3996 2.60039L2.60036 16.3996C1.16422 17.8358 1.16422 20.1642 2.60036 21.6004L16.3996 35.3996C17.8358 36.8358 20.1642 36.8358 21.6003 35.3996L35.3996 21.6004C36.8357 20.1642 36.8357 17.8358 35.3996 16.3996L21.6003 2.60038C20.1642 1.16424 17.8358 1.16424 16.3996 2.60039Z" fill="#242424"/>
<path d="M19.0437 29.8818C25.0535 29.8818 29.9254 25.0099 29.9254 19.0002C29.9254 12.9904 25.0535 8.11853 19.0437 8.11853C13.034 8.11853 8.16211 12.9904 8.16211 19.0002C8.16211 25.0099 13.034 29.8818 19.0437 29.8818Z" fill="#FCFCFC"/>
<path d="M22.2613 12.1995H15.9177C13.8867 12.1995 12.2402 13.8459 12.2402 15.8769V22.2206C12.2402 24.2516 13.8867 25.898 15.9177 25.898H22.2613C24.2923 25.898 25.9388 24.2516 25.9388 22.2206V15.8769C25.9388 13.8459 24.2923 12.1995 22.2613 12.1995Z" fill="#242424"/>
<path d="M19.0227 23.7234C21.6414 23.7234 23.7642 21.6006 23.7642 18.982C23.7642 16.3633 21.6414 14.2405 19.0227 14.2405C16.4041 14.2405 14.2812 16.3633 14.2812 18.982C14.2812 21.6006 16.4041 23.7234 19.0227 23.7234Z" fill="#FCFCFC"/>
<path d="M18.3102 17.6938L17.8707 18.1332C17.392 18.6119 17.392 19.3881 17.8707 19.8668L18.3102 20.3062C18.7889 20.785 19.565 20.785 20.0437 20.3062L20.4832 19.8668C20.9619 19.3881 20.9619 18.6119 20.4832 18.1332L20.0437 17.6938C19.565 17.215 18.7889 17.215 18.3102 17.6938Z" fill="#242424"/>
</svg>
