<svg width="49" height="48" viewBox="0 0 49 48" fill="none" xmlns="http://www.w3.org/2000/svg">
<circle cx="24.585" cy="23.7572" r="23.6143" transform="rotate(-90 24.585 23.7572)" fill="#E1DFE3"/>
<g clip-path="url(#clip0_516_5581)">
<path fill-rule="evenodd" clip-rule="evenodd" d="M34.4671 18.5343C34.6104 18.063 34.4671 17.7161 33.781 17.7161H31.5153C30.9388 17.7161 30.673 18.0156 30.5288 18.3461C30.5288 18.3461 29.3766 21.1046 27.7445 22.8964C27.2163 23.4159 26.9763 23.5808 26.688 23.5808C26.5439 23.5808 26.3273 23.4159 26.3273 22.9438V18.5343C26.3273 17.9681 26.1685 17.7161 25.6886 17.7161H22.1257C21.7658 17.7161 21.5492 17.9784 21.5492 18.2279C21.5492 18.7639 22.3657 18.8881 22.4494 20.3968V23.6749C22.4494 24.3938 22.3173 24.5242 22.0291 24.5242C21.2609 24.5242 19.3923 21.7528 18.2832 18.5817C18.0683 17.9646 17.8508 17.7161 17.2717 17.7161H15.0043C14.357 17.7161 14.2275 18.0156 14.2275 18.3461C14.2275 18.9348 14.9957 21.8589 17.8051 25.7265C19.678 28.3675 22.3147 29.7994 24.7167 29.7994C26.1572 29.7994 26.335 29.4818 26.335 28.9337V26.9374C26.335 26.3013 26.4714 26.1744 26.928 26.1744C27.2646 26.1744 27.8403 26.3401 29.185 27.6132C30.7213 29.1227 30.9742 29.7994 31.839 29.7994H34.1046C34.7519 29.7994 35.0765 29.4818 34.89 28.8534C34.6846 28.2286 33.951 27.3215 32.9783 26.2452C32.4501 25.6324 31.6577 24.9721 31.4169 24.6415C31.0812 24.2178 31.177 24.0287 31.4169 23.6516C31.4169 23.6516 34.1788 19.8315 34.4663 18.5343H34.4671Z" fill="#A09C9C"/>
</g>
<defs>
<clipPath id="clip0_516_5581">
<rect width="20.7143" height="20.7143" fill="white" transform="translate(14.2275 13.4)"/>
</clipPath>
</defs>
</svg>
