<svg width="59" height="59" viewBox="0 0 59 59" fill="none" xmlns="http://www.w3.org/2000/svg">
<ellipse cx="29.5" cy="29.5" rx="29.5" ry="29.5" transform="rotate(180 29.5 29.5)" fill="white"/>
<path d="M42.4346 23.8242C42.2818 23.2792 41.984 22.7857 41.573 22.3963C41.1504 21.995 40.6324 21.7079 40.068 21.5621C37.9555 21.0056 29.4921 21.0056 29.4921 21.0056C25.9639 20.9655 22.4364 21.1419 18.9298 21.534C18.3653 21.6905 17.8483 21.984 17.4248 22.3885C17.0086 22.7887 16.7071 23.2823 16.5496 23.8231C16.1713 25.86 15.9875 27.9283 16.0007 30C15.9872 32.0698 16.1705 34.1374 16.5496 36.1769C16.7037 36.7155 17.0041 37.2068 17.4214 37.6037C17.8387 38.0005 18.3584 38.2872 18.9298 38.439C21.0704 38.9944 29.4921 38.9944 29.4921 38.9944C33.0249 39.0346 36.5568 38.8581 40.068 38.466C40.6324 38.3202 41.1504 38.0331 41.573 37.6318C41.9892 37.2349 42.285 36.7413 42.4335 36.2039C42.8217 34.1677 43.0104 32.0986 42.9971 30.0259C43.0263 27.9443 42.8378 25.8654 42.4346 23.8231V23.8242ZM26.8015 33.8496V26.1515L33.843 30.0011L26.8015 33.8496Z" fill="#A09C9C"/>
</svg>
