<svg width="59" height="59" viewBox="0 0 59 59" fill="none" xmlns="http://www.w3.org/2000/svg">
<ellipse cx="29.5" cy="29.5" rx="29.5" ry="29.5" transform="rotate(180 29.5 29.5)" fill="white"/>
<g clip-path="url(#clip0_829_537)">
<path fill-rule="evenodd" clip-rule="evenodd" d="M41.4271 23.1964C41.6 22.6276 41.4271 22.2089 40.599 22.2089H37.8646C37.1688 22.2089 36.8479 22.5703 36.674 22.9693C36.674 22.9693 35.2833 26.2984 33.3135 28.4609C32.676 29.088 32.3865 29.287 32.0385 29.287C31.8646 29.287 31.6031 29.088 31.6031 28.5182V23.1964C31.6031 22.513 31.4115 22.2089 30.8323 22.2089H26.5323C26.0979 22.2089 25.8365 22.5255 25.8365 22.8266C25.8365 23.4734 26.8219 23.6234 26.9229 25.4443V29.4005C26.9229 30.2682 26.7635 30.4255 26.4156 30.4255C25.4885 30.4255 23.2333 27.0807 21.8948 23.2537C21.6354 22.5089 21.3729 22.2089 20.674 22.2089H17.9375C17.1562 22.2089 17 22.5703 17 22.9693C17 23.6797 17.9271 27.2089 21.3177 31.8766C23.5781 35.0641 26.7604 36.7922 29.6594 36.7922C31.3979 36.7922 31.6125 36.4089 31.6125 35.7474V33.338C31.6125 32.5703 31.7771 32.4172 32.3281 32.4172C32.7344 32.4172 33.4292 32.6172 35.0521 34.1537C36.9062 35.9755 37.2115 36.7922 38.2552 36.7922H40.9896C41.7708 36.7922 42.1625 36.4089 41.9375 35.6505C41.6896 34.8964 40.8042 33.8016 39.6302 32.5026C38.9927 31.763 38.0365 30.9662 37.7458 30.5672C37.3406 30.0557 37.4562 29.8276 37.7458 29.3724C37.7458 29.3724 41.0792 24.762 41.426 23.1964H41.4271Z" fill="#A09C9C"/>
</g>
<defs>
<clipPath id="clip0_829_537">
<rect width="25" height="25" fill="white" transform="translate(17 17)"/>
</clipPath>
</defs>
</svg>
