<svg width="145" height="54" viewBox="0 0 145 54" fill="none" xmlns="http://www.w3.org/2000/svg">
<path d="M24.69 39.0697C17.9829 39.0697 12.5264 33.666 12.5264 27.0239C12.5264 20.3819 17.9829 14.9783 24.69 14.9783C31.397 14.9783 36.8536 20.3819 36.8536 27.0239C36.8536 33.666 31.397 39.0697 24.69 39.0697ZM24.69 18.7489C20.0824 18.7489 16.3339 22.461 16.3339 27.0239C16.3339 31.5869 20.0824 35.2991 24.69 35.2991C29.2975 35.2991 33.0461 31.5869 33.0461 27.0239C33.0461 22.461 29.2975 18.7489 24.69 18.7489Z" fill="#453C3C"/>
<path d="M50.9868 14.9783C44.2798 14.9783 38.8232 20.3819 38.8232 27.0239V49.9351H42.6308V35.7691C44.8116 37.8138 47.7537 39.0697 50.9868 39.0697C57.6938 39.0697 63.1504 33.666 63.1504 27.0239C63.1504 20.3819 57.6938 14.9783 50.9868 14.9783ZM50.9868 35.2991C46.3793 35.2991 42.6308 31.5869 42.6308 27.0239C42.6308 22.461 46.3793 18.7489 50.9868 18.7489C55.5943 18.7489 59.3429 22.461 59.3429 27.0239C59.3429 31.5869 55.5943 35.2991 50.9868 35.2991Z" fill="#453C3C"/>
<path d="M87.9615 14.9783C81.2544 14.9783 75.7979 20.3819 75.7979 27.0239C75.7979 33.666 81.2544 39.0697 87.9615 39.0697C91.1946 39.0697 94.1367 37.8137 96.3175 35.7691V39.3694H100.125V27.0239C100.125 20.3819 94.6685 14.9783 87.9615 14.9783ZM87.9615 35.2991C83.3539 35.2991 79.6054 31.5869 79.6054 27.0239C79.6054 22.461 83.3539 18.7489 87.9615 18.7489C92.5691 18.7489 96.3175 22.461 96.3175 27.0239C96.3175 31.5869 92.5691 35.2991 87.9615 35.2991Z" fill="#453C3C"/>
<path d="M13.0886 34.9213H10.1635C6.97058 34.9213 4.37295 32.3488 4.37295 29.1867V19.0287H12.6573V15.2581H4.37295V4.0199H0.56543V29.1867C0.56543 34.4278 4.87114 38.6919 10.1635 38.6919H14.219L13.0886 34.9213Z" fill="#453C3C"/>
<path d="M74.7173 4.56969H79.938L81.0684 0.799072H74.7173C69.4249 0.799072 65.1191 5.06311 65.1191 10.3042V38.6918H68.9267V19.3232H77.211V15.5526H68.9267V10.3042C68.9267 7.14219 71.5243 4.56969 74.7173 4.56969Z" fill="#453C3C"/>
<path d="M132.27 39.0696C125.563 39.0696 120.107 33.6659 120.107 27.0238C120.107 20.3818 125.563 14.9781 132.27 14.9781C135.519 14.9781 138.574 16.2311 140.871 18.5062L142.203 19.825L129.389 32.7932L126.668 30.156L136.7 20.0033C135.384 19.1861 133.861 18.7488 132.27 18.7488C127.663 18.7488 123.914 22.4609 123.914 27.0238C123.914 31.5868 127.663 35.2989 132.27 35.2989C136.878 35.2989 140.626 31.5868 140.626 27.0238H144.434C144.434 33.6659 138.977 39.0696 132.27 39.0696Z" fill="#453C3C"/>
<path d="M120.155 39.0697H114.967C108.162 39.0697 102.625 33.5867 102.625 26.8472C102.625 20.1077 108.162 14.6248 114.967 14.6248H120.155V18.3954H114.967C110.261 18.3954 106.433 22.1869 106.433 26.8472C106.433 31.5076 110.261 35.299 114.967 35.299H120.155V39.0697Z" fill="#453C3C"/>
</svg>
