<svg width="186" height="166" viewBox="0 0 186 166" fill="none" xmlns="http://www.w3.org/2000/svg">
<path d="M5.57048 143.068L3.24685 155.25L4.85584 155.557L6.90293 144.825L12.5963 145.91L10.5492 156.643L12.1582 156.95L14.4818 144.768L5.57048 143.068Z" fill="white" fill-opacity="0.5"/>
<path d="M22.4061 149.48C21.2057 149.364 19.932 149.819 19.2848 150.715L19.4112 149.407L17.8525 149.256L16.6501 161.69L18.2089 161.841L18.7286 156.466C19.1887 157.505 20.3193 158.157 21.5734 158.278C23.8667 158.5 25.916 156.944 26.1724 154.293C26.4271 151.659 24.6994 149.702 22.4061 149.48ZM21.5542 156.794C20.1926 156.662 18.8291 155.427 19.0041 153.618C19.1773 151.826 20.6337 150.791 22.1207 150.935C23.6616 151.084 24.7551 152.492 24.594 154.158C24.4312 155.842 23.095 156.943 21.5542 156.794Z" fill="white" fill-opacity="0.5"/>
<path d="M36.6321 150.27L36.6219 151.584C36.0716 150.59 34.8878 150.041 33.6278 150.031C31.2519 150.013 29.4191 151.925 29.3999 154.409C29.38 156.983 31.2917 158.851 33.4876 158.868C34.8376 158.879 36.013 158.186 36.5787 157.182L36.5672 158.676L38.1331 158.688L38.198 150.282L36.6321 150.27ZM33.733 157.394C32.185 157.382 30.9715 156.023 30.9839 154.421C30.9961 152.837 32.2305 151.496 33.7604 151.508C35.1644 151.519 36.613 152.736 36.5997 154.464C36.5865 156.174 35.227 157.406 33.733 157.394Z" fill="white" fill-opacity="0.5"/>
<path d="M44.054 148.402C45.4539 148.294 46.3163 147.306 46.2095 145.925L44.8815 146.027C44.9314 146.673 44.5713 147.153 43.9611 147.2C43.333 147.248 42.9035 146.83 42.8535 146.184L41.5614 146.284C41.6682 147.666 42.6542 148.51 44.054 148.402ZM47.2946 149.686L42.8987 156.11L42.4312 150.062L40.8698 150.183L41.5177 158.564L42.8457 158.461L47.3107 151.996L47.781 158.08L49.3423 157.959L48.6945 149.578L47.2946 149.686Z" fill="white" fill-opacity="0.5"/>
<path d="M64.4104 155.67L61.8581 147.579L60.7226 147.773L58.559 154.023L54.4063 148.853L53.2885 149.044L53.5874 157.521L55.0423 157.272L54.8795 151.621L58.2526 155.755L59.4236 155.555L61.2283 150.517L62.9377 155.922L64.4104 155.67Z" fill="white" fill-opacity="0.5"/>
<path d="M75.0224 148.526C74.3256 145.955 72.1537 144.753 69.843 145.379C67.5324 146.005 66.1254 148.177 66.8222 150.748C67.519 153.319 69.844 154.535 72.1547 153.909C73.7183 153.486 74.9705 152.326 75.2841 150.73L73.8398 150.562C73.592 151.506 72.811 152.202 71.8207 152.471C70.4309 152.847 69.186 152.383 68.5694 151.002L75.1713 149.213C75.1274 148.982 75.0836 148.752 75.0224 148.526ZM68.2337 149.694C68.0814 148.169 68.8566 147.176 70.2291 146.804C71.5668 146.441 72.7737 146.972 73.3414 148.31L68.2337 149.694Z" fill="white" fill-opacity="0.5"/>
<path d="M80.8678 141.868C79.734 142.279 78.7795 143.238 78.5799 144.325L78.1322 143.09L76.6599 143.623L80.9164 155.368L82.3887 154.834L80.5487 149.757C81.4106 150.498 82.7116 150.601 83.8962 150.171C86.0623 149.386 87.2443 147.101 86.3365 144.596C85.4349 142.109 83.0339 141.083 80.8678 141.868ZM83.2409 148.839C81.9548 149.305 80.193 148.776 79.5735 147.067C78.9602 145.374 79.8307 143.814 81.2353 143.305C82.6907 142.778 84.2831 143.579 84.8534 145.153C85.43 146.744 84.6963 148.311 83.2409 148.839Z" fill="white" fill-opacity="0.5"/>
<path d="M92.3718 140.622L90.0442 141.721L88.7454 138.97L87.3293 139.639L90.9184 147.24L94.7434 145.434C96.5502 144.581 96.6985 142.998 96.1221 141.778C95.5227 140.508 94.2437 139.738 92.3718 140.622ZM94.5237 136.242L98.1127 143.843L99.5288 143.175L95.9398 135.573L94.5237 136.242ZM93.8854 144.207L91.7042 145.237L90.6744 143.056L92.8555 142.026C93.7833 141.588 94.4054 141.852 94.6975 142.47C94.9972 143.105 94.8131 143.769 93.8854 144.207Z" fill="white" fill-opacity="0.5"/>
<path d="M115.298 123.427L120.56 129.983L121.781 129.003L117.444 123.598L121.023 120.725L125.361 126.13L126.582 125.15L121.321 118.594L115.298 123.427Z" fill="white" fill-opacity="0.5"/>
<path d="M128.581 111.95L130.958 118.22L124.863 115.458L123.632 116.62L131.689 120.228L133.383 124.594L134.588 123.458L129.812 110.789L128.581 111.95Z" fill="white" fill-opacity="0.5"/>
<path d="M141.391 108.461L136.265 103.797L132.474 107.965L135.3 111.412C136.557 112.945 136.939 113.73 136.297 114.435L136.006 114.755L138.722 117.226L139.776 116.068L137.965 114.42L141.926 110.066L143.737 111.714L144.803 110.542L141.9 107.901L141.391 108.461ZM134.523 107.906L136.303 105.949L140.337 109.619L137.745 112.468C137.702 111.82 137.174 111.17 136.607 110.483L134.523 107.906Z" fill="white" fill-opacity="0.5"/>
<path d="M141.484 96.9389C140.75 97.8957 140.462 99.2175 140.879 100.241L139.837 99.441L138.883 100.683L148.794 108.288L149.748 107.045L145.463 103.758C146.589 103.918 147.74 103.304 148.507 102.304C149.91 100.476 149.675 97.9142 147.561 96.2925C145.462 94.6819 142.887 95.1109 141.484 96.9389ZM147.237 101.535C146.405 102.62 144.635 103.123 143.193 102.016C141.765 100.92 141.658 99.1369 142.568 97.9516C143.51 96.7235 145.283 96.5412 146.611 97.5602C147.954 98.5902 148.18 100.306 147.237 101.535Z" fill="white" fill-opacity="0.5"/>
<path d="M150.348 89.9132L148.974 92.09L146.401 90.4664L145.566 91.7907L152.674 96.2771L154.932 92.7C155.998 91.0104 155.274 89.5952 154.132 88.8747C152.945 88.1254 151.453 88.1627 150.348 89.9132ZM149.812 85.0626L156.921 89.5491L157.756 88.2247L150.648 83.7383L149.812 85.0626ZM153.549 92.1253L152.262 94.1651L150.222 92.8777L151.509 90.838C152.057 89.9704 152.723 89.8588 153.302 90.2239C153.896 90.5985 154.097 91.2577 153.549 92.1253Z" fill="white" fill-opacity="0.5"/>
<path d="M160.398 62.3851C159.974 63.5142 160.083 64.8626 160.781 65.7201L159.55 65.2585L159 66.7247L170.696 71.1132L171.246 69.647L166.19 67.75C167.313 67.5753 168.236 66.6528 168.679 65.4731C169.488 63.3159 168.517 60.933 166.023 59.9971C163.546 59.0676 161.207 60.2279 160.398 62.3851ZM167.24 65.1062C166.759 66.387 165.213 67.3832 163.511 66.7445C161.825 66.1122 161.204 64.4372 161.729 63.0384C162.273 61.5891 163.916 60.8984 165.484 61.4865C167.068 62.0809 167.784 63.6569 167.24 65.1062Z" fill="white" fill-opacity="0.5"/>
<path d="M164.443 50.3129L169.699 54.4769L163.05 55.2314L162.589 56.8593L171.356 55.8255L175.049 58.705L175.5 57.1116L164.904 48.6849L164.443 50.3129Z" fill="white" fill-opacity="0.5"/>
<path d="M175.797 37.1775L167.324 36.7342L167.108 37.8658L172.204 42.0813L165.907 44.1603L165.695 45.2742L173.74 47.9631L174.016 46.5132L168.666 44.6864L173.72 42.975L173.942 41.8081L169.855 38.3532L175.517 38.6451L175.797 37.1775Z" fill="white" fill-opacity="0.5"/>
<path d="M168.018 30.8777C167.827 32.8485 169.07 33.8367 170.413 33.9666C171.65 34.0862 172.826 33.5128 173.228 31.9783L176.102 34.6071L176.281 32.7617L173.446 30.2814L173.632 28.3644L176.677 28.6589L176.83 27.0822L168.463 26.2732L168.018 30.8777ZM172.024 30.9577C171.921 32.0327 171.318 32.4627 170.602 32.3934C169.903 32.3259 169.412 31.7902 169.501 30.8764L169.78 27.9919L172.288 28.2344L172.024 30.9577Z" fill="white" fill-opacity="0.5"/>
<path d="M168.825 15.9797L172.334 16.0339L172.264 20.6234L168.754 20.5692L168.73 22.135L177.135 22.2648L177.159 20.699L173.667 20.645L173.738 16.0556L177.23 16.1095L177.254 14.5437L168.849 14.4139L168.825 15.9797Z" fill="white" fill-opacity="0.5"/>
<path d="M168.806 2.9748H170.12C169.13 3.5328 168.59 4.7208 168.59 5.9808C168.59 8.3568 170.516 10.1748 173 10.1748C175.574 10.1748 177.428 8.2488 177.428 6.0528C177.428 4.7028 176.726 3.5328 175.718 2.9748H177.212V1.4088L168.806 1.4088V2.9748ZM175.952 5.8188C175.952 7.3668 174.602 8.5908 173 8.5908C171.416 8.5908 170.066 7.3668 170.066 5.8368C170.066 4.4328 171.272 2.9748 173 2.9748C174.71 2.9748 175.952 4.3248 175.952 5.8188Z" fill="white" fill-opacity="0.5"/>
</svg>
