<svg width="488" height="507" viewBox="0 0 488 507" fill="none" xmlns="http://www.w3.org/2000/svg">
<path d="M253.112 253.5V501.106C253.112 503.867 250.855 506.111 248.094 506.057C110.62 503.389 0 391.337 0 253.5C0 115.663 110.62 3.61037 248.094 0.942687C250.855 0.889112 253.112 3.13262 253.112 5.89404V253.5Z" fill="#E3B9BB"/>
<ellipse cx="268.299" cy="253.5" rx="219.701" ry="220.207" fill="#E3B9BB"/>
<path d="M252.5 253.5V426C252.5 428.487 250.473 430.499 248.001 430.431C152.281 427.792 75.5 349.586 75.5 253.5C75.5 157.414 152.281 79.2079 248.001 76.5686C250.473 76.5004 252.5 78.5125 252.5 80.9998V253.5Z" stroke="url(#paint0_linear_44_2475)"/>
<path d="M181.47 453.22L169.79 448.303C165.759 446.606 163.897 447.736 163.08 449.677L162.996 449.876C162.081 452.049 163.516 453.513 164.499 454.239C163.609 454.079 162.005 454.224 161.356 455.767L161.279 455.95C160.685 457.36 161.061 459.158 164.661 460.674L176.274 465.562L181.47 453.22ZM167.268 458.471C166.289 458.059 166.161 457.575 166.363 457.094L166.377 457.061C166.573 456.596 167.022 456.317 168.001 456.729L173.476 459.033L172.742 460.775L167.268 458.471ZM168.869 453.833C167.658 453.323 167.611 452.737 167.835 452.206L167.856 452.156C168.058 451.675 168.535 451.192 169.763 451.709L175.536 454.139L174.642 456.263L168.869 453.833Z" fill="white"/>
<path d="M156.802 441.652C150.941 438.565 149.02 441.092 148.407 442.255L148.39 442.287L152.818 444.619C153.042 444.31 153.982 443.259 156.004 444.324L156.068 444.358C157.883 445.314 157.797 446.714 157.252 447.749L157.21 447.828C156.698 448.8 155.684 449.567 153.836 448.594L153.773 448.561C151.734 447.487 152.06 446.173 152.18 445.829L147.753 443.497L147.728 443.545C147.107 444.723 146.303 447.677 152.02 450.689L153.008 451.209C158.502 454.104 160.649 451.959 161.58 450.192L161.731 449.905C162.671 448.121 163.252 445.05 157.757 442.155L156.802 441.652Z" fill="white"/>
<path d="M139.652 440.798C138.081 439.815 137.741 438.966 138.061 438.082L142.791 441.043C142.134 441.651 141.224 441.782 139.652 440.798ZM135.316 433.307L139.405 435.866C139.55 435.702 140.362 435.084 142.33 436.316L142.345 436.326C144.008 437.367 144.3 438.462 143.887 439.393L134.961 433.806L134.675 434.264C133.443 436.232 132.624 439.203 137.98 442.555L138.819 443.08C143.9 446.26 146.28 444.628 147.464 442.736L147.655 442.431C148.858 440.509 149.248 437.546 144.197 434.385L143.389 433.879C138.033 430.527 136.052 432.132 135.335 433.276L135.316 433.307Z" fill="white"/>
<path d="M126.663 422.505L122.824 419.466L120.143 422.853L120.242 417.421L115.923 414.003L115.907 420.808L110.378 421.964L114.457 425.193L119.126 424.137L116.814 427.059L120.652 430.097L122.954 427.19L123.009 431.963L127.13 435.226L126.989 429.489L133.522 427.934L129.246 424.549L123.993 425.878L126.663 422.505Z" fill="white"/>
<path d="M105.481 414.283C104.133 413.01 103.968 412.11 104.455 411.307L108.51 415.14C107.747 415.607 106.828 415.556 105.481 414.283ZM102.703 406.085L106.209 409.398C106.383 409.266 107.3 408.82 108.988 410.415L109.001 410.427C110.427 411.775 110.497 412.906 109.909 413.738L102.256 406.505L101.885 406.898C100.29 408.585 98.9038 411.336 103.496 415.676L104.215 416.356C108.572 420.473 111.226 419.341 112.759 417.719L113.007 417.457C114.564 415.809 115.529 412.98 111.198 408.888L110.505 408.233C105.913 403.893 103.655 405.078 102.727 406.059L102.703 406.085Z" fill="white"/>
<path d="M101.312 399.321L98.8466 401.56L95.6396 398.029L98.1047 395.79L94.813 392.166L87.6443 398.676L90.936 402.301L93.4411 400.026L96.6481 403.557L94.143 405.832L97.4348 409.456L104.603 402.945L101.312 399.321Z" fill="white"/>
<path d="M94.1476 391.643L83.3461 377.334L85.1706 375.957L82.4594 372.366L78.2788 375.521L79.4392 377.059L74.0663 381.115L77.0052 385.008L82.3782 380.952L84.1351 383.279L78.7621 387.335L81.7119 391.243L87.0849 387.187L88.8418 389.514L83.4688 393.57L86.4186 397.478L94.1476 391.643Z" fill="white"/>
<path d="M80.1083 372.686L77.5124 368.471L69.9035 366.963L74.7465 363.98L72.1884 359.827L63.9429 364.905L66.5388 369.12L74.1383 370.612L69.2953 373.595L71.8629 377.764L80.1083 372.686Z" fill="white"/>
<path d="M69.1436 354.057L66.1827 355.581L64 351.339L66.9609 349.816L64.7205 345.462L56.1098 349.894L58.3502 354.247L61.3592 352.699L63.5419 356.94L60.533 358.488L62.7733 362.842L71.384 358.41L69.1436 354.057Z" fill="white"/>
<path d="M64.3351 344.938L60.901 336.599C59.5507 333.321 57.4045 332.647 55.6569 333.367L55.4406 333.456C53.693 334.176 52.8266 336.09 54.1769 339.369L55.7466 343.18L53.5163 344.099L55.3807 348.626L64.3351 344.938ZM60.074 341.398L58.1433 342.193L57.0397 339.513C56.6902 338.665 56.976 338.177 57.492 337.964L57.5586 337.937C58.0079 337.752 58.6208 337.869 58.9704 338.718L60.074 341.398ZM47.8683 330.384L49.7327 334.911L58.687 331.223L56.8226 326.696L47.8683 330.384Z" fill="white"/>
<path d="M54.6624 320.129L53.3129 315.423L46.8417 317.278L45.6062 312.97L52.0774 311.115L50.7329 306.425L41.424 309.095L45.3536 322.799L54.6624 320.129Z" fill="white"/>
<path d="M44.5986 301.357C43.4882 301.587 42.1849 300.974 41.7502 298.877L41.732 298.789C41.2901 296.656 42.3152 295.837 43.408 295.611L43.4785 295.596C44.5008 295.384 45.8551 295.71 46.297 297.843L46.3153 297.931C46.7426 299.993 45.7267 301.123 44.6691 301.342L44.5986 301.357ZM40.9036 307.122L53.6998 304.471L52.7064 299.677L48.2295 300.604C48.4597 300.207 49.1928 298.511 48.6341 295.815L48.5647 295.48C47.6516 291.073 44.8852 290.231 42.541 290.717L42.1708 290.793C39.7914 291.287 37.7983 293.023 38.7004 297.377L38.7771 297.747C39.3541 300.532 40.8205 301.753 41.2321 302.054L39.9102 302.328L40.9036 307.122Z" fill="white"/>
<path d="M38.6081 282.576C38.3698 280.738 38.8104 279.936 39.6954 279.622L40.4127 285.156C39.5258 285.035 38.8465 284.415 38.6081 282.576ZM41.6411 274.469L42.2612 279.253C42.4801 279.261 43.4724 279.495 43.7709 281.798L43.7733 281.816C44.0255 283.762 43.3644 284.682 42.3832 284.955L41.0295 274.512L40.494 274.582C38.1913 274.88 35.3771 276.134 36.1894 282.4L36.3166 283.382C37.0872 289.326 39.8594 290.128 42.0728 289.841L42.4299 289.795C44.679 289.503 47.2148 287.922 46.4489 282.014L46.3262 281.068C45.514 274.802 43.0156 274.291 41.6768 274.465L41.6411 274.469Z" fill="white"/>
<path d="M44.6185 265.212L44.2809 259.66L39.1651 264.497L34.6497 260.823L34.9699 266.087L38.9439 269.163L35.1709 269.393L35.4681 274.28L45.1342 273.692L44.837 268.805L40.4891 269.069L44.6185 265.212Z" fill="white"/>
<path d="M39.3964 253.073C38.2626 253.056 37.1238 252.174 37.1564 250.033L37.1577 249.943C37.1908 247.765 38.3697 247.189 39.4856 247.206L39.5576 247.207C40.6014 247.223 41.8523 247.836 41.8192 250.013L41.8178 250.103C41.7858 252.209 40.5483 253.091 39.4684 253.074L39.3964 253.073ZM34.5346 257.896L47.6011 258.094L47.6755 253.199L43.104 253.129C43.4152 252.792 44.5 251.296 44.5418 248.543L44.547 248.201C44.6154 243.701 42.0987 242.277 39.705 242.24L39.3271 242.235C36.8973 242.198 34.5739 243.459 34.5064 247.904L34.5006 248.282C34.4574 251.126 35.6226 252.638 35.9588 253.021L34.609 253L34.5346 257.896Z" fill="white"/>
<path d="M41.1057 232.862C42.1098 232.95 43.0003 234.13 42.8434 235.923C42.7383 237.125 42.1721 237.401 41.7238 237.361L41.7059 237.36C41.2218 237.317 41.0543 236.959 40.9846 236.104L40.6932 232.826L41.1057 232.862ZM43.9646 233.022C44.8199 232.952 45.3184 232.418 45.3922 231.575L45.7468 227.523L42.9315 227.276L42.886 227.796C42.8562 228.137 42.7065 228.196 42.4375 228.173L38.8692 227.86C37.5602 227.746 35.7309 228.001 35.2037 234.026L35.1159 235.03C34.6091 240.822 36.5111 241.386 37.8022 241.499L37.9098 241.509L38.3052 236.99C38.0051 236.909 37.3284 236.796 37.5088 234.734L37.5151 234.662C37.6814 232.761 38.0752 232.597 38.4339 232.629C38.7028 232.652 38.8353 232.79 38.853 233.207L38.8591 237.888C38.8411 240.777 39.7005 241.9 41.3143 242.041L41.5295 242.06C43.1075 242.198 44.7399 241.094 45.0223 237.867L45.0396 237.67C45.2859 234.854 44.39 233.529 43.9646 233.022Z" fill="white"/>
<path d="M47.5146 217.845C48.5888 211.309 45.583 210.286 44.2864 210.072L44.2508 210.067L43.4393 215.004C43.8035 215.119 45.098 215.678 44.7272 217.934L44.7155 218.005C44.3827 220.03 43.0282 220.391 41.8737 220.201L41.7849 220.187C40.7015 220.009 39.6523 219.289 39.9909 217.229L40.0026 217.158C40.3763 214.884 41.7254 214.777 42.0894 214.782L42.9009 209.845L42.8477 209.836C41.5333 209.62 38.4768 209.793 37.4288 216.169L37.2478 217.27C36.2407 223.398 38.9544 224.756 40.9259 225.08L41.2456 225.133C43.2349 225.46 46.3323 225.038 47.3394 218.911L47.5146 217.845Z" fill="white"/>
<path d="M49.5864 205.783L46.3474 205.01L47.4551 200.37L50.6941 201.144L51.831 196.381L42.4117 194.133L41.2748 198.895L44.5663 199.681L43.4586 204.32L40.1671 203.534L39.0302 208.297L48.4495 210.545L49.5864 205.783Z" fill="white"/>
<path d="M51.8518 195.732L54.6907 187.172C55.807 183.806 54.6201 181.896 52.8262 181.301L52.6041 181.227C50.8102 180.632 48.9047 181.517 47.7884 184.883L46.4908 188.795L44.2014 188.036L42.6602 192.683L51.8518 195.732ZM50.9329 190.269L48.951 189.611L49.8633 186.861C50.1523 185.989 50.6871 185.806 51.2167 185.982L51.285 186.005C51.7463 186.158 52.1341 186.647 51.8452 187.518L50.9329 190.269ZM48.8706 173.958L47.3293 178.605L56.5209 181.654L58.0622 177.007L48.8706 173.958Z" fill="white"/>
<path d="M54.3829 167.72L57.4496 169.063L59.8326 163.622L56.7659 162.279L54.3829 167.72Z" fill="white"/>
<path d="M66.1485 158.687L68.4207 154.351L62.4576 151.226L64.8468 146.666L62.232 145.296L57.5706 154.193L66.1485 158.687Z" fill="white"/>
<path d="M75.7378 141.406L78.2656 137.234L69.9833 132.216L63.4539 142.992C67.1486 145.23 67.7453 145.739 68.2062 146.229C68.661 146.694 68.6746 147.123 68.3855 147.601L68.2735 147.785L70.906 149.38L71.8574 147.81C72.8741 146.132 72.9011 144.907 72.1863 143.863C71.619 142.993 70.6188 142.282 68.2452 140.781L69.9802 137.917L75.7378 141.406Z" fill="white"/>
<path d="M81.5378 125.223C82.3575 125.809 82.5235 127.279 81.4759 128.742C80.774 129.723 80.1463 129.672 79.7804 129.41L79.7658 129.4C79.3706 129.117 79.4086 128.724 79.7839 127.952L81.2012 124.982L81.5378 125.223ZM83.9175 126.815C84.6893 127.191 85.3905 126.984 85.8829 126.296L88.2505 122.988L85.9524 121.343L85.6486 121.768C85.4495 122.046 85.2905 122.021 85.071 121.864L82.1582 119.779C81.0896 119.014 79.385 118.303 75.865 123.221L75.2783 124.041C71.8945 128.769 73.2449 130.222 74.2988 130.977L74.3866 131.039L77.0266 127.351C76.8092 127.129 76.2844 126.687 77.4891 125.003L77.531 124.945C78.6415 123.393 79.0641 123.452 79.3569 123.662C79.5764 123.819 79.6202 124.005 79.4232 124.373L77.0465 128.405C75.5606 130.884 75.7288 132.288 77.0461 133.231L77.2218 133.356C78.5099 134.278 80.4769 134.159 82.3626 131.524L82.4778 131.363C84.1226 129.065 84.0257 127.468 83.9175 126.815Z" fill="white"/>
<path d="M94.8227 115.001C97.1708 112.178 97.0447 110.387 95.8684 109.409L95.7577 109.317C94.6644 108.408 93.2199 108.962 92.1537 109.878C92.7634 108.723 92.8661 107.614 92.0357 106.924L91.925 106.831C90.901 105.98 89.4493 106.318 86.9516 109.321L81.346 116.06L88.7913 122.253L94.8227 115.001ZM87.157 114.619L86.1745 113.802L87.901 111.726C88.5917 110.895 88.9464 110.722 89.2786 110.998L89.3062 111.021C89.6384 111.298 89.5857 111.699 88.8951 112.529L87.157 114.619ZM90.0908 117.059L88.8177 116L90.7399 113.689C91.4651 112.817 91.9351 112.646 92.3226 112.968L92.3779 113.014C92.7792 113.348 92.7267 113.89 92.0246 114.734L90.0908 117.059Z" fill="white"/>
<path d="M101.95 106.986L99.5515 104.677L102.86 101.24L105.259 103.55L108.654 100.023L101.678 93.3064L98.2821 96.8336L100.72 99.1805L97.4118 102.617L94.9739 100.27L91.5783 103.797L98.5549 110.513L101.95 106.986Z" fill="white"/>
<path d="M112.798 90.6302C113.471 91.3803 113.316 92.8505 111.977 94.0531C111.079 94.8588 110.477 94.6735 110.177 94.3387L110.165 94.3253C109.84 93.9637 109.962 93.5879 110.495 92.9155L112.521 90.3222L112.798 90.6302ZM114.777 92.6996C115.449 93.2329 116.179 93.1829 116.808 92.6176L119.835 89.8997L117.947 87.797L117.559 88.1458C117.304 88.3743 117.154 88.3153 116.974 88.1144L114.581 85.4491C113.703 84.4714 112.192 83.4087 107.692 87.4495L106.942 88.123C102.616 92.0074 103.62 93.7184 104.486 94.6827L104.558 94.7631L107.933 91.7325C107.769 91.4687 107.352 90.9237 108.892 89.5407L108.946 89.4926C110.366 88.2179 110.766 88.3668 111.006 88.6347C111.187 88.8356 111.189 89.0269 110.917 89.3437L107.725 92.7665C105.738 94.8648 105.599 96.2721 106.681 97.4775L106.826 97.6382C107.884 98.8168 109.83 99.1254 112.241 96.9607L112.388 96.8284C114.491 94.9403 114.742 93.3605 114.777 92.6996Z" fill="white"/>
<path d="M127.199 80.7574L128.811 82.8558L132.679 79.8845L126.78 72.2044L119.5 77.7962C116.731 79.9233 116.358 81.9797 117.597 83.5928L117.707 83.7356C118.595 84.8919 119.999 85.243 121.79 84.4124L121.116 88.7656L125.399 85.4763L125.943 81.7222L127.199 80.7574ZM124.491 77.2314L125.653 78.7446L123.24 80.5975C122.341 81.2883 121.878 81.0992 121.582 80.7138L121.549 80.6709C121.297 80.3426 121.165 79.7861 122.078 79.0844L124.491 77.2314Z" fill="white"/>
<path d="M137.552 76.4208L141.758 73.8102L143.239 66.1961L146.239 71.0287L150.383 68.456L145.276 60.2283L141.07 62.839L139.605 70.4436L136.605 65.611L132.445 68.1932L137.552 76.4208Z" fill="white"/>
<path d="M152.001 70.0506L155.99 68.0062L154.947 65.9718L162.444 62.1293L163.486 64.1636L167.475 62.1191L165.086 57.4578L163.388 58.3281L160.317 52.3373L148.544 58.3721C150.367 62.0489 150.866 63.5735 150.877 64.7407L149.612 65.3893L152.001 70.0506ZM154.946 62.6551C154.815 61.6502 154.393 60.471 153.677 58.9567L157.33 57.0847L159.095 60.5286L154.946 62.6551Z" fill="white"/>
<path d="M170.448 50.1942C172.159 49.4814 173.048 49.6961 173.584 50.4674L168.433 52.6129C168.317 51.7253 168.736 50.9071 170.448 50.1942ZM179.067 50.9915L174.614 52.8463C174.664 53.0596 174.698 54.0786 172.555 54.9714L172.538 54.9784C170.727 55.7327 169.665 55.3366 169.144 54.4614L178.865 50.4127L178.657 49.9142C177.764 47.7707 175.815 45.3848 169.983 47.814L169.069 48.1947C163.536 50.4993 163.49 53.3849 164.348 55.4453L164.486 55.7776C165.358 57.8713 167.55 59.9028 173.05 57.612L173.931 57.2452C179.763 54.8159 179.6 52.271 179.081 51.0248L179.067 50.9915Z" fill="white"/>
<path d="M188.937 48.584L189.766 51.0969L194.399 49.5688L191.365 40.3722L182.647 43.2478C179.331 44.3417 178.301 46.1599 178.938 48.0916L178.994 48.2625C179.451 49.6471 180.661 50.4421 182.625 50.2491L180.553 54.136L185.681 52.4444L187.433 49.0802L188.937 48.584ZM187.545 44.3618L188.142 46.1738L185.254 47.1267C184.177 47.4819 183.802 47.1506 183.65 46.689L183.633 46.6377C183.503 46.2446 183.562 45.6755 184.656 45.3147L187.545 44.3618Z" fill="white"/>
<defs>
<linearGradient id="paint0_linear_44_2475" x1="216.723" y1="277.199" x2="84.021" y2="305.28" gradientUnits="userSpaceOnUse">
<stop stop-color="white" stop-opacity="0"/>
<stop offset="1" stop-color="white" stop-opacity="0.5"/>
</linearGradient>
</defs>
</svg>
