<svg width="58" height="58" viewBox="0 0 58 58" fill="none" xmlns="http://www.w3.org/2000/svg">
<circle cx="28.9902" cy="29.1957" r="28.5" fill="#453C3C"/>
<circle cx="29" cy="29" r="3" fill="white"/>
<path d="M51 29C51 41.1503 41.1503 51 29 51C16.8497 51 7 41.1503 7 29C7 16.8497 16.8497 7 29 7C41.1503 7 51 16.8497 51 29ZM9.56484 29C9.56484 39.7337 18.2663 48.4352 29 48.4352C39.7337 48.4352 48.4352 39.7337 48.4352 29C48.4352 18.2663 39.7337 9.56484 29 9.56484C18.2663 9.56484 9.56484 18.2663 9.56484 29Z" fill="white" fill-opacity="0.1"/>
<path d="M49.7176 29C50.4258 29 51.0039 29.5747 50.9626 30.2817C50.776 33.4807 49.8922 36.6058 48.3673 39.4358C46.6393 42.6428 44.1419 45.3705 41.0994 47.374C38.0569 49.3775 34.5644 50.5942 30.9356 50.9147C27.3068 51.2352 23.6552 50.6496 20.3086 49.2104C16.962 47.7712 14.0252 45.5235 11.7618 42.669C9.49833 39.8146 7.97915 36.4428 7.3406 32.8562C6.70206 29.2697 6.96413 25.5807 8.10329 22.1205C9.10856 19.067 10.7691 16.2759 12.9626 13.94C13.4475 13.4237 14.2622 13.448 14.7494 13.9621C15.2366 14.4762 15.2113 15.2851 14.7304 15.8051C12.843 17.8462 11.4119 20.2725 10.5395 22.9225C9.53315 25.9794 9.30163 29.2383 9.86573 32.4067C10.4298 35.5751 11.7719 38.5538 13.7715 41.0755C15.771 43.5971 18.3654 45.5828 21.3219 46.8542C24.2783 48.1256 27.5042 48.6429 30.71 48.3598C33.9157 48.0766 37.001 47.0019 39.6888 45.2319C42.3766 43.462 44.5828 41.0523 46.1094 38.2192C47.4328 35.7631 48.2096 33.0555 48.3929 30.2815C48.4396 29.5748 49.0093 29 49.7176 29Z" fill="white"/>
</svg>
