<svg width="390" height="14" viewBox="0 0 390 14" fill="none" xmlns="http://www.w3.org/2000/svg">
<path d="M-9.9965 13H-5.4525V4.344H-0.316501V1.096H-15.1325V4.344H-9.9965V13ZM9.68662 0.872C1.97462 0.872 0.998623 4.536 0.998623 6.776V7.256C0.998623 9.48 1.97462 13.224 9.68662 13.224H10.4066C18.1026 13.224 19.0786 9.48 19.0786 7.256V6.776C19.0786 4.536 18.0866 0.872 10.4066 0.872H9.68662ZM14.3746 7.112C14.3746 8.392 13.5586 10.008 10.0386 10.008C6.51862 10.008 5.70262 8.328 5.70262 7.08V6.888C5.70262 5.624 6.45462 4.072 10.0386 4.072C13.5586 4.072 14.3746 5.624 14.3746 6.888V7.112ZM31.0911 9.272C35.4431 9.272 36.7391 7.448 36.7391 5.288V5.032C36.7391 2.84 35.4911 1.096 31.0911 1.096H21.1711V13H25.7151V9.272H31.0911ZM25.7151 4.072H30.5471C31.6191 4.072 32.0511 4.472 32.0511 5.16V5.208C32.0511 5.864 31.5871 6.296 30.5471 6.296H25.7151V4.072ZM38.7249 1.096V13H43.2209V8.424H51.4609V5.496H43.2209V4.008H51.6369V1.096H38.7249ZM62.1967 8.104H58.2447L60.1967 4.008L62.1967 8.104ZM64.5807 13H69.5567L63.3327 1.096H57.2207L51.3327 13H55.9407L56.8527 11.08H63.6527L64.5807 13ZM78.5661 13.224C85.7341 13.224 86.8541 9.864 86.8541 8.312V8.056H82.1501C82.0861 8.328 81.7341 10.008 78.2301 10.008C75.0301 10.008 74.2301 8.328 74.2301 7.048V6.856C74.2301 5.528 74.9341 4.072 78.2141 4.072C81.6701 4.072 82.0381 5.576 82.1341 5.896H86.8541V5.688C86.8541 4.152 85.7981 0.872 78.5661 0.872H77.9421C70.5181 0.872 69.5261 4.504 69.5261 6.776V7.24C69.5261 9.496 70.6301 13.224 77.9421 13.224H78.5661ZM88.9018 1.096V13H102.198V10.024H93.3818V8.392H101.894V5.496H93.3818V4.008H102.07V1.096H88.9018ZM124.398 0.872C116.686 0.872 115.71 4.536 115.71 6.776V7.256C115.71 9.48 116.686 13.224 124.398 13.224H125.118C132.814 13.224 133.79 9.48 133.79 7.256V6.776C133.79 4.536 132.798 0.872 125.118 0.872H124.398ZM129.086 7.112C129.086 8.392 128.27 10.008 124.75 10.008C121.23 10.008 120.414 8.328 120.414 7.08V6.888C120.414 5.624 121.166 4.072 124.75 4.072C128.27 4.072 129.086 5.624 129.086 6.888V7.112ZM151.912 13H157.832L150.68 6.504L157.608 1.096H151.96L146.104 5.8V1.096H141.56V13H146.104V7.672L151.912 13ZM165.778 0.872C158.066 0.872 157.09 4.536 157.09 6.776V7.256C157.09 9.48 158.066 13.224 165.778 13.224H166.498C174.194 13.224 175.17 9.48 175.17 7.256V6.776C175.17 4.536 174.178 0.872 166.498 0.872H165.778ZM170.466 7.112C170.466 8.392 169.65 10.008 166.13 10.008C162.61 10.008 161.794 8.328 161.794 7.08V6.888C161.794 5.624 162.546 4.072 166.13 4.072C169.65 4.072 170.466 5.624 170.466 6.888V7.112ZM177.169 13H181.601V5.576L185.761 13H188.081L192.257 5.576V13H196.753V1.096H190.769L187.057 7.784L183.409 1.096H177.169V13ZM199.112 13H203.656V4.264H210.552V13H215.08V1.096H199.112V13ZM227.366 8.104H223.414L225.366 4.008L227.366 8.104ZM229.75 13H234.726L228.502 1.096H222.39L216.502 13H221.11L222.022 11.08H228.822L229.75 13ZM236.047 13H240.591V8.472H248.031V13H252.559V1.096H248.031V5.304H240.591V1.096H236.047V13ZM266.977 13H271.521V1.096H266.977L259.505 8.584V1.096H254.961V13H259.505L266.977 5.528V13ZM285.937 13H290.481V1.096H285.937L278.465 8.584V1.096H273.921V13H278.465L285.937 5.528V13Z" fill="#453C3C"/>
<path d="M-9.9965 13H-10.2965V13.3H-9.9965V13ZM-5.4525 13V13.3H-5.1525V13H-5.4525ZM-5.4525 4.344V4.044H-5.7525V4.344H-5.4525ZM-0.316501 4.344V4.644H-0.0165005V4.344H-0.316501ZM-0.316501 1.096H-0.0165005V0.796001H-0.316501V1.096ZM-15.1325 1.096V0.796001H-15.4325V1.096H-15.1325ZM-15.1325 4.344H-15.4325V4.644H-15.1325V4.344ZM-9.9965 4.344H-9.6965V4.044H-9.9965V4.344ZM-9.9965 13.3H-5.4525V12.7H-9.9965V13.3ZM-5.1525 13V4.344H-5.7525V13H-5.1525ZM-5.4525 4.644H-0.316501V4.044H-5.4525V4.644ZM-0.0165005 4.344V1.096H-0.616501V4.344H-0.0165005ZM-0.316501 0.796001H-15.1325V1.396H-0.316501V0.796001ZM-15.4325 1.096V4.344H-14.8325V1.096H-15.4325ZM-15.1325 4.644H-9.9965V4.044H-15.1325V4.644ZM-10.2965 4.344V13H-9.6965V4.344H-10.2965ZM9.68662 0.571999C5.7889 0.571999 3.52561 1.49754 2.23955 2.77081C0.951471 4.0461 0.698624 5.6158 0.698624 6.776H1.29862C1.29862 5.6962 1.53378 4.3139 2.66169 3.19719C3.79164 2.07846 5.87235 1.172 9.68662 1.172V0.571999ZM0.698624 6.776V7.256H1.29862V6.776H0.698624ZM0.698624 7.256C0.698624 8.40818 0.951435 9.99269 2.23797 11.2856C3.52359 12.5776 5.7872 13.524 9.68662 13.524V12.924C5.87405 12.924 3.79366 11.9984 2.66328 10.8624C1.53381 9.72731 1.29862 8.32782 1.29862 7.256H0.698624ZM9.68662 13.524H10.4066V12.924H9.68662V13.524ZM10.4066 13.524C14.2982 13.524 16.5579 12.5775 17.8415 11.2854C19.1258 9.99253 19.3786 8.40814 19.3786 7.256H18.7786C18.7786 8.32786 18.5434 9.72747 17.4158 10.8626C16.2874 11.9985 14.211 12.924 10.4066 12.924V13.524ZM19.3786 7.256V6.776H18.7786V7.256H19.3786ZM19.3786 6.776C19.3786 5.61509 19.1214 4.04576 17.8337 2.77081C16.5478 1.49771 14.2887 0.571999 10.4066 0.571999V1.172C14.2045 1.172 16.2814 2.07828 17.4116 3.19719C18.5398 4.31424 18.7786 5.69691 18.7786 6.776H19.3786ZM10.4066 0.571999H9.68662V1.172H10.4066V0.571999ZM14.0746 7.112C14.0746 7.68779 13.8929 8.32046 13.329 8.81431C12.7596 9.31298 11.7576 9.708 10.0386 9.708V10.308C11.8396 10.308 13.0057 9.89501 13.7243 9.26569C14.4484 8.63154 14.6746 7.81622 14.6746 7.112H14.0746ZM10.0386 9.708C8.32248 9.708 7.32078 9.29835 6.75062 8.78839C6.18404 8.28164 6.00262 7.63906 6.00262 7.08H5.40262C5.40262 7.76894 5.62921 8.59036 6.35063 9.23561C7.06847 9.87765 8.23477 10.308 10.0386 10.308V9.708ZM6.00262 7.08V6.888H5.40262V7.08H6.00262ZM6.00262 6.888C6.00262 6.31652 6.17047 5.70714 6.72204 5.23362C7.28194 4.75295 8.28331 4.372 10.0386 4.372V3.772C8.20993 3.772 7.0433 4.16705 6.33121 4.77837C5.61077 5.39686 5.40262 6.19547 5.40262 6.888H6.00262ZM10.0386 4.372C11.7603 4.372 12.7634 4.75224 13.3326 5.23483C13.8943 5.711 14.0746 6.32217 14.0746 6.888H14.6746C14.6746 6.18982 14.447 5.39299 13.7206 4.77717C13.0018 4.16776 11.837 3.772 10.0386 3.772V4.372ZM14.0746 6.888V7.112H14.6746V6.888H14.0746ZM21.1711 1.096V0.796001H20.8711V1.096H21.1711ZM21.1711 13H20.8711V13.3H21.1711V13ZM25.7151 13V13.3H26.0151V13H25.7151ZM25.7151 9.272V8.972H25.4151V9.272H25.7151ZM25.7151 4.072V3.772H25.4151V4.072H25.7151ZM25.7151 6.296H25.4151V6.596H25.7151V6.296ZM31.0911 9.572C33.3018 9.572 34.7954 9.10984 35.7396 8.32012C36.694 7.52188 37.0391 6.42999 37.0391 5.288H36.4391C36.4391 6.30602 36.1363 7.20612 35.3546 7.85988C34.5628 8.52216 33.2325 8.972 31.0911 8.972V9.572ZM37.0391 5.288V5.032H36.4391V5.288H37.0391ZM37.0391 5.032C37.0391 3.87747 36.7079 2.79462 35.7559 2.01044C34.8164 1.23661 33.322 0.796001 31.0911 0.796001V1.396C33.2603 1.396 34.5899 1.82739 35.3744 2.47356C36.1463 3.10938 36.4391 3.99453 36.4391 5.032H37.0391ZM31.0911 0.796001H21.1711V1.396H31.0911V0.796001ZM20.8711 1.096V13H21.4711V1.096H20.8711ZM21.1711 13.3H25.7151V12.7H21.1711V13.3ZM26.0151 13V9.272H25.4151V13H26.0151ZM25.7151 9.572H31.0911V8.972H25.7151V9.572ZM25.7151 4.372H30.5471V3.772H25.7151V4.372ZM30.5471 4.372C31.055 4.372 31.3525 4.46841 31.5183 4.59586C31.6682 4.71105 31.7511 4.88347 31.7511 5.16H32.3511C32.3511 4.74853 32.2181 4.37695 31.8839 4.12014C31.5658 3.87559 31.1112 3.772 30.5471 3.772V4.372ZM31.7511 5.16V5.208H32.3511V5.16H31.7511ZM31.7511 5.208C31.7511 5.45857 31.6667 5.63623 31.5057 5.76057C31.3326 5.89431 31.0321 5.996 30.5471 5.996V6.596C31.1022 6.596 31.5537 6.48169 31.8725 6.23543C32.2035 5.97977 32.3511 5.61343 32.3511 5.208H31.7511ZM30.5471 5.996H25.7151V6.596H30.5471V5.996ZM26.0151 6.296V4.072H25.4151V6.296H26.0151ZM38.7249 1.096V0.796001H38.4249V1.096H38.7249ZM38.7249 13H38.4249V13.3H38.7249V13ZM43.2209 13V13.3H43.5209V13H43.2209ZM43.2209 8.424V8.124H42.9209V8.424H43.2209ZM51.4609 8.424V8.724H51.7609V8.424H51.4609ZM51.4609 5.496H51.7609V5.196H51.4609V5.496ZM43.2209 5.496H42.9209V5.796H43.2209V5.496ZM43.2209 4.008V3.708H42.9209V4.008H43.2209ZM51.6369 4.008V4.308H51.9369V4.008H51.6369ZM51.6369 1.096H51.9369V0.796001H51.6369V1.096ZM38.4249 1.096V13H39.0249V1.096H38.4249ZM38.7249 13.3H43.2209V12.7H38.7249V13.3ZM43.5209 13V8.424H42.9209V13H43.5209ZM43.2209 8.724H51.4609V8.124H43.2209V8.724ZM51.7609 8.424V5.496H51.1609V8.424H51.7609ZM51.4609 5.196H43.2209V5.796H51.4609V5.196ZM43.5209 5.496V4.008H42.9209V5.496H43.5209ZM43.2209 4.308H51.6369V3.708H43.2209V4.308ZM51.9369 4.008V1.096H51.3369V4.008H51.9369ZM51.6369 0.796001H38.7249V1.396H51.6369V0.796001ZM62.1967 8.104V8.404H62.6771L62.4663 7.97237L62.1967 8.104ZM58.2447 8.104L57.9739 7.97494L57.7695 8.404H58.2447V8.104ZM60.1967 4.008L60.4663 3.87637L60.1935 3.31755L59.9259 3.87894L60.1967 4.008ZM64.5807 13L64.3106 13.1306L64.3925 13.3H64.5807V13ZM69.5567 13V13.3H70.0521L69.8226 12.861L69.5567 13ZM63.3327 1.096L63.5986 0.956997L63.5144 0.796001H63.3327V1.096ZM57.2207 1.096V0.796001H57.0344L56.9518 0.962994L57.2207 1.096ZM51.3327 13L51.0638 12.867L50.8497 13.3H51.3327V13ZM55.9407 13V13.3H56.1304L56.2117 13.1287L55.9407 13ZM56.8527 11.08V10.78H56.6631L56.5818 10.9513L56.8527 11.08ZM63.6527 11.08L63.9229 10.9494L63.841 10.78H63.6527V11.08ZM62.1967 7.804H58.2447V8.404H62.1967V7.804ZM58.5156 8.23306L60.4676 4.13706L59.9259 3.87894L57.9739 7.97494L58.5156 8.23306ZM59.9272 4.13963L61.9272 8.23563L62.4663 7.97237L60.4663 3.87637L59.9272 4.13963ZM64.5807 13.3H69.5567V12.7H64.5807V13.3ZM69.8226 12.861L63.5986 0.956997L63.0669 1.235L69.2909 13.139L69.8226 12.861ZM63.3327 0.796001H57.2207V1.396H63.3327V0.796001ZM56.9518 0.962994L51.0638 12.867L51.6016 13.133L57.4896 1.22901L56.9518 0.962994ZM51.3327 13.3H55.9407V12.7H51.3327V13.3ZM56.2117 13.1287L57.1237 11.2087L56.5818 10.9513L55.6698 12.8713L56.2117 13.1287ZM56.8527 11.38H63.6527V10.78H56.8527V11.38ZM63.3826 11.2106L64.3106 13.1306L64.8509 12.8694L63.9229 10.9494L63.3826 11.2106ZM86.8541 8.056H87.1541V7.756H86.8541V8.056ZM82.1501 8.056V7.756H81.9125L81.8581 7.98729L82.1501 8.056ZM82.1341 5.896L81.8468 5.9822L81.9109 6.196H82.1341V5.896ZM86.8541 5.896V6.196H87.1541V5.896H86.8541ZM78.5661 13.524C82.193 13.524 84.3465 12.6741 85.5962 11.5753C86.8491 10.4737 87.1541 9.15673 87.1541 8.312H86.5541C86.5541 9.01927 86.2992 10.1583 85.2 11.1247C84.0978 12.0939 82.1073 12.924 78.5661 12.924V13.524ZM87.1541 8.312V8.056H86.5541V8.312H87.1541ZM86.8541 7.756H82.1501V8.356H86.8541V7.756ZM81.8581 7.98729C81.831 8.10262 81.7462 8.514 81.2858 8.90544C80.8224 9.29943 79.9358 9.708 78.2301 9.708V10.308C80.0285 10.308 81.0699 9.87657 81.6744 9.36256C82.282 8.846 82.4053 8.28138 82.4422 8.12471L81.8581 7.98729ZM78.2301 9.708C76.681 9.708 75.7659 9.30204 75.2386 8.7923C74.7108 8.28209 74.5301 7.62796 74.5301 7.048H73.9301C73.9301 7.74804 74.1494 8.57391 74.8216 9.2237C75.4943 9.87396 76.5792 10.308 78.2301 10.308V9.708ZM74.5301 7.048V6.856H73.9301V7.048H74.5301ZM74.5301 6.856C74.5301 6.24387 74.6911 5.64276 75.1934 5.1885C75.702 4.72847 76.6118 4.372 78.2141 4.372V3.772C76.5364 3.772 75.4543 4.14354 74.7909 4.7435C74.1211 5.34924 73.9301 6.14013 73.9301 6.856H74.5301ZM78.2141 4.372C79.9017 4.372 80.7843 4.73943 81.2502 5.10099C81.709 5.45712 81.8029 5.83582 81.8468 5.9822L82.4215 5.8098C82.3694 5.63618 82.2312 5.10288 81.6181 4.627C81.0119 4.15657 79.9825 3.772 78.2141 3.772V4.372ZM82.1341 6.196H86.8541V5.596H82.1341V6.196ZM87.1541 5.896V5.688H86.5541V5.896H87.1541ZM87.1541 5.688C87.1541 4.85308 86.8661 3.55821 85.6186 2.47727C84.3761 1.4007 82.2225 0.571999 78.5661 0.571999V1.172C82.1417 1.172 84.1322 1.9833 85.2257 2.93073C86.3141 3.87379 86.5541 4.98692 86.5541 5.688H87.1541ZM78.5661 0.571999H77.9421V1.172H78.5661V0.571999ZM77.9421 0.571999C74.1861 0.571999 71.9901 1.49068 70.7366 2.76131C69.4826 4.03229 69.2261 5.60043 69.2261 6.776H69.8261C69.8261 5.67957 70.0656 4.29571 71.1637 3.18269C72.2621 2.06931 74.2741 1.172 77.9421 1.172V0.571999ZM69.2261 6.776V7.24H69.8261V6.776H69.2261ZM69.2261 7.24C69.2261 8.41268 69.5131 9.99767 70.7779 11.288C72.0438 12.5794 74.2384 13.524 77.9421 13.524V12.924C74.3339 12.924 72.3205 12.0046 71.2064 10.868C70.0912 9.73032 69.8261 8.32332 69.8261 7.24H69.2261ZM77.9421 13.524H78.5661V12.924H77.9421V13.524ZM88.9017 1.096V0.796001H88.6018V1.096H88.9017ZM88.9017 13H88.6018V13.3H88.9017V13ZM102.198 13V13.3H102.498V13H102.198ZM102.198 10.024H102.498V9.724H102.198V10.024ZM93.3818 10.024H93.0817V10.324H93.3818V10.024ZM93.3818 8.392V8.092H93.0817V8.392H93.3818ZM101.894 8.392V8.692H102.194V8.392H101.894ZM101.894 5.496H102.194V5.196H101.894V5.496ZM93.3818 5.496H93.0817V5.796H93.3818V5.496ZM93.3818 4.008V3.708H93.0817V4.008H93.3818ZM102.07 4.008V4.308H102.37V4.008H102.07ZM102.07 1.096H102.37V0.796001H102.07V1.096ZM88.6018 1.096V13H89.2018V1.096H88.6018ZM88.9017 13.3H102.198V12.7H88.9017V13.3ZM102.498 13V10.024H101.898V13H102.498ZM102.198 9.724H93.3818V10.324H102.198V9.724ZM93.6817 10.024V8.392H93.0817V10.024H93.6817ZM93.3818 8.692H101.894V8.092H93.3818V8.692ZM102.194 8.392V5.496H101.594V8.392H102.194ZM101.894 5.196H93.3818V5.796H101.894V5.196ZM93.6817 5.496V4.008H93.0817V5.496H93.6817ZM93.3818 4.308H102.07V3.708H93.3818V4.308ZM102.37 4.008V1.096H101.77V4.008H102.37ZM102.07 0.796001H88.9017V1.396H102.07V0.796001ZM124.398 0.571999C120.5 0.571999 118.237 1.49754 116.951 2.77081C115.663 4.0461 115.41 5.6158 115.41 6.776H116.01C116.01 5.6962 116.245 4.3139 117.373 3.19719C118.503 2.07846 120.584 1.172 124.398 1.172V0.571999ZM115.41 6.776V7.256H116.01V6.776H115.41ZM115.41 7.256C115.41 8.40818 115.663 9.99269 116.949 11.2856C118.235 12.5776 120.498 13.524 124.398 13.524V12.924C120.585 12.924 118.505 11.9984 117.375 10.8624C116.245 9.72731 116.01 8.32782 116.01 7.256H115.41ZM124.398 13.524H125.118V12.924H124.398V13.524ZM125.118 13.524C129.009 13.524 131.269 12.5775 132.553 11.2854C133.837 9.99253 134.09 8.40814 134.09 7.256H133.49C133.49 8.32786 133.255 9.72747 132.127 10.8626C130.999 11.9985 128.922 12.924 125.118 12.924V13.524ZM134.09 7.256V6.776H133.49V7.256H134.09ZM134.09 6.776C134.09 5.61509 133.833 4.04576 132.545 2.77081C131.259 1.49771 129 0.571999 125.118 0.571999V1.172C128.916 1.172 130.993 2.07828 132.123 3.19719C133.251 4.31424 133.49 5.69691 133.49 6.776H134.09ZM125.118 0.571999H124.398V1.172H125.118V0.571999ZM128.786 7.112C128.786 7.68779 128.604 8.32046 128.04 8.81431C127.471 9.31298 126.469 9.708 124.75 9.708V10.308C126.551 10.308 127.717 9.89501 128.436 9.26569C129.16 8.63154 129.386 7.81622 129.386 7.112H128.786ZM124.75 9.708C123.034 9.708 122.032 9.29835 121.462 8.78839C120.895 8.28164 120.714 7.63906 120.714 7.08H120.114C120.114 7.76894 120.34 8.59036 121.062 9.23561C121.78 9.87765 122.946 10.308 124.75 10.308V9.708ZM120.714 7.08V6.888H120.114V7.08H120.714ZM120.714 6.888C120.714 6.31652 120.882 5.70714 121.433 5.23362C121.993 4.75295 122.995 4.372 124.75 4.372V3.772C122.921 3.772 121.755 4.16705 121.042 4.77837C120.322 5.39686 120.114 6.19547 120.114 6.888H120.714ZM124.75 4.372C126.472 4.372 127.475 4.75224 128.044 5.23483C128.606 5.711 128.786 6.32217 128.786 6.888H129.386C129.386 6.18982 129.158 5.39299 128.432 4.77717C127.713 4.16776 126.548 3.772 124.75 3.772V4.372ZM128.786 6.888V7.112H129.386V6.888H128.786ZM151.912 13L151.709 13.2211L151.795 13.3H151.912V13ZM157.832 13V13.3H158.608L158.034 12.7779L157.832 13ZM150.68 6.504L150.495 6.26752L150.215 6.48664L150.478 6.72607L150.68 6.504ZM157.608 1.096L157.793 1.33248L158.48 0.796001H157.608V1.096ZM151.96 1.096V0.796001H151.854L151.772 0.862114L151.96 1.096ZM146.104 5.8H145.804V6.42579L146.292 6.03389L146.104 5.8ZM146.104 1.096H146.404V0.796001H146.104V1.096ZM141.56 1.096V0.796001H141.26V1.096H141.56ZM141.56 13H141.26V13.3H141.56V13ZM146.104 13V13.3H146.404V13H146.104ZM146.104 7.672L146.307 7.45093L145.804 6.98968V7.672H146.104ZM151.912 13.3H157.832V12.7H151.912V13.3ZM158.034 12.7779L150.882 6.28193L150.478 6.72607L157.63 13.2221L158.034 12.7779ZM150.865 6.74048L157.793 1.33248L157.423 0.859516L150.495 6.26752L150.865 6.74048ZM157.608 0.796001H151.96V1.396H157.608V0.796001ZM151.772 0.862114L145.916 5.56611L146.292 6.03389L152.148 1.32989L151.772 0.862114ZM146.404 5.8V1.096H145.804V5.8H146.404ZM146.104 0.796001H141.56V1.396H146.104V0.796001ZM141.26 1.096V13H141.86V1.096H141.26ZM141.56 13.3H146.104V12.7H141.56V13.3ZM146.404 13V7.672H145.804V13H146.404ZM145.901 7.89307L151.709 13.2211L152.115 12.7789L146.307 7.45093L145.901 7.89307ZM165.778 0.571999C161.88 0.571999 159.617 1.49754 158.331 2.77081C157.043 4.0461 156.79 5.6158 156.79 6.776H157.39C157.39 5.6962 157.625 4.3139 158.753 3.19719C159.883 2.07846 161.964 1.172 165.778 1.172V0.571999ZM156.79 6.776V7.256H157.39V6.776H156.79ZM156.79 7.256C156.79 8.40818 157.043 9.99269 158.329 11.2856C159.615 12.5776 161.878 13.524 165.778 13.524V12.924C161.965 12.924 159.885 11.9984 158.755 10.8624C157.625 9.72731 157.39 8.32782 157.39 7.256H156.79ZM165.778 13.524H166.498V12.924H165.778V13.524ZM166.498 13.524C170.389 13.524 172.649 12.5775 173.933 11.2854C175.217 9.99253 175.47 8.40814 175.47 7.256H174.87C174.87 8.32786 174.635 9.72747 173.507 10.8626C172.379 11.9985 170.302 12.924 166.498 12.924V13.524ZM175.47 7.256V6.776H174.87V7.256H175.47ZM175.47 6.776C175.47 5.61509 175.213 4.04576 173.925 2.77081C172.639 1.49771 170.38 0.571999 166.498 0.571999V1.172C170.296 1.172 172.373 2.07828 173.503 3.19719C174.631 4.31424 174.87 5.69691 174.87 6.776H175.47ZM166.498 0.571999H165.778V1.172H166.498V0.571999ZM170.166 7.112C170.166 7.68779 169.984 8.32046 169.42 8.81431C168.851 9.31298 167.849 9.708 166.13 9.708V10.308C167.931 10.308 169.097 9.89501 169.816 9.26569C170.54 8.63154 170.766 7.81622 170.766 7.112H170.166ZM166.13 9.708C164.414 9.708 163.412 9.29835 162.842 8.78839C162.275 8.28164 162.094 7.63906 162.094 7.08H161.494C161.494 7.76894 161.72 8.59036 162.442 9.23561C163.16 9.87765 164.326 10.308 166.13 10.308V9.708ZM162.094 7.08V6.888H161.494V7.08H162.094ZM162.094 6.888C162.094 6.31652 162.262 5.70714 162.813 5.23362C163.373 4.75295 164.375 4.372 166.13 4.372V3.772C164.301 3.772 163.135 4.16705 162.422 4.77837C161.702 5.39686 161.494 6.19547 161.494 6.888H162.094ZM166.13 4.372C167.852 4.372 168.855 4.75224 169.424 5.23483C169.986 5.711 170.166 6.32217 170.166 6.888H170.766C170.766 6.18982 170.538 5.39299 169.812 4.77717C169.093 4.16776 167.928 3.772 166.13 3.772V4.372ZM170.166 6.888V7.112H170.766V6.888H170.166ZM177.169 13H176.869V13.3H177.169V13ZM181.601 13V13.3H181.901V13H181.601ZM181.601 5.576L181.862 5.42935L181.301 4.42691V5.576H181.601ZM185.761 13L185.499 13.1466L185.585 13.3H185.761V13ZM188.081 13V13.3H188.256L188.342 13.1471L188.081 13ZM192.257 5.576H192.557V4.43075L191.995 5.42892L192.257 5.576ZM192.257 13H191.957V13.3H192.257V13ZM196.753 13V13.3H197.053V13H196.753ZM196.753 1.096H197.053V0.796001H196.753V1.096ZM190.769 1.096V0.796001H190.592L190.506 0.950413L190.769 1.096ZM187.057 7.784L186.793 7.92765L187.054 8.40631L187.319 7.92958L187.057 7.784ZM183.409 1.096L183.672 0.952343L183.587 0.796001H183.409V1.096ZM177.169 1.096V0.796001H176.869V1.096H177.169ZM177.169 13.3H181.601V12.7H177.169V13.3ZM181.901 13V5.576H181.301V13H181.901ZM181.339 5.72265L185.499 13.1466L186.022 12.8534L181.862 5.42935L181.339 5.72265ZM185.761 13.3H188.081V12.7H185.761V13.3ZM188.342 13.1471L192.518 5.72308L191.995 5.42892L187.819 12.8529L188.342 13.1471ZM191.957 5.576V13H192.557V5.576H191.957ZM192.257 13.3H196.753V12.7H192.257V13.3ZM197.053 13V1.096H196.453V13H197.053ZM196.753 0.796001H190.769V1.396H196.753V0.796001ZM190.506 0.950413L186.794 7.63841L187.319 7.92958L191.031 1.24158L190.506 0.950413ZM187.32 7.64034L183.672 0.952343L183.145 1.23965L186.793 7.92765L187.32 7.64034ZM183.409 0.796001H177.169V1.396H183.409V0.796001ZM176.869 1.096V13H177.469V1.096H176.869ZM199.112 13H198.812V13.3H199.112V13ZM203.656 13V13.3H203.956V13H203.656ZM203.656 4.264V3.964H203.356V4.264H203.656ZM210.552 4.264H210.852V3.964H210.552V4.264ZM210.552 13H210.252V13.3H210.552V13ZM215.08 13V13.3H215.38V13H215.08ZM215.08 1.096H215.38V0.796001H215.08V1.096ZM199.112 1.096V0.796001H198.812V1.096H199.112ZM199.112 13.3H203.656V12.7H199.112V13.3ZM203.956 13V4.264H203.356V13H203.956ZM203.656 4.564H210.552V3.964H203.656V4.564ZM210.252 4.264V13H210.852V4.264H210.252ZM210.552 13.3H215.08V12.7H210.552V13.3ZM215.38 13V1.096H214.78V13H215.38ZM215.08 0.796001H199.112V1.396H215.08V0.796001ZM198.812 1.096V13H199.412V1.096H198.812ZM227.366 8.104V8.404H227.846L227.636 7.97237L227.366 8.104ZM223.414 8.104L223.143 7.97494L222.939 8.404H223.414V8.104ZM225.366 4.008L225.636 3.87637L225.363 3.31755L225.095 3.87894L225.366 4.008ZM229.75 13L229.48 13.1306L229.562 13.3H229.75V13ZM234.726 13V13.3H235.222L234.992 12.861L234.726 13ZM228.502 1.096L228.768 0.956997L228.684 0.796001H228.502V1.096ZM222.39 1.096V0.796001H222.204L222.121 0.962994L222.39 1.096ZM216.502 13L216.233 12.867L216.019 13.3H216.502V13ZM221.11 13V13.3H221.3L221.381 13.1287L221.11 13ZM222.022 11.08V10.78H221.832L221.751 10.9513L222.022 11.08ZM228.822 11.08L229.092 10.9494L229.01 10.78H228.822V11.08ZM227.366 7.804H223.414V8.404H227.366V7.804ZM223.685 8.23306L225.637 4.13706L225.095 3.87894L223.143 7.97494L223.685 8.23306ZM225.097 4.13963L227.097 8.23563L227.636 7.97237L225.636 3.87637L225.097 4.13963ZM229.75 13.3H234.726V12.7H229.75V13.3ZM234.992 12.861L228.768 0.956997L228.236 1.235L234.46 13.139L234.992 12.861ZM228.502 0.796001H222.39V1.396H228.502V0.796001ZM222.121 0.962994L216.233 12.867L216.771 13.133L222.659 1.22901L222.121 0.962994ZM216.502 13.3H221.11V12.7H216.502V13.3ZM221.381 13.1287L222.293 11.2087L221.751 10.9513L220.839 12.8713L221.381 13.1287ZM222.022 11.38H228.822V10.78H222.022V11.38ZM228.552 11.2106L229.48 13.1306L230.02 12.8694L229.092 10.9494L228.552 11.2106ZM236.048 13H235.747V13.3H236.048V13ZM240.591 13V13.3H240.892V13H240.591ZM240.591 8.472V8.172H240.292V8.472H240.591ZM248.031 8.472H248.332V8.172H248.031V8.472ZM248.031 13H247.732V13.3H248.031V13ZM252.56 13V13.3H252.859V13H252.56ZM252.56 1.096H252.859V0.796001H252.56V1.096ZM248.031 1.096V0.796001H247.732V1.096H248.031ZM248.031 5.304V5.604H248.332V5.304H248.031ZM240.591 5.304H240.292V5.604H240.591V5.304ZM240.591 1.096H240.892V0.796001H240.591V1.096ZM236.048 1.096V0.796001H235.747V1.096H236.048ZM236.048 13.3H240.591V12.7H236.048V13.3ZM240.892 13V8.472H240.292V13H240.892ZM240.591 8.772H248.031V8.172H240.591V8.772ZM247.732 8.472V13H248.332V8.472H247.732ZM248.031 13.3H252.56V12.7H248.031V13.3ZM252.859 13V1.096H252.259V13H252.859ZM252.56 0.796001H248.031V1.396H252.56V0.796001ZM247.732 1.096V5.304H248.332V1.096H247.732ZM248.031 5.004H240.591V5.604H248.031V5.004ZM240.892 5.304V1.096H240.292V5.304H240.892ZM240.591 0.796001H236.048V1.396H240.591V0.796001ZM235.747 1.096V13H236.348V1.096H235.747ZM266.977 13H266.677V13.3H266.977V13ZM271.521 13V13.3H271.821V13H271.521ZM271.521 1.096H271.821V0.796001H271.521V1.096ZM266.977 1.096V0.796001H266.852L266.764 0.884094L266.977 1.096ZM259.505 8.584H259.205V9.30936L259.717 8.79591L259.505 8.584ZM259.505 1.096H259.805V0.796001H259.505V1.096ZM254.961 1.096V0.796001H254.661V1.096H254.961ZM254.961 13H254.661V13.3H254.961V13ZM259.505 13V13.3H259.629L259.717 13.2121L259.505 13ZM266.977 5.528H267.277V4.80374L266.764 5.31587L266.977 5.528ZM266.977 13.3H271.521V12.7H266.977V13.3ZM271.821 13V1.096H271.221V13H271.821ZM271.521 0.796001H266.977V1.396H271.521V0.796001ZM266.764 0.884094L259.292 8.37209L259.717 8.79591L267.189 1.3079L266.764 0.884094ZM259.805 8.584V1.096H259.205V8.584H259.805ZM259.505 0.796001H254.961V1.396H259.505V0.796001ZM254.661 1.096V13H255.261V1.096H254.661ZM254.961 13.3H259.505V12.7H254.961V13.3ZM259.717 13.2121L267.189 5.74013L266.764 5.31587L259.293 12.7879L259.717 13.2121ZM266.677 5.528V13H267.277V5.528H266.677ZM285.937 13H285.637V13.3H285.937V13ZM290.481 13V13.3H290.781V13H290.481ZM290.481 1.096H290.781V0.796001H290.481V1.096ZM285.937 1.096V0.796001H285.812L285.724 0.884094L285.937 1.096ZM278.465 8.584H278.165V9.30936L278.677 8.79591L278.465 8.584ZM278.465 1.096H278.765V0.796001H278.465V1.096ZM273.921 1.096V0.796001H273.621V1.096H273.921ZM273.921 13H273.621V13.3H273.921V13ZM278.465 13V13.3H278.589L278.677 13.2121L278.465 13ZM285.937 5.528H286.237V4.80374L285.724 5.31587L285.937 5.528ZM285.937 13.3H290.481V12.7H285.937V13.3ZM290.781 13V1.096H290.181V13H290.781ZM290.481 0.796001H285.937V1.396H290.481V0.796001ZM285.724 0.884094L278.252 8.37209L278.677 8.79591L286.149 1.3079L285.724 0.884094ZM278.765 8.584V1.096H278.165V8.584H278.765ZM278.465 0.796001H273.921V1.396H278.465V0.796001ZM273.621 1.096V13H274.221V1.096H273.621ZM273.921 13.3H278.465V12.7H273.921V13.3ZM278.677 13.2121L286.149 5.74013L285.724 5.31587L278.253 12.7879L278.677 13.2121ZM285.637 5.528V13H286.237V5.528H285.637ZM309.335 13H309.035V13.3H309.335V13ZM313.879 13V13.3H314.179V13H313.879ZM313.879 4.344V4.044H313.579V4.344H313.879ZM319.015 4.344V4.644H319.315V4.344H319.015ZM319.015 1.096H319.315V0.796001H319.015V1.096ZM304.199 1.096V0.796001H303.899V1.096H304.199ZM304.199 4.344H303.899V4.644H304.199V4.344ZM309.335 4.344H309.635V4.044H309.335V4.344ZM309.335 13.3H313.879V12.7H309.335V13.3ZM314.179 13V4.344H313.579V13H314.179ZM313.879 4.644H319.015V4.044H313.879V4.644ZM319.315 4.344V1.096H318.715V4.344H319.315ZM319.015 0.796001H304.199V1.396H319.015V0.796001ZM303.899 1.096V4.344H304.499V1.096H303.899ZM304.199 4.644H309.335V4.044H304.199V4.644ZM309.035 4.344V13H309.635V4.344H309.035ZM329.018 0.571999C325.121 0.571999 322.857 1.49754 321.571 2.77081C320.283 4.0461 320.03 5.6158 320.03 6.776H320.63C320.63 5.6962 320.866 4.3139 321.994 3.19719C323.124 2.07846 325.204 1.172 329.018 1.172V0.571999ZM320.03 6.776V7.256H320.63V6.776H320.03ZM320.03 7.256C320.03 8.40818 320.283 9.99269 321.57 11.2856C322.855 12.5776 325.119 13.524 329.018 13.524V12.924C325.206 12.924 323.126 11.9984 321.995 10.8624C320.866 9.72731 320.63 8.32782 320.63 7.256H320.03ZM329.018 13.524H329.738V12.924H329.018V13.524ZM329.738 13.524C333.63 13.524 335.89 12.5775 337.173 11.2854C338.458 9.99253 338.71 8.40814 338.71 7.256H338.111C338.111 8.32786 337.875 9.72747 336.748 10.8626C335.619 11.9985 333.543 12.924 329.738 12.924V13.524ZM338.71 7.256V6.776H338.111V7.256H338.71ZM338.71 6.776C338.71 5.61509 338.453 4.04576 337.166 2.77081C335.88 1.49771 333.621 0.571999 329.738 0.571999V1.172C333.536 1.172 335.613 2.07828 336.743 3.19719C337.872 4.31424 338.111 5.69691 338.111 6.776H338.71ZM329.738 0.571999H329.018V1.172H329.738V0.571999ZM333.406 7.112C333.406 7.68779 333.225 8.32046 332.661 8.81431C332.091 9.31298 331.09 9.708 329.37 9.708V10.308C331.172 10.308 332.338 9.89501 333.056 9.26569C333.78 8.63154 334.007 7.81622 334.007 7.112H333.406ZM329.37 9.708C327.654 9.708 326.653 9.29835 326.082 8.78839C325.516 8.28164 325.335 7.63906 325.335 7.08H324.734C324.734 7.76894 324.961 8.59036 325.682 9.23561C326.4 9.87765 327.567 10.308 329.37 10.308V9.708ZM325.335 7.08V6.888H324.734V7.08H325.335ZM325.335 6.888C325.335 6.31652 325.502 5.70714 326.054 5.23362C326.614 4.75295 327.615 4.372 329.37 4.372V3.772C327.542 3.772 326.375 4.16705 325.663 4.77837C324.943 5.39686 324.734 6.19547 324.734 6.888H325.335ZM329.37 4.372C331.092 4.372 332.095 4.75224 332.664 5.23483C333.226 5.711 333.406 6.32217 333.406 6.888H334.007C334.007 6.18982 333.779 5.39299 333.052 4.77717C332.334 4.16776 331.169 3.772 329.37 3.772V4.372ZM333.406 6.888V7.112H334.007V6.888H333.406ZM340.503 1.096V0.796001H340.203V1.096H340.503ZM340.503 13H340.203V13.3H340.503V13ZM345.047 13V13.3H345.347V13H345.047ZM345.047 9.272V8.972H344.747V9.272H345.047ZM345.047 4.072V3.772H344.747V4.072H345.047ZM345.047 6.296H344.747V6.596H345.047V6.296ZM350.423 9.572C352.634 9.572 354.127 9.10984 355.071 8.32012C356.026 7.52188 356.371 6.42999 356.371 5.288H355.771C355.771 6.30602 355.468 7.20612 354.687 7.85988C353.895 8.52216 352.564 8.972 350.423 8.972V9.572ZM356.371 5.288V5.032H355.771V5.288H356.371ZM356.371 5.032C356.371 3.87747 356.04 2.79462 355.088 2.01044C354.148 1.23661 352.654 0.796001 350.423 0.796001V1.396C352.592 1.396 353.922 1.82739 354.706 2.47356C355.478 3.10938 355.771 3.99453 355.771 5.032H356.371ZM350.423 0.796001H340.503V1.396H350.423V0.796001ZM340.203 1.096V13H340.803V1.096H340.203ZM340.503 13.3H345.047V12.7H340.503V13.3ZM345.347 13V9.272H344.747V13H345.347ZM345.047 9.572H350.423V8.972H345.047V9.572ZM345.047 4.372H349.879V3.772H345.047V4.372ZM349.879 4.372C350.387 4.372 350.684 4.46841 350.85 4.59586C351 4.71105 351.083 4.88347 351.083 5.16H351.683C351.683 4.74853 351.55 4.37695 351.216 4.12014C350.898 3.87559 350.443 3.772 349.879 3.772V4.372ZM351.083 5.16V5.208H351.683V5.16H351.083ZM351.083 5.208C351.083 5.45857 350.999 5.63623 350.838 5.76057C350.664 5.89431 350.364 5.996 349.879 5.996V6.596C350.434 6.596 350.886 6.48169 351.204 6.23543C351.535 5.97977 351.683 5.61343 351.683 5.208H351.083ZM349.879 5.996H345.047V6.596H349.879V5.996ZM345.347 6.296V4.072H344.747V6.296H345.347ZM358.057 1.096V0.796001H357.757V1.096H358.057ZM358.057 13H357.757V13.3H358.057V13ZM362.553 13V13.3H362.853V13H362.553ZM362.553 8.424V8.124H362.253V8.424H362.553ZM370.793 8.424V8.724H371.093V8.424H370.793ZM370.793 5.496H371.093V5.196H370.793V5.496ZM362.553 5.496H362.253V5.796H362.553V5.496ZM362.553 4.008V3.708H362.253V4.008H362.553ZM370.969 4.008V4.308H371.269V4.008H370.969ZM370.969 1.096H371.269V0.796001H370.969V1.096ZM357.757 1.096V13H358.357V1.096H357.757ZM358.057 13.3H362.553V12.7H358.057V13.3ZM362.853 13V8.424H362.253V13H362.853ZM362.553 8.724H370.793V8.124H362.553V8.724ZM371.093 8.424V5.496H370.493V8.424H371.093ZM370.793 5.196H362.553V5.796H370.793V5.196ZM362.853 5.496V4.008H362.253V5.496H362.853ZM362.553 4.308H370.969V3.708H362.553V4.308ZM371.269 4.008V1.096H370.669V4.008H371.269ZM370.969 0.796001H358.057V1.396H370.969V0.796001ZM381.529 8.104V8.404H382.009L381.798 7.97237L381.529 8.104ZM377.577 8.104L377.306 7.97494L377.101 8.404H377.577V8.104ZM379.529 4.008L379.798 3.87637L379.525 3.31755L379.258 3.87894L379.529 4.008ZM383.913 13L383.643 13.1306L383.724 13.3H383.913V13ZM388.889 13V13.3H389.384L389.154 12.861L388.889 13ZM382.665 1.096L382.93 0.956997L382.846 0.796001H382.665V1.096ZM376.553 1.096V0.796001H376.366L376.284 0.962994L376.553 1.096ZM370.665 13L370.396 12.867L370.182 13.3H370.665V13ZM375.273 13V13.3H375.462L375.544 13.1287L375.273 13ZM376.185 11.08V10.78H375.995L375.914 10.9513L376.185 11.08ZM382.985 11.08L383.255 10.9494L383.173 10.78H382.985V11.08ZM381.529 7.804H377.577V8.404H381.529V7.804ZM377.847 8.23306L379.799 4.13706L379.258 3.87894L377.306 7.97494L377.847 8.23306ZM379.259 4.13963L381.259 8.23563L381.798 7.97237L379.798 3.87637L379.259 4.13963ZM383.913 13.3H388.889V12.7H383.913V13.3ZM389.154 12.861L382.93 0.956997L382.399 1.235L388.623 13.139L389.154 12.861ZM382.665 0.796001H376.553V1.396H382.665V0.796001ZM376.284 0.962994L370.396 12.867L370.934 13.133L376.822 1.22901L376.284 0.962994ZM370.665 13.3H375.273V12.7H370.665V13.3ZM375.544 13.1287L376.456 11.2087L375.914 10.9513L375.002 12.8713L375.544 13.1287ZM376.185 11.38H382.985V10.78H376.185V11.38ZM382.715 11.2106L383.643 13.1306L384.183 12.8694L383.255 10.9494L382.715 11.2106ZM406.186 8.056H406.486V7.756H406.186V8.056ZM401.482 8.056V7.756H401.244L401.19 7.98729L401.482 8.056ZM401.466 5.896L401.179 5.9822L401.243 6.196H401.466V5.896ZM406.186 5.896V6.196H406.486V5.896H406.186ZM397.898 13.524C401.525 13.524 403.678 12.6741 404.928 11.5753C406.181 10.4737 406.486 9.15673 406.486 8.312H405.886C405.886 9.01927 405.631 10.1583 404.532 11.1247C403.43 12.0939 401.439 12.924 397.898 12.924V13.524ZM406.486 8.312V8.056H405.886V8.312H406.486ZM406.186 7.756H401.482V8.356H406.186V7.756ZM401.19 7.98729C401.163 8.10262 401.078 8.514 400.618 8.90544C400.154 9.29943 399.268 9.708 397.562 9.708V10.308C399.36 10.308 400.402 9.87657 401.006 9.36256C401.614 8.846 401.737 8.28138 401.774 8.12471L401.19 7.98729ZM397.562 9.708C396.013 9.708 395.098 9.30204 394.57 8.7923C394.043 8.28209 393.862 7.62796 393.862 7.048H393.262C393.262 7.74804 393.481 8.57391 394.153 9.2237C394.826 9.87396 395.911 10.308 397.562 10.308V9.708ZM393.862 7.048V6.856H393.262V7.048H393.862ZM393.862 6.856C393.862 6.24387 394.023 5.64276 394.525 5.1885C395.034 4.72847 395.944 4.372 397.546 4.372V3.772C395.868 3.772 394.786 4.14354 394.123 4.7435C393.453 5.34924 393.262 6.14013 393.262 6.856H393.862ZM397.546 4.372C399.234 4.372 400.116 4.73943 400.582 5.10099C401.041 5.45712 401.135 5.83582 401.179 5.9822L401.753 5.8098C401.701 5.63618 401.563 5.10288 400.95 4.627C400.344 4.15657 399.314 3.772 397.546 3.772V4.372ZM401.466 6.196H406.186V5.596H401.466V6.196ZM406.486 5.896V5.688H405.886V5.896H406.486ZM406.486 5.688C406.486 4.85308 406.198 3.55821 404.95 2.47727C403.708 1.4007 401.554 0.571999 397.898 0.571999V1.172C401.474 1.172 403.464 1.9833 404.558 2.93073C405.646 3.87379 405.886 4.98692 405.886 5.688H406.486ZM397.898 0.571999H397.274V1.172H397.898V0.571999ZM397.274 0.571999C393.518 0.571999 391.322 1.49068 390.068 2.76131C388.815 4.03229 388.558 5.60043 388.558 6.776H389.158C389.158 5.67957 389.397 4.29571 390.496 3.18269C391.594 2.06931 393.606 1.172 397.274 1.172V0.571999ZM388.558 6.776V7.24H389.158V6.776H388.558ZM388.558 7.24C388.558 8.41268 388.845 9.99767 390.11 11.288C391.376 12.5794 393.57 13.524 397.274 13.524V12.924C393.666 12.924 391.652 12.0046 390.538 10.868C389.423 9.73032 389.158 8.32332 389.158 7.24H388.558ZM397.274 13.524H397.898V12.924H397.274V13.524ZM408.234 1.096V0.796001H407.934V1.096H408.234ZM408.234 13H407.934V13.3H408.234V13ZM421.53 13V13.3H421.83V13H421.53ZM421.53 10.024H421.83V9.724H421.53V10.024ZM412.714 10.024H412.414V10.324H412.714V10.024ZM412.714 8.392V8.092H412.414V8.392H412.714ZM421.226 8.392V8.692H421.526V8.392H421.226ZM421.226 5.496H421.526V5.196H421.226V5.496ZM412.714 5.496H412.414V5.796H412.714V5.496ZM412.714 4.008V3.708H412.414V4.008H412.714ZM421.402 4.008V4.308H421.702V4.008H421.402ZM421.402 1.096H421.702V0.796001H421.402V1.096ZM407.934 1.096V13H408.534V1.096H407.934ZM408.234 13.3H421.53V12.7H408.234V13.3ZM421.83 13V10.024H421.23V13H421.83ZM421.53 9.724H412.714V10.324H421.53V9.724ZM413.014 10.024V8.392H412.414V10.024H413.014ZM412.714 8.692H421.226V8.092H412.714V8.692ZM421.526 8.392V5.496H420.926V8.392H421.526ZM421.226 5.196H412.714V5.796H421.226V5.196ZM413.014 5.496V4.008H412.414V5.496H413.014ZM412.714 4.308H421.402V3.708H412.714V4.308ZM421.702 4.008V1.096H421.102V4.008H421.702ZM421.402 0.796001H408.234V1.396H421.402V0.796001ZM443.73 0.571999C439.832 0.571999 437.569 1.49754 436.283 2.77081C434.995 4.0461 434.742 5.6158 434.742 6.776H435.342C435.342 5.6962 435.577 4.3139 436.705 3.19719C437.835 2.07846 439.915 1.172 443.73 1.172V0.571999ZM434.742 6.776V7.256H435.342V6.776H434.742ZM434.742 7.256C434.742 8.40818 434.995 9.99269 436.281 11.2856C437.567 12.5776 439.83 13.524 443.73 13.524V12.924C439.917 12.924 437.837 11.9984 436.706 10.8624C435.577 9.72731 435.342 8.32782 435.342 7.256H434.742ZM443.73 13.524H444.45V12.924H443.73V13.524ZM444.45 13.524C448.341 13.524 450.601 12.5775 451.885 11.2854C453.169 9.99253 453.422 8.40814 453.422 7.256H452.822C452.822 8.32786 452.587 9.72747 451.459 10.8626C450.331 11.9985 448.254 12.924 444.45 12.924V13.524ZM453.422 7.256V6.776H452.822V7.256H453.422ZM453.422 6.776C453.422 5.61509 453.165 4.04576 451.877 2.77081C450.591 1.49771 448.332 0.571999 444.45 0.571999V1.172C448.248 1.172 450.325 2.07828 451.455 3.19719C452.583 4.31424 452.822 5.69691 452.822 6.776H453.422ZM444.45 0.571999H443.73V1.172H444.45V0.571999ZM448.118 7.112C448.118 7.68779 447.936 8.32046 447.372 8.81431C446.803 9.31298 445.801 9.708 444.082 9.708V10.308C445.883 10.308 447.049 9.89501 447.767 9.26569C448.491 8.63154 448.718 7.81622 448.718 7.112H448.118ZM444.082 9.708C442.366 9.708 441.364 9.29835 440.794 8.78839C440.227 8.28164 440.046 7.63906 440.046 7.08H439.446C439.446 7.76894 439.672 8.59036 440.394 9.23561C441.112 9.87765 442.278 10.308 444.082 10.308V9.708ZM440.046 7.08V6.888H439.446V7.08H440.046ZM440.046 6.888C440.046 6.31652 440.214 5.70714 440.765 5.23362C441.325 4.75295 442.326 4.372 444.082 4.372V3.772C442.253 3.772 441.086 4.16705 440.374 4.77837C439.654 5.39686 439.446 6.19547 439.446 6.888H440.046ZM444.082 4.372C445.803 4.372 446.807 4.75224 447.376 5.23483C447.937 5.711 448.118 6.32217 448.118 6.888H448.718C448.718 6.18982 448.49 5.39299 447.764 4.77717C447.045 4.16776 445.88 3.772 444.082 3.772V4.372ZM448.118 6.888V7.112H448.718V6.888H448.118ZM471.244 13L471.041 13.2211L471.127 13.3H471.244V13ZM477.164 13V13.3H477.94L477.366 12.7779L477.164 13ZM470.012 6.504L469.827 6.26752L469.547 6.48664L469.81 6.72607L470.012 6.504ZM476.94 1.096L477.124 1.33248L477.812 0.796001H476.94V1.096ZM471.292 1.096V0.796001H471.186L471.104 0.862114L471.292 1.096ZM465.436 5.8H465.136V6.42579L465.624 6.03389L465.436 5.8ZM465.436 1.096H465.736V0.796001H465.436V1.096ZM460.892 1.096V0.796001H460.592V1.096H460.892ZM460.892 13H460.592V13.3H460.892V13ZM465.436 13V13.3H465.736V13H465.436ZM465.436 7.672L465.639 7.45093L465.136 6.98968V7.672H465.436ZM471.244 13.3H477.164V12.7H471.244V13.3ZM477.366 12.7779L470.214 6.28193L469.81 6.72607L476.962 13.2221L477.366 12.7779ZM470.196 6.74048L477.124 1.33248L476.755 0.859516L469.827 6.26752L470.196 6.74048ZM476.94 0.796001H471.292V1.396H476.94V0.796001ZM471.104 0.862114L465.248 5.56611L465.624 6.03389L471.48 1.32989L471.104 0.862114ZM465.736 5.8V1.096H465.136V5.8H465.736ZM465.436 0.796001H460.892V1.396H465.436V0.796001ZM460.592 1.096V13H461.192V1.096H460.592ZM460.892 13.3H465.436V12.7H460.892V13.3ZM465.736 13V7.672H465.136V13H465.736ZM465.233 7.89307L471.041 13.2211L471.447 12.7789L465.639 7.45093L465.233 7.89307ZM485.11 0.571999C481.212 0.571999 478.949 1.49754 477.663 2.77081C476.375 4.0461 476.122 5.6158 476.122 6.776H476.722C476.722 5.6962 476.957 4.3139 478.085 3.19719C479.215 2.07846 481.295 1.172 485.11 1.172V0.571999ZM476.122 6.776V7.256H476.722V6.776H476.122ZM476.122 7.256C476.122 8.40818 476.375 9.99269 477.661 11.2856C478.947 12.5776 481.21 13.524 485.11 13.524V12.924C481.297 12.924 479.217 11.9984 478.086 10.8624C476.957 9.72731 476.722 8.32782 476.722 7.256H476.122ZM485.11 13.524H485.83V12.924H485.11V13.524ZM485.83 13.524C489.721 13.524 491.981 12.5775 493.265 11.2854C494.549 9.99253 494.802 8.40814 494.802 7.256H494.202C494.202 8.32786 493.967 9.72747 492.839 10.8626C491.711 11.9985 489.634 12.924 485.83 12.924V13.524ZM494.802 7.256V6.776H494.202V7.256H494.802ZM494.802 6.776C494.802 5.61509 494.545 4.04576 493.257 2.77081C491.971 1.49771 489.712 0.571999 485.83 0.571999V1.172C489.628 1.172 491.705 2.07828 492.835 3.19719C493.963 4.31424 494.202 5.69691 494.202 6.776H494.802ZM485.83 0.571999H485.11V1.172H485.83V0.571999ZM489.498 7.112C489.498 7.68779 489.316 8.32046 488.752 8.81431C488.183 9.31298 487.181 9.708 485.462 9.708V10.308C487.263 10.308 488.429 9.89501 489.147 9.26569C489.871 8.63154 490.098 7.81622 490.098 7.112H489.498ZM485.462 9.708C483.746 9.708 482.744 9.29835 482.174 8.78839C481.607 8.28164 481.426 7.63906 481.426 7.08H480.826C480.826 7.76894 481.052 8.59036 481.774 9.23561C482.492 9.87765 483.658 10.308 485.462 10.308V9.708ZM481.426 7.08V6.888H480.826V7.08H481.426ZM481.426 6.888C481.426 6.31652 481.594 5.70714 482.145 5.23362C482.705 4.75295 483.706 4.372 485.462 4.372V3.772C483.633 3.772 482.466 4.16705 481.754 4.77837C481.034 5.39686 480.826 6.19547 480.826 6.888H481.426ZM485.462 4.372C487.183 4.372 488.187 4.75224 488.756 5.23483C489.317 5.711 489.498 6.32217 489.498 6.888H490.098C490.098 6.18982 489.87 5.39299 489.144 4.77717C488.425 4.16776 487.26 3.772 485.462 3.772V4.372ZM489.498 6.888V7.112H490.098V6.888H489.498ZM496.5 13H496.201V13.3H496.5V13ZM500.932 13V13.3H501.232V13H500.932ZM500.932 5.576L501.194 5.42935L500.633 4.42691V5.576H500.932ZM505.092 13L504.831 13.1466L504.917 13.3H505.092V13ZM507.412 13V13.3H507.588L507.674 13.1471L507.412 13ZM511.589 5.576H511.888V4.43075L511.327 5.42892L511.589 5.576ZM511.589 13H511.289V13.3H511.589V13ZM516.084 13V13.3H516.384V13H516.084ZM516.084 1.096H516.384V0.796001H516.084V1.096ZM510.1 1.096V0.796001H509.924L509.838 0.950413L510.1 1.096ZM506.388 7.784L506.125 7.92765L506.386 8.40631L506.651 7.92958L506.388 7.784ZM502.74 1.096L503.004 0.952343L502.919 0.796001H502.74V1.096ZM496.5 1.096V0.796001H496.201V1.096H496.5ZM496.5 13.3H500.932V12.7H496.5V13.3ZM501.232 13V5.576H500.633V13H501.232ZM500.671 5.72265L504.831 13.1466L505.354 12.8534L501.194 5.42935L500.671 5.72265ZM505.092 13.3H507.412V12.7H505.092V13.3ZM507.674 13.1471L511.85 5.72308L511.327 5.42892L507.151 12.8529L507.674 13.1471ZM511.289 5.576V13H511.888V5.576H511.289ZM511.589 13.3H516.084V12.7H511.589V13.3ZM516.384 13V1.096H515.784V13H516.384ZM516.084 0.796001H510.1V1.396H516.084V0.796001ZM509.838 0.950413L506.126 7.63841L506.651 7.92958L510.363 1.24158L509.838 0.950413ZM506.652 7.64034L503.004 0.952343L502.477 1.23965L506.125 7.92765L506.652 7.64034ZM502.74 0.796001H496.5V1.396H502.74V0.796001ZM496.201 1.096V13H496.8V1.096H496.201ZM518.444 13H518.144V13.3H518.444V13ZM522.988 13V13.3H523.288V13H522.988ZM522.988 4.264V3.964H522.688V4.264H522.988ZM529.884 4.264H530.184V3.964H529.884V4.264ZM529.884 13H529.584V13.3H529.884V13ZM534.412 13V13.3H534.712V13H534.412ZM534.412 1.096H534.712V0.796001H534.412V1.096ZM518.444 1.096V0.796001H518.144V1.096H518.444ZM518.444 13.3H522.988V12.7H518.444V13.3ZM523.288 13V4.264H522.688V13H523.288ZM522.988 4.564H529.884V3.964H522.988V4.564ZM529.584 4.264V13H530.184V4.264H529.584ZM529.884 13.3H534.412V12.7H529.884V13.3ZM534.712 13V1.096H534.112V13H534.712ZM534.412 0.796001H518.444V1.396H534.412V0.796001ZM518.144 1.096V13H518.744V1.096H518.144ZM546.698 8.104V8.404H547.178L546.968 7.97237L546.698 8.104ZM542.746 8.104L542.475 7.97494L542.271 8.404H542.746V8.104ZM544.698 4.008L544.968 3.87637L544.695 3.31755L544.427 3.87894L544.698 4.008ZM549.082 13L548.812 13.1306L548.894 13.3H549.082V13ZM554.058 13V13.3H554.553L554.324 12.861L554.058 13ZM547.834 1.096L548.1 0.956997L548.016 0.796001H547.834V1.096ZM541.722 1.096V0.796001H541.536L541.453 0.962994L541.722 1.096ZM535.834 13L535.565 12.867L535.351 13.3H535.834V13ZM540.442 13V13.3H540.632L540.713 13.1287L540.442 13ZM541.354 11.08V10.78H541.164L541.083 10.9513L541.354 11.08ZM548.154 11.08L548.424 10.9494L548.342 10.78H548.154V11.08ZM546.698 7.804H542.746V8.404H546.698V7.804ZM543.017 8.23306L544.969 4.13706L544.427 3.87894L542.475 7.97494L543.017 8.23306ZM544.428 4.13963L546.428 8.23563L546.968 7.97237L544.968 3.87637L544.428 4.13963ZM549.082 13.3H554.058V12.7H549.082V13.3ZM554.324 12.861L548.1 0.956997L547.568 1.235L553.792 13.139L554.324 12.861ZM547.834 0.796001H541.722V1.396H547.834V0.796001ZM541.453 0.962994L535.565 12.867L536.103 13.133L541.991 1.22901L541.453 0.962994ZM535.834 13.3H540.442V12.7H535.834V13.3ZM540.713 13.1287L541.625 11.2087L541.083 10.9513L540.171 12.8713L540.713 13.1287ZM541.354 11.38H548.154V10.78H541.354V11.38ZM547.884 11.2106L548.812 13.1306L549.352 12.8694L548.424 10.9494L547.884 11.2106ZM555.379 13H555.079V13.3H555.379V13ZM559.923 13V13.3H560.223V13H559.923ZM559.923 8.472V8.172H559.623V8.472H559.923ZM567.363 8.472H567.663V8.172H567.363V8.472ZM567.363 13H567.063V13.3H567.363V13ZM571.891 13V13.3H572.191V13H571.891ZM571.891 1.096H572.191V0.796001H571.891V1.096ZM567.363 1.096V0.796001H567.063V1.096H567.363ZM567.363 5.304V5.604H567.663V5.304H567.363ZM559.923 5.304H559.623V5.604H559.923V5.304ZM559.923 1.096H560.223V0.796001H559.923V1.096ZM555.379 1.096V0.796001H555.079V1.096H555.379ZM555.379 13.3H559.923V12.7H555.379V13.3ZM560.223 13V8.472H559.623V13H560.223ZM559.923 8.772H567.363V8.172H559.923V8.772ZM567.063 8.472V13H567.663V8.472H567.063ZM567.363 13.3H571.891V12.7H567.363V13.3ZM572.191 13V1.096H571.591V13H572.191ZM571.891 0.796001H567.363V1.396H571.891V0.796001ZM567.063 1.096V5.304H567.663V1.096H567.063ZM567.363 5.004H559.923V5.604H567.363V5.004ZM560.223 5.304V1.096H559.623V5.304H560.223ZM559.923 0.796001H555.379V1.396H559.923V0.796001ZM555.079 1.096V13H555.679V1.096H555.079ZM586.309 13H586.008V13.3H586.309V13ZM590.853 13V13.3H591.153V13H590.853ZM590.853 1.096H591.153V0.796001H590.853V1.096ZM586.309 1.096V0.796001H586.184L586.096 0.884094L586.309 1.096ZM578.836 8.584H578.536V9.30936L579.049 8.79591L578.836 8.584ZM578.836 1.096H579.137V0.796001H578.836V1.096ZM574.292 1.096V0.796001H573.992V1.096H574.292ZM574.292 13H573.992V13.3H574.292V13ZM578.836 13V13.3H578.961L579.049 13.2121L578.836 13ZM586.309 5.528H586.609V4.80374L586.096 5.31587L586.309 5.528ZM586.309 13.3H590.853V12.7H586.309V13.3ZM591.153 13V1.096H590.552V13H591.153ZM590.853 0.796001H586.309V1.396H590.853V0.796001ZM586.096 0.884094L578.624 8.37209L579.049 8.79591L586.521 1.3079L586.096 0.884094ZM579.137 8.584V1.096H578.536V8.584H579.137ZM578.836 0.796001H574.292V1.396H578.836V0.796001ZM573.992 1.096V13H574.593V1.096H573.992ZM574.292 13.3H578.836V12.7H574.292V13.3ZM579.049 13.2121L586.521 5.74013L586.096 5.31587L578.624 12.7879L579.049 13.2121ZM586.008 5.528V13H586.609V5.528H586.008ZM605.268 13H604.968V13.3H605.268V13ZM609.812 13V13.3H610.112V13H609.812ZM609.812 1.096H610.112V0.796001H609.812V1.096ZM605.268 1.096V0.796001H605.144L605.056 0.884094L605.268 1.096ZM597.796 8.584H597.496V9.30936L598.009 8.79591L597.796 8.584ZM597.796 1.096H598.096V0.796001H597.796V1.096ZM593.252 1.096V0.796001H592.952V1.096H593.252ZM593.252 13H592.952V13.3H593.252V13ZM597.796 13V13.3H597.921L598.009 13.2121L597.796 13ZM605.268 5.528H605.568V4.80374L605.056 5.31587L605.268 5.528ZM605.268 13.3H609.812V12.7H605.268V13.3ZM610.112 13V1.096H609.512V13H610.112ZM609.812 0.796001H605.268V1.396H609.812V0.796001ZM605.056 0.884094L597.584 8.37209L598.009 8.79591L605.481 1.3079L605.056 0.884094ZM598.096 8.584V1.096H597.496V8.584H598.096ZM597.796 0.796001H593.252V1.396H597.796V0.796001ZM592.952 1.096V13H593.552V1.096H592.952ZM593.252 13.3H597.796V12.7H593.252V13.3ZM598.009 13.2121L605.481 5.74013L605.056 5.31587L597.584 12.7879L598.009 13.2121ZM604.968 5.528V13H605.568V5.528H604.968Z" fill="#453C3C"/>
</svg>
