<svg width="49" height="48" viewBox="0 0 49 48" fill="none" xmlns="http://www.w3.org/2000/svg">
<circle cx="24.585" cy="24.3857" r="23.6143" transform="rotate(-90 24.585 24.3857)" fill="#E1DFE3"/>
<path d="M34.9299 19.6524C34.8125 19.2335 34.5838 18.8543 34.2681 18.5551C33.9434 18.2466 33.5456 18.0259 33.112 17.9139C31.4893 17.4862 24.9881 17.4862 24.9881 17.4862C22.2778 17.4554 19.5682 17.591 16.8746 17.8923C16.441 18.0126 16.0438 18.2382 15.7185 18.549C15.3988 18.8566 15.1672 19.2359 15.0462 19.6516C14.7556 21.217 14.6144 22.8065 14.6246 24.3987C14.6142 25.9894 14.755 27.5784 15.0462 29.1458C15.1646 29.5597 15.3953 29.9373 15.7159 30.2423C16.0364 30.5473 16.4356 30.7677 16.8746 30.8843C18.5189 31.3112 24.9881 31.3112 24.9881 31.3112C27.7018 31.342 30.4149 31.2064 33.112 30.9051C33.5456 30.793 33.9434 30.5724 34.2681 30.2639C34.5878 29.9589 34.815 29.5796 34.9291 29.1666C35.2273 27.6017 35.3722 26.0115 35.362 24.4186C35.3844 22.8188 35.2396 21.2212 34.9299 19.6516V19.6524ZM22.9213 27.3572V21.441L28.3303 24.3996L22.9213 27.3572Z" fill="#A09C9C"/>
</svg>
