<svg width="1920" height="47" viewBox="0 0 1920 47" fill="none" xmlns="http://www.w3.org/2000/svg">
<mask id="path-1-inside-1_44_2452" fill="white">
<path d="M-13.884 46V1.36H28.116C41.136 1.36 44.616 6.4 44.616 11.5V12.16C44.616 17.74 39.876 20.26 36.936 20.92C40.896 21.88 47.196 24.52 47.196 32.38V33.1C47.196 40.12 42.936 46 28.356 46H-13.884ZM22.956 11.5H3.15596V17.8H22.956C26.496 17.8 27.516 16.36 27.516 14.68V14.56C27.516 12.82 26.496 11.5 22.956 11.5ZM24.036 27.82H3.15596V35.5H24.036C28.476 35.5 29.316 33.4 29.316 31.66V31.48C29.316 29.56 28.416 27.82 24.036 27.82ZM83.6835 0.519999H86.3835C115.183 0.519999 118.903 14.26 118.903 22.66V24.46C118.903 32.8 115.243 46.84 86.3835 46.84H83.6835C54.7635 46.84 51.1035 32.8 51.1035 24.46V22.66C51.1035 14.26 54.7635 0.519999 83.6835 0.519999ZM101.263 23.92V23.08C101.263 18.34 98.2035 12.52 85.0035 12.52C71.5635 12.52 68.7435 18.34 68.7435 23.08V23.8C68.7435 28.48 71.8035 34.78 85.0035 34.78C98.2035 34.78 101.263 28.72 101.263 23.92ZM154.95 46.84H153.57C129.15 46.84 123.45 33.76 123.45 24.34V22.66C123.45 13.06 128.73 0.519999 155.07 0.519999H157.41C184.77 0.519999 188.49 11.5 188.73 17.74V17.8H170.97C170.67 16.66 169.11 12.16 156.51 12.16C144.51 12.16 141.09 17.32 141.09 23.2V23.86C141.09 29.56 145.35 35.14 156.39 35.14C167.91 35.14 171.63 31 171.63 29.56H155.97V20.86H189.03V46H178.29C177.99 44.56 177.03 41.44 176.19 39.82C174.45 41.74 168.87 46.84 154.95 46.84ZM196.301 1.36H245.681V12.28H213.101V17.86H245.021V28.72H213.101V34.84H246.161V46H196.301V1.36ZM252.886 1.36H271.966L297.886 26.74V1.36H314.806V46H297.766L269.806 18.94V46H252.886V1.36ZM339.342 1.36V46H322.362V1.36H339.342ZM383.796 27.64L376.296 12.28L368.976 27.64H383.796ZM392.736 46L389.256 38.8H363.756L360.336 46H343.056L365.136 1.36H388.056L411.396 46H392.736ZM486.267 0.519999H488.967C517.767 0.519999 521.487 14.26 521.487 22.66V24.46C521.487 32.8 517.827 46.84 488.967 46.84H486.267C457.347 46.84 453.687 32.8 453.687 24.46V22.66C453.687 14.26 457.347 0.519999 486.267 0.519999ZM503.847 23.92V23.08C503.847 18.34 500.787 12.52 487.587 12.52C474.147 12.52 471.327 18.34 471.327 23.08V23.8C471.327 28.48 474.387 34.78 487.587 34.78C500.787 34.78 503.847 28.72 503.847 23.92ZM585.845 46L564.065 26.02V46H547.025V1.36H564.065V19L586.025 1.36H607.205L581.225 21.64L608.045 46H585.845ZM636.042 0.519999H638.742C667.542 0.519999 671.262 14.26 671.262 22.66V24.46C671.262 32.8 667.602 46.84 638.742 46.84H636.042C607.122 46.84 603.462 32.8 603.462 24.46V22.66C603.462 14.26 607.122 0.519999 636.042 0.519999ZM653.622 23.92V23.08C653.622 18.34 650.562 12.52 637.362 12.52C623.922 12.52 621.102 18.34 621.102 23.08V23.8C621.102 28.48 624.162 34.78 637.362 34.78C650.562 34.78 653.622 28.72 653.622 23.92ZM676.957 46V1.36H700.357L714.037 26.44L727.957 1.36H750.397V46H733.537V18.16L717.877 46H709.177L693.577 18.16V46H676.957ZM757.445 46V1.36H817.325V46H800.345V13.24H774.485V46H757.445ZM861.598 27.64L854.098 12.28L846.778 27.64H861.598ZM870.538 46L867.058 38.8H841.558L838.138 46H820.858L842.938 1.36H865.858L889.198 46H870.538ZM892.353 46V1.36H909.393V17.14H937.293V1.36H954.273V46H937.293V29.02H909.393V46H892.353ZM1006.54 46V17.98L978.517 46H961.477V1.36H978.517V29.44L1006.54 1.36H1023.58V46H1006.54ZM1075.84 46V17.98L1047.82 46H1030.78V1.36H1047.82V29.44L1075.84 1.36H1092.88V46H1075.84Z"/>
<path d="M1140.3 46V1.36H1182.3C1195.32 1.36 1198.8 6.4 1198.8 11.5V12.16C1198.8 17.74 1194.06 20.26 1191.12 20.92C1195.08 21.88 1201.38 24.52 1201.38 32.38V33.1C1201.38 40.12 1197.12 46 1182.54 46H1140.3ZM1177.14 11.5H1157.34V17.8H1177.14C1180.68 17.8 1181.7 16.36 1181.7 14.68V14.56C1181.7 12.82 1180.68 11.5 1177.14 11.5ZM1178.22 27.82H1157.34V35.5H1178.22C1182.66 35.5 1183.5 33.4 1183.5 31.66V31.48C1183.5 29.56 1182.6 27.82 1178.22 27.82ZM1237.87 0.519999H1240.57C1269.37 0.519999 1273.09 14.26 1273.09 22.66V24.46C1273.09 32.8 1269.43 46.84 1240.57 46.84H1237.87C1208.95 46.84 1205.29 32.8 1205.29 24.46V22.66C1205.29 14.26 1208.95 0.519999 1237.87 0.519999ZM1255.45 23.92V23.08C1255.45 18.34 1252.39 12.52 1239.19 12.52C1225.75 12.52 1222.93 18.34 1222.93 23.08V23.8C1222.93 28.48 1225.99 34.78 1239.19 34.78C1252.39 34.78 1255.45 28.72 1255.45 23.92ZM1309.14 46.84H1307.76C1283.34 46.84 1277.64 33.76 1277.64 24.34V22.66C1277.64 13.06 1282.92 0.519999 1309.26 0.519999H1311.6C1338.96 0.519999 1342.68 11.5 1342.92 17.74V17.8H1325.16C1324.86 16.66 1323.3 12.16 1310.7 12.16C1298.7 12.16 1295.28 17.32 1295.28 23.2V23.86C1295.28 29.56 1299.54 35.14 1310.58 35.14C1322.1 35.14 1325.82 31 1325.82 29.56H1310.16V20.86H1343.22V46H1332.48C1332.18 44.56 1331.22 41.44 1330.38 39.82C1328.64 41.74 1323.06 46.84 1309.14 46.84ZM1350.49 1.36H1399.87V12.28H1367.29V17.86H1399.21V28.72H1367.29V34.84H1400.35V46H1350.49V1.36ZM1407.07 1.36H1426.15L1452.07 26.74V1.36H1468.99V46H1451.95L1423.99 18.94V46H1407.07V1.36ZM1493.53 1.36V46H1476.55V1.36H1493.53ZM1537.98 27.64L1530.48 12.28L1523.16 27.64H1537.98ZM1546.92 46L1543.44 38.8H1517.94L1514.52 46H1497.24L1519.32 1.36H1542.24L1565.58 46H1546.92ZM1640.45 0.519999H1643.15C1671.95 0.519999 1675.67 14.26 1675.67 22.66V24.46C1675.67 32.8 1672.01 46.84 1643.15 46.84H1640.45C1611.53 46.84 1607.87 32.8 1607.87 24.46V22.66C1607.87 14.26 1611.53 0.519999 1640.45 0.519999ZM1658.03 23.92V23.08C1658.03 18.34 1654.97 12.52 1641.77 12.52C1628.33 12.52 1625.51 18.34 1625.51 23.08V23.8C1625.51 28.48 1628.57 34.78 1641.77 34.78C1654.97 34.78 1658.03 28.72 1658.03 23.92ZM1740.03 46L1718.25 26.02V46H1701.21V1.36H1718.25V19L1740.21 1.36H1761.39L1735.41 21.64L1762.23 46H1740.03ZM1790.23 0.519999H1792.93C1821.73 0.519999 1825.45 14.26 1825.45 22.66V24.46C1825.45 32.8 1821.79 46.84 1792.93 46.84H1790.23C1761.31 46.84 1757.65 32.8 1757.65 24.46V22.66C1757.65 14.26 1761.31 0.519999 1790.23 0.519999ZM1807.81 23.92V23.08C1807.81 18.34 1804.75 12.52 1791.55 12.52C1778.11 12.52 1775.29 18.34 1775.29 23.08V23.8C1775.29 28.48 1778.35 34.78 1791.55 34.78C1804.75 34.78 1807.81 28.72 1807.81 23.92ZM1831.14 46V1.36H1854.54L1868.22 26.44L1882.14 1.36H1904.58V46H1887.72V18.16L1872.06 46H1863.36L1847.76 18.16V46H1831.14ZM1911.63 46V1.36H1971.51V46H1954.53V13.24H1928.67V46H1911.63ZM2015.78 27.64L2008.28 12.28L2000.96 27.64H2015.78ZM2024.72 46L2021.24 38.8H1995.74L1992.32 46H1975.04L1997.12 1.36H2020.04L2043.38 46H2024.72ZM2046.54 46V1.36H2063.58V17.14H2091.48V1.36H2108.46V46H2091.48V29.02H2063.58V46H2046.54ZM2160.72 46V17.98L2132.7 46H2115.66V1.36H2132.7V29.44L2160.72 1.36H2177.76V46H2160.72ZM2230.02 46V17.98L2202 46H2184.96V1.36H2202V29.44L2230.02 1.36H2247.06V46H2230.02Z"/>
</mask>
<path d="M-13.884 46V1.36H28.116C41.136 1.36 44.616 6.4 44.616 11.5V12.16C44.616 17.74 39.876 20.26 36.936 20.92C40.896 21.88 47.196 24.52 47.196 32.38V33.1C47.196 40.12 42.936 46 28.356 46H-13.884ZM22.956 11.5H3.15596V17.8H22.956C26.496 17.8 27.516 16.36 27.516 14.68V14.56C27.516 12.82 26.496 11.5 22.956 11.5ZM24.036 27.82H3.15596V35.5H24.036C28.476 35.5 29.316 33.4 29.316 31.66V31.48C29.316 29.56 28.416 27.82 24.036 27.82ZM83.6835 0.519999H86.3835C115.183 0.519999 118.903 14.26 118.903 22.66V24.46C118.903 32.8 115.243 46.84 86.3835 46.84H83.6835C54.7635 46.84 51.1035 32.8 51.1035 24.46V22.66C51.1035 14.26 54.7635 0.519999 83.6835 0.519999ZM101.263 23.92V23.08C101.263 18.34 98.2035 12.52 85.0035 12.52C71.5635 12.52 68.7435 18.34 68.7435 23.08V23.8C68.7435 28.48 71.8035 34.78 85.0035 34.78C98.2035 34.78 101.263 28.72 101.263 23.92ZM154.95 46.84H153.57C129.15 46.84 123.45 33.76 123.45 24.34V22.66C123.45 13.06 128.73 0.519999 155.07 0.519999H157.41C184.77 0.519999 188.49 11.5 188.73 17.74V17.8H170.97C170.67 16.66 169.11 12.16 156.51 12.16C144.51 12.16 141.09 17.32 141.09 23.2V23.86C141.09 29.56 145.35 35.14 156.39 35.14C167.91 35.14 171.63 31 171.63 29.56H155.97V20.86H189.03V46H178.29C177.99 44.56 177.03 41.44 176.19 39.82C174.45 41.74 168.87 46.84 154.95 46.84ZM196.301 1.36H245.681V12.28H213.101V17.86H245.021V28.72H213.101V34.84H246.161V46H196.301V1.36ZM252.886 1.36H271.966L297.886 26.74V1.36H314.806V46H297.766L269.806 18.94V46H252.886V1.36ZM339.342 1.36V46H322.362V1.36H339.342ZM383.796 27.64L376.296 12.28L368.976 27.64H383.796ZM392.736 46L389.256 38.8H363.756L360.336 46H343.056L365.136 1.36H388.056L411.396 46H392.736ZM486.267 0.519999H488.967C517.767 0.519999 521.487 14.26 521.487 22.66V24.46C521.487 32.8 517.827 46.84 488.967 46.84H486.267C457.347 46.84 453.687 32.8 453.687 24.46V22.66C453.687 14.26 457.347 0.519999 486.267 0.519999ZM503.847 23.92V23.08C503.847 18.34 500.787 12.52 487.587 12.52C474.147 12.52 471.327 18.34 471.327 23.08V23.8C471.327 28.48 474.387 34.78 487.587 34.78C500.787 34.78 503.847 28.72 503.847 23.92ZM585.845 46L564.065 26.02V46H547.025V1.36H564.065V19L586.025 1.36H607.205L581.225 21.64L608.045 46H585.845ZM636.042 0.519999H638.742C667.542 0.519999 671.262 14.26 671.262 22.66V24.46C671.262 32.8 667.602 46.84 638.742 46.84H636.042C607.122 46.84 603.462 32.8 603.462 24.46V22.66C603.462 14.26 607.122 0.519999 636.042 0.519999ZM653.622 23.92V23.08C653.622 18.34 650.562 12.52 637.362 12.52C623.922 12.52 621.102 18.34 621.102 23.08V23.8C621.102 28.48 624.162 34.78 637.362 34.78C650.562 34.78 653.622 28.72 653.622 23.92ZM676.957 46V1.36H700.357L714.037 26.44L727.957 1.36H750.397V46H733.537V18.16L717.877 46H709.177L693.577 18.16V46H676.957ZM757.445 46V1.36H817.325V46H800.345V13.24H774.485V46H757.445ZM861.598 27.64L854.098 12.28L846.778 27.64H861.598ZM870.538 46L867.058 38.8H841.558L838.138 46H820.858L842.938 1.36H865.858L889.198 46H870.538ZM892.353 46V1.36H909.393V17.14H937.293V1.36H954.273V46H937.293V29.02H909.393V46H892.353ZM1006.54 46V17.98L978.517 46H961.477V1.36H978.517V29.44L1006.54 1.36H1023.58V46H1006.54ZM1075.84 46V17.98L1047.82 46H1030.78V1.36H1047.82V29.44L1075.84 1.36H1092.88V46H1075.84Z" fill="#453C3C"/>
<path d="M-13.884 46H-14.884V47H-13.884V46ZM-13.884 1.36V0.359999H-14.884V1.36H-13.884ZM36.936 20.92L36.7169 19.9443L36.7004 21.8918L36.936 20.92ZM3.15596 11.5V10.5H2.15596V11.5H3.15596ZM3.15596 17.8H2.15596V18.8H3.15596V17.8ZM3.15596 27.82V26.82H2.15596V27.82H3.15596ZM3.15596 35.5H2.15596V36.5H3.15596V35.5ZM-12.884 46V1.36H-14.884V46H-12.884ZM-13.884 2.36H28.116V0.359999H-13.884V2.36ZM28.116 2.36C34.5234 2.36 38.3939 3.60462 40.6435 5.31375C42.8448 6.98624 43.616 9.19798 43.616 11.5H45.616C45.616 8.70201 44.6471 5.84376 41.8534 3.72124C39.108 1.63538 34.7286 0.359999 28.116 0.359999V2.36ZM43.616 11.5V12.16H45.616V11.5H43.616ZM43.616 12.16C43.616 14.6298 42.5801 16.3969 41.2061 17.6447C39.8082 18.9143 38.0566 19.6435 36.7169 19.9443L37.155 21.8957C38.7553 21.5365 40.8437 20.6757 42.5508 19.1253C44.2818 17.5531 45.616 15.2702 45.616 12.16H43.616ZM36.7004 21.8918C38.6128 22.3555 41.004 23.2073 42.9027 24.8239C44.7636 26.4083 46.196 28.761 46.196 32.38H48.196C48.196 28.139 46.4784 25.2417 44.1993 23.3011C41.9579 21.3927 39.2191 20.4445 37.1716 19.9482L36.7004 21.8918ZM46.196 32.38V33.1H48.196V32.38H46.196ZM46.196 33.1C46.196 36.3981 45.2052 39.2988 42.6126 41.4066C39.9794 43.5474 35.5382 45 28.356 45V47C35.7538 47 40.7325 45.5126 43.8743 42.9584C47.0567 40.3712 48.196 36.8219 48.196 33.1H46.196ZM28.356 45H-13.884V47H28.356V45ZM22.956 10.5H3.15596V12.5H22.956V10.5ZM2.15596 11.5V17.8H4.15596V11.5H2.15596ZM3.15596 18.8H22.956V16.8H3.15596V18.8ZM22.956 18.8C24.8355 18.8 26.2447 18.4219 27.1962 17.6443C28.187 16.8347 28.516 15.7316 28.516 14.68H26.516C26.516 15.3084 26.3349 15.7653 25.9307 16.0957C25.4872 16.4581 24.6164 16.8 22.956 16.8V18.8ZM28.516 14.68V14.56H26.516V14.68H28.516ZM28.516 14.56C28.516 13.4838 28.1894 12.3825 27.1809 11.5909C26.2258 10.8412 24.8177 10.5 22.956 10.5V12.5C24.6343 12.5 25.5062 12.8188 25.946 13.1641C26.3325 13.4675 26.516 13.8962 26.516 14.56H28.516ZM24.036 26.82H3.15596V28.82H24.036V26.82ZM2.15596 27.82V35.5H4.15596V27.82H2.15596ZM3.15596 36.5H24.036V34.5H3.15596V36.5ZM24.036 36.5C26.3953 36.5 28.0142 35.9433 29.0374 34.9501C30.0687 33.9492 30.316 32.6797 30.316 31.66H28.316C28.316 32.3803 28.1432 33.0308 27.6445 33.5149C27.1378 34.0067 26.1167 34.5 24.036 34.5V36.5ZM30.316 31.66V31.48H28.316V31.66H30.316ZM30.316 31.48C30.316 30.3711 30.053 29.1177 28.9764 28.177C27.9369 27.2686 26.3246 26.82 24.036 26.82V28.82C26.1273 28.82 27.155 29.2414 27.6605 29.683C28.1289 30.0923 28.316 30.6689 28.316 31.48H30.316ZM83.6835 1.52H86.3835V-0.480001H83.6835V1.52ZM86.3835 1.52C100.643 1.52 108.469 4.92261 112.74 9.15063C117.004 13.3725 117.903 18.5964 117.903 22.66H119.903C119.903 18.3236 118.943 12.4775 114.147 7.72937C109.357 2.98739 100.924 -0.480001 86.3835 -0.480001V1.52ZM117.903 22.66V24.46H119.903V22.66H117.903ZM117.903 24.46C117.903 28.4962 117.018 33.7832 112.757 38.0727C108.493 42.3649 100.668 45.84 86.3835 45.84V47.84C100.959 47.84 109.394 44.2951 114.175 39.4823C118.959 34.6668 119.903 28.7638 119.903 24.46H117.903ZM86.3835 45.84H83.6835V47.84H86.3835V45.84ZM83.6835 45.84C69.3682 45.84 61.5286 42.3646 57.2573 38.0721C52.9891 33.7827 52.1035 28.4961 52.1035 24.46H50.1035C50.1035 28.7639 51.0478 34.6673 55.8396 39.4829C60.6284 44.2954 69.0787 47.84 83.6835 47.84V45.84ZM52.1035 24.46V22.66H50.1035V24.46H52.1035ZM52.1035 22.66C52.1035 18.594 52.989 13.3713 57.252 9.15063C61.5219 4.92322 69.3626 1.52 83.6835 1.52V-0.480001C69.0844 -0.480001 60.6351 2.98678 55.8449 7.72937C51.048 12.4787 50.1035 18.326 50.1035 22.66H52.1035ZM102.263 23.92V23.08H100.263V23.92H102.263ZM102.263 23.08C102.263 20.4894 101.42 17.54 98.7301 15.2597C96.0658 13.0009 91.7313 11.52 85.0035 11.52V13.52C91.4757 13.52 95.2711 14.9491 97.4368 16.7853C99.5773 18.6 100.263 20.9306 100.263 23.08H102.263ZM85.0035 11.52C78.1612 11.52 73.8207 12.9985 71.1821 15.2637C68.5156 17.5529 67.7435 20.5082 67.7435 23.08H69.7435C69.7435 20.9118 70.3813 18.5871 72.4848 16.7812C74.6162 14.9515 78.4058 13.52 85.0035 13.52V11.52ZM67.7435 23.08V23.8H69.7435V23.08H67.7435ZM67.7435 23.8C67.7435 26.3564 68.5837 29.3995 71.2568 31.7904C73.9179 34.1705 78.2573 35.78 85.0035 35.78V33.78C78.5496 33.78 74.759 32.2395 72.5901 30.2996C70.4332 28.3705 69.7435 25.9235 69.7435 23.8H67.7435ZM85.0035 35.78C91.7401 35.78 96.0787 34.235 98.7423 31.9023C101.424 29.5535 102.263 26.534 102.263 23.92H100.263C100.263 26.1059 99.5726 28.5165 97.4246 30.3977C95.2583 32.295 91.4668 33.78 85.0035 33.78V35.78ZM188.73 17.74H189.73V17.7208L189.73 17.7016L188.73 17.74ZM188.73 17.8V18.8H189.73V17.8H188.73ZM170.97 17.8L170.003 18.0545L170.199 18.8H170.97V17.8ZM171.63 29.56H172.63V28.56H171.63V29.56ZM155.97 29.56H154.97V30.56H155.97V29.56ZM155.97 20.86V19.86H154.97V20.86H155.97ZM189.03 20.86H190.03V19.86H189.03V20.86ZM189.03 46V47H190.03V46H189.03ZM178.29 46L177.311 46.204L177.477 47H178.29V46ZM176.19 39.82L177.078 39.3597L176.416 38.0822L175.449 39.1485L176.19 39.82ZM154.95 45.84H153.57V47.84H154.95V45.84ZM153.57 45.84C141.535 45.84 134.293 42.6198 130.058 38.413C125.817 34.2007 124.45 28.8596 124.45 24.34H122.45C122.45 29.2404 123.934 35.1493 128.648 39.832C133.368 44.5202 141.186 47.84 153.57 47.84V45.84ZM124.45 24.34V22.66H122.45V24.34H124.45ZM124.45 22.66C124.45 18.0369 125.719 12.8061 130.068 8.71869C134.427 4.62173 142.043 1.52 155.07 1.52V-0.480001C141.757 -0.480001 133.564 2.68827 128.698 7.26131C123.822 11.8439 122.45 17.6831 122.45 22.66H124.45ZM155.07 1.52H157.41V-0.480001H155.07V1.52ZM157.41 1.52C170.982 1.52 178.486 4.24756 182.613 7.56904C186.7 10.8579 187.618 14.8471 187.731 17.7784L189.73 17.7016C189.602 14.3929 188.541 9.77205 183.867 6.01096C179.234 2.28244 171.198 -0.480001 157.41 -0.480001V1.52ZM187.73 17.74V17.8H189.73V17.74H187.73ZM188.73 16.8H170.97V18.8H188.73V16.8ZM171.937 17.5455C171.741 16.8005 171.157 15.1442 168.888 13.7075C166.665 12.3004 162.912 11.16 156.51 11.16V13.16C162.708 13.16 166.036 14.2696 167.818 15.3975C169.553 16.4958 169.899 17.6595 170.003 18.0545L171.937 17.5455ZM156.51 11.16C150.39 11.16 146.258 12.4726 143.648 14.7168C141.01 16.9857 140.09 20.0631 140.09 23.2H142.09C142.09 20.4569 142.881 18.0143 144.952 16.2332C147.053 14.4274 150.631 13.16 156.51 13.16V11.16ZM140.09 23.2V23.86H142.09V23.2H140.09ZM140.09 23.86C140.09 26.9677 141.258 30.0768 143.947 32.3949C146.626 34.7036 150.709 36.14 156.39 36.14V34.14C151.031 34.14 147.465 32.7864 145.253 30.8801C143.053 28.9832 142.09 26.4523 142.09 23.86H140.09ZM156.39 36.14C162.263 36.14 166.24 35.0855 168.787 33.7799C170.059 33.1277 170.989 32.4052 171.614 31.7064C172.206 31.0451 172.63 30.2841 172.63 29.56H170.63C170.63 29.5559 170.59 29.8524 170.124 30.3724C169.692 30.8548 168.972 31.4373 167.874 32.0001C165.681 33.1245 162.037 34.14 156.39 34.14V36.14ZM171.63 28.56H155.97V30.56H171.63V28.56ZM156.97 29.56V20.86H154.97V29.56H156.97ZM155.97 21.86H189.03V19.86H155.97V21.86ZM188.03 20.86V46H190.03V20.86H188.03ZM189.03 45H178.29V47H189.03V45ZM179.269 45.796C178.958 44.3012 177.974 41.0867 177.078 39.3597L175.303 40.2803C176.087 41.7933 177.023 44.8188 177.311 46.204L179.269 45.796ZM175.449 39.1485C173.892 40.8671 168.578 45.84 154.95 45.84V47.84C169.163 47.84 175.009 42.6129 176.931 40.4915L175.449 39.1485ZM196.301 1.36V0.359999H195.301V1.36H196.301ZM245.681 1.36H246.681V0.359999H245.681V1.36ZM245.681 12.28V13.28H246.681V12.28H245.681ZM213.101 12.28V11.28H212.101V12.28H213.101ZM213.101 17.86H212.101V18.86H213.101V17.86ZM245.021 17.86H246.021V16.86H245.021V17.86ZM245.021 28.72V29.72H246.021V28.72H245.021ZM213.101 28.72V27.72H212.101V28.72H213.101ZM213.101 34.84H212.101V35.84H213.101V34.84ZM246.161 34.84H247.161V33.84H246.161V34.84ZM246.161 46V47H247.161V46H246.161ZM196.301 46H195.301V47H196.301V46ZM196.301 2.36H245.681V0.359999H196.301V2.36ZM244.681 1.36V12.28H246.681V1.36H244.681ZM245.681 11.28H213.101V13.28H245.681V11.28ZM212.101 12.28V17.86H214.101V12.28H212.101ZM213.101 18.86H245.021V16.86H213.101V18.86ZM244.021 17.86V28.72H246.021V17.86H244.021ZM245.021 27.72H213.101V29.72H245.021V27.72ZM212.101 28.72V34.84H214.101V28.72H212.101ZM213.101 35.84H246.161V33.84H213.101V35.84ZM245.161 34.84V46H247.161V34.84H245.161ZM246.161 45H196.301V47H246.161V45ZM197.301 46V1.36H195.301V46H197.301ZM252.886 1.36V0.359999H251.886V1.36H252.886ZM271.966 1.36L272.666 0.645489L272.374 0.359999H271.966V1.36ZM297.886 26.74L297.187 27.4545L298.886 29.1187V26.74H297.886ZM297.886 1.36V0.359999H296.886V1.36H297.886ZM314.806 1.36H315.806V0.359999H314.806V1.36ZM314.806 46V47H315.806V46H314.806ZM297.766 46L297.071 46.7186L297.362 47H297.766V46ZM269.806 18.94L270.502 18.2214L268.806 16.5805V18.94H269.806ZM269.806 46V47H270.806V46H269.806ZM252.886 46H251.886V47H252.886V46ZM252.886 2.36H271.966V0.359999H252.886V2.36ZM271.267 2.07451L297.187 27.4545L298.586 26.0255L272.666 0.645489L271.267 2.07451ZM298.886 26.74V1.36H296.886V26.74H298.886ZM297.886 2.36H314.806V0.359999H297.886V2.36ZM313.806 1.36V46H315.806V1.36H313.806ZM314.806 45H297.766V47H314.806V45ZM298.462 45.2814L270.502 18.2214L269.111 19.6586L297.071 46.7186L298.462 45.2814ZM268.806 18.94V46H270.806V18.94H268.806ZM269.806 45H252.886V47H269.806V45ZM253.886 46V1.36H251.886V46H253.886ZM339.342 1.36H340.342V0.359999H339.342V1.36ZM339.342 46V47H340.342V46H339.342ZM322.362 46H321.362V47H322.362V46ZM322.362 1.36V0.359999H321.362V1.36H322.362ZM338.342 1.36V46H340.342V1.36H338.342ZM339.342 45H322.362V47H339.342V45ZM323.362 46V1.36H321.362V46H323.362ZM322.362 2.36H339.342V0.359999H322.362V2.36ZM383.796 27.64V28.64H385.398L384.695 27.2012L383.796 27.64ZM376.296 12.28L377.195 11.8412L376.285 9.97849L375.394 11.8498L376.296 12.28ZM368.976 27.64L368.074 27.2098L367.392 28.64H368.976V27.64ZM392.736 46L391.836 46.4352L392.109 47H392.736V46ZM389.256 38.8L390.157 38.3648L389.884 37.8H389.256V38.8ZM363.756 38.8V37.8H363.124L362.853 38.3709L363.756 38.8ZM360.336 46V47H360.969L361.24 46.4291L360.336 46ZM343.056 46L342.16 45.5566L341.446 47H343.056V46ZM365.136 1.36V0.359999H364.515L364.24 0.916645L365.136 1.36ZM388.056 1.36L388.943 0.89666L388.662 0.359999H388.056V1.36ZM411.396 46V47H413.048L412.283 45.5367L411.396 46ZM384.695 27.2012L377.195 11.8412L375.398 12.7188L382.898 28.0788L384.695 27.2012ZM375.394 11.8498L368.074 27.2098L369.879 28.0702L377.199 12.7102L375.394 11.8498ZM368.976 28.64H383.796V26.64H368.976V28.64ZM393.637 45.5648L390.157 38.3648L388.356 39.2352L391.836 46.4352L393.637 45.5648ZM389.256 37.8H363.756V39.8H389.256V37.8ZM362.853 38.3709L359.433 45.5709L361.24 46.4291L364.66 39.2291L362.853 38.3709ZM360.336 45H343.056V47H360.336V45ZM343.953 46.4434L366.033 1.80335L364.24 0.916645L342.16 45.5566L343.953 46.4434ZM365.136 2.36H388.056V0.359999H365.136V2.36ZM387.17 1.82334L410.51 46.4633L412.283 45.5367L388.943 0.89666L387.17 1.82334ZM411.396 45H392.736V47H411.396V45ZM486.267 1.52H488.967V-0.480001H486.267V1.52ZM488.967 1.52C503.227 1.52 511.053 4.92261 515.323 9.15063C519.588 13.3725 520.487 18.5964 520.487 22.66H522.487C522.487 18.3236 521.526 12.4775 516.731 7.72937C511.941 2.98739 503.507 -0.480001 488.967 -0.480001V1.52ZM520.487 22.66V24.46H522.487V22.66H520.487ZM520.487 24.46C520.487 28.4962 519.601 33.7832 515.34 38.0727C511.076 42.3649 503.252 45.84 488.967 45.84V47.84C503.542 47.84 511.978 44.2951 516.759 39.4823C521.543 34.6668 522.487 28.7638 522.487 24.46H520.487ZM488.967 45.84H486.267V47.84H488.967V45.84ZM486.267 45.84C471.952 45.84 464.112 42.3646 459.841 38.0721C455.573 33.7827 454.687 28.4961 454.687 24.46H452.687C452.687 28.7639 453.631 34.6673 458.423 39.4829C463.212 44.2954 471.662 47.84 486.267 47.84V45.84ZM454.687 24.46V22.66H452.687V24.46H454.687ZM454.687 22.66C454.687 18.594 455.573 13.3713 459.836 9.15063C464.105 4.92322 471.946 1.52 486.267 1.52V-0.480001C471.668 -0.480001 463.219 2.98678 458.428 7.72937C453.632 12.4787 452.687 18.326 452.687 22.66H454.687ZM504.847 23.92V23.08H502.847V23.92H504.847ZM504.847 23.08C504.847 20.4894 504.003 17.54 501.314 15.2597C498.649 13.0009 494.315 11.52 487.587 11.52V13.52C494.059 13.52 497.855 14.9491 500.02 16.7853C502.161 18.6 502.847 20.9306 502.847 23.08H504.847ZM487.587 11.52C480.745 11.52 476.404 12.9985 473.766 15.2637C471.099 17.5529 470.327 20.5082 470.327 23.08H472.327C472.327 20.9118 472.965 18.5871 475.068 16.7812C477.2 14.9515 480.989 13.52 487.587 13.52V11.52ZM470.327 23.08V23.8H472.327V23.08H470.327ZM470.327 23.8C470.327 26.3564 471.167 29.3995 473.84 31.7904C476.502 34.1705 480.841 35.78 487.587 35.78V33.78C481.133 33.78 477.343 32.2395 475.174 30.2996C473.017 28.3705 472.327 25.9235 472.327 23.8H470.327ZM487.587 35.78C494.324 35.78 498.662 34.235 501.326 31.9023C504.008 29.5535 504.847 26.534 504.847 23.92H502.847C502.847 26.1059 502.156 28.5165 500.008 30.3977C497.842 32.295 494.05 33.78 487.587 33.78V35.78ZM585.845 46L585.169 46.7369L585.456 47H585.845V46ZM564.065 26.02L564.741 25.2831L563.065 23.7456V26.02H564.065ZM564.065 46V47H565.065V46H564.065ZM547.025 46H546.025V47H547.025V46ZM547.025 1.36V0.359999H546.025V1.36H547.025ZM564.065 1.36H565.065V0.359999H564.065V1.36ZM564.065 19H563.065V21.086L564.691 19.7796L564.065 19ZM586.025 1.36V0.359999H585.673L585.399 0.580379L586.025 1.36ZM607.205 1.36L607.82 2.14827L610.111 0.359999H607.205V1.36ZM581.225 21.64L580.61 20.8517L579.674 21.5821L580.553 22.3802L581.225 21.64ZM608.045 46V47H610.633L608.717 45.2598L608.045 46ZM586.521 45.2631L564.741 25.2831L563.389 26.7569L585.169 46.7369L586.521 45.2631ZM563.065 26.02V46H565.065V26.02H563.065ZM564.065 45H547.025V47H564.065V45ZM548.025 46V1.36H546.025V46H548.025ZM547.025 2.36H564.065V0.359999H547.025V2.36ZM563.065 1.36V19H565.065V1.36H563.065ZM564.691 19.7796L586.651 2.13962L585.399 0.580379L563.439 18.2204L564.691 19.7796ZM586.025 2.36H607.205V0.359999H586.025V2.36ZM606.59 0.571726L580.61 20.8517L581.84 22.4283L607.82 2.14827L606.59 0.571726ZM580.553 22.3802L607.373 46.7402L608.717 45.2598L581.897 20.8998L580.553 22.3802ZM608.045 45H585.845V47H608.045V45ZM636.042 1.52H638.742V-0.480001H636.042V1.52ZM638.742 1.52C653.002 1.52 660.828 4.92261 665.098 9.15063C669.363 13.3725 670.262 18.5964 670.262 22.66H672.262C672.262 18.3236 671.301 12.4775 666.506 7.72937C661.716 2.98739 653.282 -0.480001 638.742 -0.480001V1.52ZM670.262 22.66V24.46H672.262V22.66H670.262ZM670.262 24.46C670.262 28.4962 669.376 33.7832 665.115 38.0727C660.851 42.3649 653.027 45.84 638.742 45.84V47.84C653.317 47.84 661.753 44.2951 666.534 39.4823C671.318 34.6668 672.262 28.7638 672.262 24.46H670.262ZM638.742 45.84H636.042V47.84H638.742V45.84ZM636.042 45.84C621.727 45.84 613.887 42.3646 609.616 38.0721C605.348 33.7827 604.462 28.4961 604.462 24.46H602.462C602.462 28.7639 603.406 34.6673 608.198 39.4829C612.987 44.2954 621.437 47.84 636.042 47.84V45.84ZM604.462 24.46V22.66H602.462V24.46H604.462ZM604.462 22.66C604.462 18.594 605.348 13.3713 609.611 9.15063C613.88 4.92322 621.721 1.52 636.042 1.52V-0.480001C621.443 -0.480001 612.994 2.98678 608.203 7.72937C603.407 12.4787 602.462 18.326 602.462 22.66H604.462ZM654.622 23.92V23.08H652.622V23.92H654.622ZM654.622 23.08C654.622 20.4894 653.778 17.54 651.089 15.2597C648.424 13.0009 644.09 11.52 637.362 11.52V13.52C643.834 13.52 647.63 14.9491 649.795 16.7853C651.936 18.6 652.622 20.9306 652.622 23.08H654.622ZM637.362 11.52C630.52 11.52 626.179 12.9985 623.541 15.2637C620.874 17.5529 620.102 20.5082 620.102 23.08H622.102C622.102 20.9118 622.74 18.5871 624.843 16.7812C626.975 14.9515 630.764 13.52 637.362 13.52V11.52ZM620.102 23.08V23.8H622.102V23.08H620.102ZM620.102 23.8C620.102 26.3564 620.942 29.3995 623.615 31.7904C626.276 34.1705 630.616 35.78 637.362 35.78V33.78C630.908 33.78 627.118 32.2395 624.949 30.2996C622.792 28.3705 622.102 25.9235 622.102 23.8H620.102ZM637.362 35.78C644.099 35.78 648.437 34.235 651.101 31.9023C653.783 29.5535 654.622 26.534 654.622 23.92H652.622C652.622 26.1059 651.931 28.5165 649.783 30.3977C647.617 32.295 643.825 33.78 637.362 33.78V35.78ZM676.957 46H675.957V47H676.957V46ZM676.957 1.36V0.359999H675.957V1.36H676.957ZM700.357 1.36L701.235 0.881147L700.951 0.359999H700.357V1.36ZM714.037 26.44L713.159 26.9188L714.03 28.5144L714.912 26.9253L714.037 26.44ZM727.957 1.36V0.359999H727.369L727.083 0.874712L727.957 1.36ZM750.397 1.36H751.397V0.359999H750.397V1.36ZM750.397 46V47H751.397V46H750.397ZM733.537 46H732.537V47H733.537V46ZM733.537 18.16H734.537V14.3425L732.666 17.6697L733.537 18.16ZM717.877 46V47H718.462L718.749 46.4903L717.877 46ZM709.177 46L708.305 46.4888L708.591 47H709.177V46ZM693.577 18.16L694.45 17.6712L692.577 14.3297V18.16H693.577ZM693.577 46V47H694.577V46H693.577ZM677.957 46V1.36H675.957V46H677.957ZM676.957 2.36H700.357V0.359999H676.957V2.36ZM699.479 1.83885L713.159 26.9188L714.915 25.9611L701.235 0.881147L699.479 1.83885ZM714.912 26.9253L728.832 1.84529L727.083 0.874712L713.163 25.9547L714.912 26.9253ZM727.957 2.36H750.397V0.359999H727.957V2.36ZM749.397 1.36V46H751.397V1.36H749.397ZM750.397 45H733.537V47H750.397V45ZM734.537 46V18.16H732.537V46H734.537ZM732.666 17.6697L717.006 45.5097L718.749 46.4903L734.409 18.6503L732.666 17.6697ZM717.877 45H709.177V47H717.877V45ZM710.05 45.5112L694.45 17.6712L692.705 18.6488L708.305 46.4888L710.05 45.5112ZM692.577 18.16V46H694.577V18.16H692.577ZM693.577 45H676.957V47H693.577V45ZM757.445 46H756.445V47H757.445V46ZM757.445 1.36V0.359999H756.445V1.36H757.445ZM817.325 1.36H818.325V0.359999H817.325V1.36ZM817.325 46V47H818.325V46H817.325ZM800.345 46H799.345V47H800.345V46ZM800.345 13.24H801.345V12.24H800.345V13.24ZM774.485 13.24V12.24H773.485V13.24H774.485ZM774.485 46V47H775.485V46H774.485ZM758.445 46V1.36H756.445V46H758.445ZM757.445 2.36H817.325V0.359999H757.445V2.36ZM816.325 1.36V46H818.325V1.36H816.325ZM817.325 45H800.345V47H817.325V45ZM801.345 46V13.24H799.345V46H801.345ZM800.345 12.24H774.485V14.24H800.345V12.24ZM773.485 13.24V46H775.485V13.24H773.485ZM774.485 45H757.445V47H774.485V45ZM861.598 27.64V28.64H863.199L862.497 27.2012L861.598 27.64ZM854.098 12.28L854.997 11.8412L854.087 9.97849L853.195 11.8498L854.098 12.28ZM846.778 27.64L845.875 27.2098L845.194 28.64H846.778V27.64ZM870.538 46L869.638 46.4352L869.911 47H870.538V46ZM867.058 38.8L867.958 38.3648L867.685 37.8H867.058V38.8ZM841.558 38.8V37.8H840.926L840.655 38.3709L841.558 38.8ZM838.138 46V47H838.77L839.041 46.4291L838.138 46ZM820.858 46L819.962 45.5566L819.248 47H820.858V46ZM842.938 1.36V0.359999H842.317L842.042 0.916645L842.938 1.36ZM865.858 1.36L866.744 0.89666L866.464 0.359999H865.858V1.36ZM889.198 46V47H890.849L890.084 45.5367L889.198 46ZM862.497 27.2012L854.997 11.8412L853.199 12.7188L860.699 28.0788L862.497 27.2012ZM853.195 11.8498L845.875 27.2098L847.681 28.0702L855.001 12.7102L853.195 11.8498ZM846.778 28.64H861.598V26.64H846.778V28.64ZM871.438 45.5648L867.958 38.3648L866.158 39.2352L869.638 46.4352L871.438 45.5648ZM867.058 37.8H841.558V39.8H867.058V37.8ZM840.655 38.3709L837.235 45.5709L839.041 46.4291L842.461 39.2291L840.655 38.3709ZM838.138 45H820.858V47H838.138V45ZM821.754 46.4434L843.834 1.80335L842.042 0.916645L819.962 45.5566L821.754 46.4434ZM842.938 2.36H865.858V0.359999H842.938V2.36ZM864.972 1.82334L888.312 46.4633L890.084 45.5367L866.744 0.89666L864.972 1.82334ZM889.198 45H870.538V47H889.198V45ZM892.353 46H891.353V47H892.353V46ZM892.353 1.36V0.359999H891.353V1.36H892.353ZM909.393 1.36H910.393V0.359999H909.393V1.36ZM909.393 17.14H908.393V18.14H909.393V17.14ZM937.293 17.14V18.14H938.293V17.14H937.293ZM937.293 1.36V0.359999H936.293V1.36H937.293ZM954.273 1.36H955.273V0.359999H954.273V1.36ZM954.273 46V47H955.273V46H954.273ZM937.293 46H936.293V47H937.293V46ZM937.293 29.02H938.293V28.02H937.293V29.02ZM909.393 29.02V28.02H908.393V29.02H909.393ZM909.393 46V47H910.393V46H909.393ZM893.353 46V1.36H891.353V46H893.353ZM892.353 2.36H909.393V0.359999H892.353V2.36ZM908.393 1.36V17.14H910.393V1.36H908.393ZM909.393 18.14H937.293V16.14H909.393V18.14ZM938.293 17.14V1.36H936.293V17.14H938.293ZM937.293 2.36H954.273V0.359999H937.293V2.36ZM953.273 1.36V46H955.273V1.36H953.273ZM954.273 45H937.293V47H954.273V45ZM938.293 46V29.02H936.293V46H938.293ZM937.293 28.02H909.393V30.02H937.293V28.02ZM908.393 29.02V46H910.393V29.02H908.393ZM909.393 45H892.353V47H909.393V45ZM1006.54 46H1005.54V47H1006.54V46ZM1006.54 17.98H1007.54V15.5658L1005.83 17.2729L1006.54 17.98ZM978.517 46V47H978.932L979.224 46.7071L978.517 46ZM961.477 46H960.477V47H961.477V46ZM961.477 1.36V0.359999H960.477V1.36H961.477ZM978.517 1.36H979.517V0.359999H978.517V1.36ZM978.517 29.44H977.517V31.8579L979.225 30.1463L978.517 29.44ZM1006.54 1.36V0.359999H1006.12L1005.83 0.653648L1006.54 1.36ZM1023.58 1.36H1024.58V0.359999H1023.58V1.36ZM1023.58 46V47H1024.58V46H1023.58ZM1007.54 46V17.98H1005.54V46H1007.54ZM1005.83 17.2729L977.81 45.2929L979.224 46.7071L1007.24 18.6871L1005.83 17.2729ZM978.517 45H961.477V47H978.517V45ZM962.477 46V1.36H960.477V46H962.477ZM961.477 2.36H978.517V0.359999H961.477V2.36ZM977.517 1.36V29.44H979.517V1.36H977.517ZM979.225 30.1463L1007.25 2.06635L1005.83 0.653648L977.81 28.7337L979.225 30.1463ZM1006.54 2.36H1023.58V0.359999H1006.54V2.36ZM1022.58 1.36V46H1024.58V1.36H1022.58ZM1023.58 45H1006.54V47H1023.58V45ZM1075.84 46H1074.84V47H1075.84V46ZM1075.84 17.98H1076.84V15.5658L1075.13 17.2729L1075.84 17.98ZM1047.82 46V47H1048.23L1048.52 46.7071L1047.82 46ZM1030.78 46H1029.78V47H1030.78V46ZM1030.78 1.36V0.359999H1029.78V1.36H1030.78ZM1047.82 1.36H1048.82V0.359999H1047.82V1.36ZM1047.82 29.44H1046.82V31.8579L1048.53 30.1463L1047.82 29.44ZM1075.84 1.36V0.359999H1075.42L1075.13 0.653648L1075.84 1.36ZM1092.88 1.36H1093.88V0.359999H1092.88V1.36ZM1092.88 46V47H1093.88V46H1092.88ZM1076.84 46V17.98H1074.84V46H1076.84ZM1075.13 17.2729L1047.11 45.2929L1048.52 46.7071L1076.54 18.6871L1075.13 17.2729ZM1047.82 45H1030.78V47H1047.82V45ZM1031.78 46V1.36H1029.78V46H1031.78ZM1030.78 2.36H1047.82V0.359999H1030.78V2.36ZM1046.82 1.36V29.44H1048.82V1.36H1046.82ZM1048.53 30.1463L1076.55 2.06635L1075.13 0.653648L1047.11 28.7337L1048.53 30.1463ZM1075.84 2.36H1092.88V0.359999H1075.84V2.36ZM1091.88 1.36V46H1093.88V1.36H1091.88ZM1092.88 45H1075.84V47H1092.88V45ZM1140.3 46H1139.3V47H1140.3V46ZM1140.3 1.36V0.359999H1139.3V1.36H1140.3ZM1191.12 20.92L1190.9 19.9443L1190.89 21.8918L1191.12 20.92ZM1157.34 11.5V10.5H1156.34V11.5H1157.34ZM1157.34 17.8H1156.34V18.8H1157.34V17.8ZM1157.34 27.82V26.82H1156.34V27.82H1157.34ZM1157.34 35.5H1156.34V36.5H1157.34V35.5ZM1141.3 46V1.36H1139.3V46H1141.3ZM1140.3 2.36H1182.3V0.359999H1140.3V2.36ZM1182.3 2.36C1188.71 2.36 1192.58 3.60462 1194.83 5.31375C1197.03 6.98624 1197.8 9.19798 1197.8 11.5H1199.8C1199.8 8.70201 1198.83 5.84376 1196.04 3.72124C1193.29 1.63538 1188.92 0.359999 1182.3 0.359999V2.36ZM1197.8 11.5V12.16H1199.8V11.5H1197.8ZM1197.8 12.16C1197.8 14.6298 1196.77 16.3969 1195.39 17.6447C1193.99 18.9143 1192.24 19.6435 1190.9 19.9443L1191.34 21.8957C1192.94 21.5365 1195.03 20.6757 1196.74 19.1253C1198.47 17.5531 1199.8 15.2702 1199.8 12.16H1197.8ZM1190.89 21.8918C1192.8 22.3555 1195.19 23.2073 1197.09 24.8239C1198.95 26.4083 1200.38 28.761 1200.38 32.38H1202.38C1202.38 28.139 1200.67 25.2417 1198.39 23.3011C1196.14 21.3927 1193.41 20.4445 1191.36 19.9482L1190.89 21.8918ZM1200.38 32.38V33.1H1202.38V32.38H1200.38ZM1200.38 33.1C1200.38 36.3981 1199.39 39.2988 1196.8 41.4066C1194.17 43.5474 1189.72 45 1182.54 45V47C1189.94 47 1194.92 45.5126 1198.06 42.9584C1201.24 40.3712 1202.38 36.8219 1202.38 33.1H1200.38ZM1182.54 45H1140.3V47H1182.54V45ZM1177.14 10.5H1157.34V12.5H1177.14V10.5ZM1156.34 11.5V17.8H1158.34V11.5H1156.34ZM1157.34 18.8H1177.14V16.8H1157.34V18.8ZM1177.14 18.8C1179.02 18.8 1180.43 18.4219 1181.38 17.6443C1182.37 16.8347 1182.7 15.7316 1182.7 14.68H1180.7C1180.7 15.3084 1180.52 15.7653 1180.12 16.0957C1179.67 16.4581 1178.8 16.8 1177.14 16.8V18.8ZM1182.7 14.68V14.56H1180.7V14.68H1182.7ZM1182.7 14.56C1182.7 13.4838 1182.38 12.3825 1181.37 11.5909C1180.41 10.8412 1179 10.5 1177.14 10.5V12.5C1178.82 12.5 1179.69 12.8188 1180.13 13.1641C1180.52 13.4675 1180.7 13.8962 1180.7 14.56H1182.7ZM1178.22 26.82H1157.34V28.82H1178.22V26.82ZM1156.34 27.82V35.5H1158.34V27.82H1156.34ZM1157.34 36.5H1178.22V34.5H1157.34V36.5ZM1178.22 36.5C1180.58 36.5 1182.2 35.9433 1183.22 34.9501C1184.26 33.9492 1184.5 32.6797 1184.5 31.66H1182.5C1182.5 32.3803 1182.33 33.0308 1181.83 33.5149C1181.32 34.0067 1180.3 34.5 1178.22 34.5V36.5ZM1184.5 31.66V31.48H1182.5V31.66H1184.5ZM1184.5 31.48C1184.5 30.3711 1184.24 29.1177 1183.16 28.177C1182.12 27.2686 1180.51 26.82 1178.22 26.82V28.82C1180.31 28.82 1181.34 29.2414 1181.85 29.683C1182.32 30.0923 1182.5 30.6689 1182.5 31.48H1184.5ZM1237.87 1.52H1240.57V-0.480001H1237.87V1.52ZM1240.57 1.52C1254.83 1.52 1262.66 4.92261 1266.93 9.15063C1271.19 13.3725 1272.09 18.5964 1272.09 22.66H1274.09C1274.09 18.3236 1273.13 12.4775 1268.33 7.72937C1263.54 2.98739 1255.11 -0.480001 1240.57 -0.480001V1.52ZM1272.09 22.66V24.46H1274.09V22.66H1272.09ZM1272.09 24.46C1272.09 28.4962 1271.2 33.7832 1266.94 38.0727C1262.68 42.3649 1254.85 45.84 1240.57 45.84V47.84C1255.15 47.84 1263.58 44.2951 1268.36 39.4823C1273.15 34.6668 1274.09 28.7638 1274.09 24.46H1272.09ZM1240.57 45.84H1237.87V47.84H1240.57V45.84ZM1237.87 45.84C1223.55 45.84 1215.72 42.3646 1211.44 38.0721C1207.18 33.7827 1206.29 28.4961 1206.29 24.46H1204.29C1204.29 28.7639 1205.23 34.6673 1210.03 39.4829C1214.82 44.2954 1223.27 47.84 1237.87 47.84V45.84ZM1206.29 24.46V22.66H1204.29V24.46H1206.29ZM1206.29 22.66C1206.29 18.594 1207.18 13.3713 1211.44 9.15063C1215.71 4.92322 1223.55 1.52 1237.87 1.52V-0.480001C1223.27 -0.480001 1214.82 2.98678 1210.03 7.72937C1205.23 12.4787 1204.29 18.326 1204.29 22.66H1206.29ZM1256.45 23.92V23.08H1254.45V23.92H1256.45ZM1256.45 23.08C1256.45 20.4894 1255.61 17.54 1252.92 15.2597C1250.25 13.0009 1245.92 11.52 1239.19 11.52V13.52C1245.66 13.52 1249.46 14.9491 1251.62 16.7853C1253.76 18.6 1254.45 20.9306 1254.45 23.08H1256.45ZM1239.19 11.52C1232.35 11.52 1228.01 12.9985 1225.37 15.2637C1222.7 17.5529 1221.93 20.5082 1221.93 23.08H1223.93C1223.93 20.9118 1224.57 18.5871 1226.67 16.7812C1228.8 14.9515 1232.59 13.52 1239.19 13.52V11.52ZM1221.93 23.08V23.8H1223.93V23.08H1221.93ZM1221.93 23.8C1221.93 26.3564 1222.77 29.3995 1225.44 31.7904C1228.1 34.1705 1232.44 35.78 1239.19 35.78V33.78C1232.74 33.78 1228.95 32.2395 1226.78 30.2996C1224.62 28.3705 1223.93 25.9235 1223.93 23.8H1221.93ZM1239.19 35.78C1245.93 35.78 1250.27 34.235 1252.93 31.9023C1255.61 29.5535 1256.45 26.534 1256.45 23.92H1254.45C1254.45 26.1059 1253.76 28.5165 1251.61 30.3977C1249.44 32.295 1245.65 33.78 1239.19 33.78V35.78ZM1342.92 17.74H1343.92V17.7208L1343.92 17.7016L1342.92 17.74ZM1342.92 17.8V18.8H1343.92V17.8H1342.92ZM1325.16 17.8L1324.19 18.0545L1324.39 18.8H1325.16V17.8ZM1325.82 29.56H1326.82V28.56H1325.82V29.56ZM1310.16 29.56H1309.16V30.56H1310.16V29.56ZM1310.16 20.86V19.86H1309.16V20.86H1310.16ZM1343.22 20.86H1344.22V19.86H1343.22V20.86ZM1343.22 46V47H1344.22V46H1343.22ZM1332.48 46L1331.5 46.204L1331.66 47H1332.48V46ZM1330.38 39.82L1331.26 39.3597L1330.6 38.0822L1329.64 39.1485L1330.38 39.82ZM1309.14 45.84H1307.76V47.84H1309.14V45.84ZM1307.76 45.84C1295.72 45.84 1288.48 42.6198 1284.24 38.413C1280 34.2007 1278.64 28.8596 1278.64 24.34H1276.64C1276.64 29.2404 1278.12 35.1493 1282.83 39.832C1287.55 44.5202 1295.37 47.84 1307.76 47.84V45.84ZM1278.64 24.34V22.66H1276.64V24.34H1278.64ZM1278.64 22.66C1278.64 18.0369 1279.91 12.8061 1284.25 8.71869C1288.61 4.62173 1296.23 1.52 1309.26 1.52V-0.480001C1295.94 -0.480001 1287.75 2.68827 1282.88 7.26131C1278.01 11.8439 1276.64 17.6831 1276.64 22.66H1278.64ZM1309.26 1.52H1311.6V-0.480001H1309.26V1.52ZM1311.6 1.52C1325.17 1.52 1332.67 4.24756 1336.8 7.56904C1340.89 10.8579 1341.81 14.8471 1341.92 17.7784L1343.92 17.7016C1343.79 14.3929 1342.73 9.77205 1338.05 6.01096C1333.42 2.28244 1325.39 -0.480001 1311.6 -0.480001V1.52ZM1341.92 17.74V17.8H1343.92V17.74H1341.92ZM1342.92 16.8H1325.16V18.8H1342.92V16.8ZM1326.12 17.5455C1325.93 16.8005 1325.34 15.1442 1323.07 13.7075C1320.85 12.3004 1317.1 11.16 1310.7 11.16V13.16C1316.9 13.16 1320.22 14.2696 1322 15.3975C1323.74 16.4958 1324.09 17.6595 1324.19 18.0545L1326.12 17.5455ZM1310.7 11.16C1304.58 11.16 1300.44 12.4726 1297.84 14.7168C1295.2 16.9857 1294.28 20.0631 1294.28 23.2H1296.28C1296.28 20.4569 1297.07 18.0143 1299.14 16.2332C1301.24 14.4274 1304.82 13.16 1310.7 13.16V11.16ZM1294.28 23.2V23.86H1296.28V23.2H1294.28ZM1294.28 23.86C1294.28 26.9677 1295.44 30.0768 1298.13 32.3949C1300.81 34.7036 1304.9 36.14 1310.58 36.14V34.14C1305.22 34.14 1301.65 32.7864 1299.44 30.8801C1297.24 28.9832 1296.28 26.4523 1296.28 23.86H1294.28ZM1310.58 36.14C1316.45 36.14 1320.43 35.0855 1322.97 33.7799C1324.25 33.1277 1325.18 32.4052 1325.8 31.7064C1326.39 31.0451 1326.82 30.2841 1326.82 29.56H1324.82C1324.82 29.5559 1324.78 29.8524 1324.31 30.3724C1323.88 30.8548 1323.16 31.4373 1322.06 32.0001C1319.87 33.1245 1316.22 34.14 1310.58 34.14V36.14ZM1325.82 28.56H1310.16V30.56H1325.82V28.56ZM1311.16 29.56V20.86H1309.16V29.56H1311.16ZM1310.16 21.86H1343.22V19.86H1310.16V21.86ZM1342.22 20.86V46H1344.22V20.86H1342.22ZM1343.22 45H1332.48V47H1343.22V45ZM1333.46 45.796C1333.14 44.3012 1332.16 41.0867 1331.26 39.3597L1329.49 40.2803C1330.27 41.7933 1331.21 44.8188 1331.5 46.204L1333.46 45.796ZM1329.64 39.1485C1328.08 40.8671 1322.76 45.84 1309.14 45.84V47.84C1323.35 47.84 1329.2 42.6129 1331.12 40.4915L1329.64 39.1485ZM1350.49 1.36V0.359999H1349.49V1.36H1350.49ZM1399.87 1.36H1400.87V0.359999H1399.87V1.36ZM1399.87 12.28V13.28H1400.87V12.28H1399.87ZM1367.29 12.28V11.28H1366.29V12.28H1367.29ZM1367.29 17.86H1366.29V18.86H1367.29V17.86ZM1399.21 17.86H1400.21V16.86H1399.21V17.86ZM1399.21 28.72V29.72H1400.21V28.72H1399.21ZM1367.29 28.72V27.72H1366.29V28.72H1367.29ZM1367.29 34.84H1366.29V35.84H1367.29V34.84ZM1400.35 34.84H1401.35V33.84H1400.35V34.84ZM1400.35 46V47H1401.35V46H1400.35ZM1350.49 46H1349.49V47H1350.49V46ZM1350.49 2.36H1399.87V0.359999H1350.49V2.36ZM1398.87 1.36V12.28H1400.87V1.36H1398.87ZM1399.87 11.28H1367.29V13.28H1399.87V11.28ZM1366.29 12.28V17.86H1368.29V12.28H1366.29ZM1367.29 18.86H1399.21V16.86H1367.29V18.86ZM1398.21 17.86V28.72H1400.21V17.86H1398.21ZM1399.21 27.72H1367.29V29.72H1399.21V27.72ZM1366.29 28.72V34.84H1368.29V28.72H1366.29ZM1367.29 35.84H1400.35V33.84H1367.29V35.84ZM1399.35 34.84V46H1401.35V34.84H1399.35ZM1400.35 45H1350.49V47H1400.35V45ZM1351.49 46V1.36H1349.49V46H1351.49ZM1407.07 1.36V0.359999H1406.07V1.36H1407.07ZM1426.15 1.36L1426.85 0.645489L1426.56 0.359999H1426.15V1.36ZM1452.07 26.74L1451.37 27.4545L1453.07 29.1187V26.74H1452.07ZM1452.07 1.36V0.359999H1451.07V1.36H1452.07ZM1468.99 1.36H1469.99V0.359999H1468.99V1.36ZM1468.99 46V47H1469.99V46H1468.99ZM1451.95 46L1451.26 46.7186L1451.55 47H1451.95V46ZM1423.99 18.94L1424.69 18.2214L1422.99 16.5805V18.94H1423.99ZM1423.99 46V47H1424.99V46H1423.99ZM1407.07 46H1406.07V47H1407.07V46ZM1407.07 2.36H1426.15V0.359999H1407.07V2.36ZM1425.45 2.07451L1451.37 27.4545L1452.77 26.0255L1426.85 0.645489L1425.45 2.07451ZM1453.07 26.74V1.36H1451.07V26.74H1453.07ZM1452.07 2.36H1468.99V0.359999H1452.07V2.36ZM1467.99 1.36V46H1469.99V1.36H1467.99ZM1468.99 45H1451.95V47H1468.99V45ZM1452.65 45.2814L1424.69 18.2214L1423.3 19.6586L1451.26 46.7186L1452.65 45.2814ZM1422.99 18.94V46H1424.99V18.94H1422.99ZM1423.99 45H1407.07V47H1423.99V45ZM1408.07 46V1.36H1406.07V46H1408.07ZM1493.53 1.36H1494.53V0.359999H1493.53V1.36ZM1493.53 46V47H1494.53V46H1493.53ZM1476.55 46H1475.55V47H1476.55V46ZM1476.55 1.36V0.359999H1475.55V1.36H1476.55ZM1492.53 1.36V46H1494.53V1.36H1492.53ZM1493.53 45H1476.55V47H1493.53V45ZM1477.55 46V1.36H1475.55V46H1477.55ZM1476.55 2.36H1493.53V0.359999H1476.55V2.36ZM1537.98 27.64V28.64H1539.58L1538.88 27.2012L1537.98 27.64ZM1530.48 12.28L1531.38 11.8412L1530.47 9.97849L1529.58 11.8498L1530.48 12.28ZM1523.16 27.64L1522.26 27.2098L1521.58 28.64H1523.16V27.64ZM1546.92 46L1546.02 46.4352L1546.3 47H1546.92V46ZM1543.44 38.8L1544.34 38.3648L1544.07 37.8H1543.44V38.8ZM1517.94 38.8V37.8H1517.31L1517.04 38.3709L1517.94 38.8ZM1514.52 46V47H1515.16L1515.43 46.4291L1514.52 46ZM1497.24 46L1496.35 45.5566L1495.63 47H1497.24V46ZM1519.32 1.36V0.359999H1518.7L1518.43 0.916645L1519.32 1.36ZM1542.24 1.36L1543.13 0.89666L1542.85 0.359999H1542.24V1.36ZM1565.58 46V47H1567.23L1566.47 45.5367L1565.58 46ZM1538.88 27.2012L1531.38 11.8412L1529.58 12.7188L1537.08 28.0788L1538.88 27.2012ZM1529.58 11.8498L1522.26 27.2098L1524.07 28.0702L1531.39 12.7102L1529.58 11.8498ZM1523.16 28.64H1537.98V26.64H1523.16V28.64ZM1547.82 45.5648L1544.34 38.3648L1542.54 39.2352L1546.02 46.4352L1547.82 45.5648ZM1543.44 37.8H1517.94V39.8H1543.44V37.8ZM1517.04 38.3709L1513.62 45.5709L1515.43 46.4291L1518.85 39.2291L1517.04 38.3709ZM1514.52 45H1497.24V47H1514.52V45ZM1498.14 46.4434L1520.22 1.80335L1518.43 0.916645L1496.35 45.5566L1498.14 46.4434ZM1519.32 2.36H1542.24V0.359999H1519.32V2.36ZM1541.36 1.82334L1564.7 46.4633L1566.47 45.5367L1543.13 0.89666L1541.36 1.82334ZM1565.58 45H1546.92V47H1565.58V45ZM1640.45 1.52H1643.15V-0.480001H1640.45V1.52ZM1643.15 1.52C1657.41 1.52 1665.24 4.92261 1669.51 9.15063C1673.77 13.3725 1674.67 18.5964 1674.67 22.66H1676.67C1676.67 18.3236 1675.71 12.4775 1670.92 7.72937C1666.13 2.98739 1657.69 -0.480001 1643.15 -0.480001V1.52ZM1674.67 22.66V24.46H1676.67V22.66H1674.67ZM1674.67 24.46C1674.67 28.4962 1673.79 33.7832 1669.53 38.0727C1665.26 42.3649 1657.44 45.84 1643.15 45.84V47.84C1657.73 47.84 1666.16 44.2951 1670.95 39.4823C1675.73 34.6668 1676.67 28.7638 1676.67 24.46H1674.67ZM1643.15 45.84H1640.45V47.84H1643.15V45.84ZM1640.45 45.84C1626.14 45.84 1618.3 42.3646 1614.03 38.0721C1609.76 33.7827 1608.87 28.4961 1608.87 24.46H1606.87C1606.87 28.7639 1607.82 34.6673 1612.61 39.4829C1617.4 44.2954 1625.85 47.84 1640.45 47.84V45.84ZM1608.87 24.46V22.66H1606.87V24.46H1608.87ZM1608.87 22.66C1608.87 18.594 1609.76 13.3713 1614.02 9.15063C1618.29 4.92322 1626.13 1.52 1640.45 1.52V-0.480001C1625.85 -0.480001 1617.41 2.98678 1612.62 7.72937C1607.82 12.4787 1606.87 18.326 1606.87 22.66H1608.87ZM1659.03 23.92V23.08H1657.03V23.92H1659.03ZM1659.03 23.08C1659.03 20.4894 1658.19 17.54 1655.5 15.2597C1652.84 13.0009 1648.5 11.52 1641.77 11.52V13.52C1648.25 13.52 1652.04 14.9491 1654.21 16.7853C1656.35 18.6 1657.03 20.9306 1657.03 23.08H1659.03ZM1641.77 11.52C1634.93 11.52 1630.59 12.9985 1627.95 15.2637C1625.29 17.5529 1624.51 20.5082 1624.51 23.08H1626.51C1626.51 20.9118 1627.15 18.5871 1629.26 16.7812C1631.39 14.9515 1635.18 13.52 1641.77 13.52V11.52ZM1624.51 23.08V23.8H1626.51V23.08H1624.51ZM1624.51 23.8C1624.51 26.3564 1625.35 29.3995 1628.03 31.7904C1630.69 34.1705 1635.03 35.78 1641.77 35.78V33.78C1635.32 33.78 1631.53 32.2395 1629.36 30.2996C1627.2 28.3705 1626.51 25.9235 1626.51 23.8H1624.51ZM1641.77 35.78C1648.51 35.78 1652.85 34.235 1655.51 31.9023C1658.19 29.5535 1659.03 26.534 1659.03 23.92H1657.03C1657.03 26.1059 1656.34 28.5165 1654.19 30.3977C1652.03 32.295 1648.24 33.78 1641.77 33.78V35.78ZM1740.03 46L1739.36 46.7369L1739.64 47H1740.03V46ZM1718.25 26.02L1718.93 25.2831L1717.25 23.7456V26.02H1718.25ZM1718.25 46V47H1719.25V46H1718.25ZM1701.21 46H1700.21V47H1701.21V46ZM1701.21 1.36V0.359999H1700.21V1.36H1701.21ZM1718.25 1.36H1719.25V0.359999H1718.25V1.36ZM1718.25 19H1717.25V21.086L1718.88 19.7796L1718.25 19ZM1740.21 1.36V0.359999H1739.86L1739.59 0.580379L1740.21 1.36ZM1761.39 1.36L1762.01 2.14827L1764.3 0.359999H1761.39V1.36ZM1735.41 21.64L1734.8 20.8517L1733.86 21.5821L1734.74 22.3802L1735.41 21.64ZM1762.23 46V47H1764.82L1762.9 45.2598L1762.23 46ZM1740.71 45.2631L1718.93 25.2831L1717.58 26.7569L1739.36 46.7369L1740.71 45.2631ZM1717.25 26.02V46H1719.25V26.02H1717.25ZM1718.25 45H1701.21V47H1718.25V45ZM1702.21 46V1.36H1700.21V46H1702.21ZM1701.21 2.36H1718.25V0.359999H1701.21V2.36ZM1717.25 1.36V19H1719.25V1.36H1717.25ZM1718.88 19.7796L1740.84 2.13962L1739.59 0.580379L1717.63 18.2204L1718.88 19.7796ZM1740.21 2.36H1761.39V0.359999H1740.21V2.36ZM1760.78 0.571726L1734.8 20.8517L1736.03 22.4283L1762.01 2.14827L1760.78 0.571726ZM1734.74 22.3802L1761.56 46.7402L1762.9 45.2598L1736.08 20.8998L1734.74 22.3802ZM1762.23 45H1740.03V47H1762.23V45ZM1790.23 1.52H1792.93V-0.480001H1790.23V1.52ZM1792.93 1.52C1807.19 1.52 1815.01 4.92261 1819.29 9.15063C1823.55 13.3725 1824.45 18.5964 1824.45 22.66H1826.45C1826.45 18.3236 1825.49 12.4775 1820.69 7.72937C1815.9 2.98739 1807.47 -0.480001 1792.93 -0.480001V1.52ZM1824.45 22.66V24.46H1826.45V22.66H1824.45ZM1824.45 24.46C1824.45 28.4962 1823.56 33.7832 1819.3 38.0727C1815.04 42.3649 1807.21 45.84 1792.93 45.84V47.84C1807.5 47.84 1815.94 44.2951 1820.72 39.4823C1825.5 34.6668 1826.45 28.7638 1826.45 24.46H1824.45ZM1792.93 45.84H1790.23V47.84H1792.93V45.84ZM1790.23 45.84C1775.91 45.84 1768.07 42.3646 1763.8 38.0721C1759.53 33.7827 1758.65 28.4961 1758.65 24.46H1756.65C1756.65 28.7639 1757.59 34.6673 1762.38 39.4829C1767.17 44.2954 1775.62 47.84 1790.23 47.84V45.84ZM1758.65 24.46V22.66H1756.65V24.46H1758.65ZM1758.65 22.66C1758.65 18.594 1759.53 13.3713 1763.8 9.15063C1768.07 4.92322 1775.91 1.52 1790.23 1.52V-0.480001C1775.63 -0.480001 1767.18 2.98678 1762.39 7.72937C1757.59 12.4787 1756.65 18.326 1756.65 22.66H1758.65ZM1808.81 23.92V23.08H1806.81V23.92H1808.81ZM1808.81 23.08C1808.81 20.4894 1807.96 17.54 1805.28 15.2597C1802.61 13.0009 1798.28 11.52 1791.55 11.52V13.52C1798.02 13.52 1801.82 14.9491 1803.98 16.7853C1806.12 18.6 1806.81 20.9306 1806.81 23.08H1808.81ZM1791.55 11.52C1784.71 11.52 1780.37 12.9985 1777.73 15.2637C1775.06 17.5529 1774.29 20.5082 1774.29 23.08H1776.29C1776.29 20.9118 1776.93 18.5871 1779.03 16.7812C1781.16 14.9515 1784.95 13.52 1791.55 13.52V11.52ZM1774.29 23.08V23.8H1776.29V23.08H1774.29ZM1774.29 23.8C1774.29 26.3564 1775.13 29.3995 1777.8 31.7904C1780.46 34.1705 1784.8 35.78 1791.55 35.78V33.78C1785.09 33.78 1781.3 32.2395 1779.14 30.2996C1776.98 28.3705 1776.29 25.9235 1776.29 23.8H1774.29ZM1791.55 35.78C1798.29 35.78 1802.62 34.235 1805.29 31.9023C1807.97 29.5535 1808.81 26.534 1808.81 23.92H1806.81C1806.81 26.1059 1806.12 28.5165 1803.97 30.3977C1801.8 32.295 1798.01 33.78 1791.55 33.78V35.78ZM1831.14 46H1830.14V47H1831.14V46ZM1831.14 1.36V0.359999H1830.14V1.36H1831.14ZM1854.54 1.36L1855.42 0.881147L1855.14 0.359999H1854.54V1.36ZM1868.22 26.44L1867.35 26.9188L1868.22 28.5144L1869.1 26.9253L1868.22 26.44ZM1882.14 1.36V0.359999H1881.56L1881.27 0.874712L1882.14 1.36ZM1904.58 1.36H1905.58V0.359999H1904.58V1.36ZM1904.58 46V47H1905.58V46H1904.58ZM1887.72 46H1886.72V47H1887.72V46ZM1887.72 18.16H1888.72V14.3425L1886.85 17.6697L1887.72 18.16ZM1872.06 46V47H1872.65L1872.94 46.4903L1872.06 46ZM1863.36 46L1862.49 46.4888L1862.78 47H1863.36V46ZM1847.76 18.16L1848.64 17.6712L1846.76 14.3297V18.16H1847.76ZM1847.76 46V47H1848.76V46H1847.76ZM1832.14 46V1.36H1830.14V46H1832.14ZM1831.14 2.36H1854.54V0.359999H1831.14V2.36ZM1853.67 1.83885L1867.35 26.9188L1869.1 25.9611L1855.42 0.881147L1853.67 1.83885ZM1869.1 26.9253L1883.02 1.84529L1881.27 0.874712L1867.35 25.9547L1869.1 26.9253ZM1882.14 2.36H1904.58V0.359999H1882.14V2.36ZM1903.58 1.36V46H1905.58V1.36H1903.58ZM1904.58 45H1887.72V47H1904.58V45ZM1888.72 46V18.16H1886.72V46H1888.72ZM1886.85 17.6697L1871.19 45.5097L1872.94 46.4903L1888.6 18.6503L1886.85 17.6697ZM1872.06 45H1863.36V47H1872.06V45ZM1864.24 45.5112L1848.64 17.6712L1846.89 18.6488L1862.49 46.4888L1864.24 45.5112ZM1846.76 18.16V46H1848.76V18.16H1846.76ZM1847.76 45H1831.14V47H1847.76V45ZM1911.63 46H1910.63V47H1911.63V46ZM1911.63 1.36V0.359999H1910.63V1.36H1911.63ZM1971.51 1.36H1972.51V0.359999H1971.51V1.36ZM1971.51 46V47H1972.51V46H1971.51ZM1954.53 46H1953.53V47H1954.53V46ZM1954.53 13.24H1955.53V12.24H1954.53V13.24ZM1928.67 13.24V12.24H1927.67V13.24H1928.67ZM1928.67 46V47H1929.67V46H1928.67ZM1912.63 46V1.36H1910.63V46H1912.63ZM1911.63 2.36H1971.51V0.359999H1911.63V2.36ZM1970.51 1.36V46H1972.51V1.36H1970.51ZM1971.51 45H1954.53V47H1971.51V45ZM1955.53 46V13.24H1953.53V46H1955.53ZM1954.53 12.24H1928.67V14.24H1954.53V12.24ZM1927.67 13.24V46H1929.67V13.24H1927.67ZM1928.67 45H1911.63V47H1928.67V45ZM2015.78 27.64V28.64H2017.39L2016.68 27.2012L2015.78 27.64ZM2008.28 12.28L2009.18 11.8412L2008.27 9.97849L2007.38 11.8498L2008.28 12.28ZM2000.96 27.64L2000.06 27.2098L1999.38 28.64H2000.96V27.64ZM2024.72 46L2023.82 46.4352L2024.1 47H2024.72V46ZM2021.24 38.8L2022.15 38.3648L2021.87 37.8H2021.24V38.8ZM1995.74 38.8V37.8H1995.11L1994.84 38.3709L1995.74 38.8ZM1992.32 46V47H1992.96L1993.23 46.4291L1992.32 46ZM1975.04 46L1974.15 45.5566L1973.43 47H1975.04V46ZM1997.12 1.36V0.359999H1996.5L1996.23 0.916645L1997.12 1.36ZM2020.04 1.36L2020.93 0.89666L2020.65 0.359999H2020.04V1.36ZM2043.38 46V47H2045.04L2044.27 45.5367L2043.38 46ZM2016.68 27.2012L2009.18 11.8412L2007.39 12.7188L2014.89 28.0788L2016.68 27.2012ZM2007.38 11.8498L2000.06 27.2098L2001.87 28.0702L2009.19 12.7102L2007.38 11.8498ZM2000.96 28.64H2015.78V26.64H2000.96V28.64ZM2025.63 45.5648L2022.15 38.3648L2020.34 39.2352L2023.82 46.4352L2025.63 45.5648ZM2021.24 37.8H1995.74V39.8H2021.24V37.8ZM1994.84 38.3709L1991.42 45.5709L1993.23 46.4291L1996.65 39.2291L1994.84 38.3709ZM1992.32 45H1975.04V47H1992.32V45ZM1975.94 46.4434L1998.02 1.80335L1996.23 0.916645L1974.15 45.5566L1975.94 46.4434ZM1997.12 2.36H2020.04V0.359999H1997.12V2.36ZM2019.16 1.82334L2042.5 46.4633L2044.27 45.5367L2020.93 0.89666L2019.16 1.82334ZM2043.38 45H2024.72V47H2043.38V45ZM2046.54 46H2045.54V47H2046.54V46ZM2046.54 1.36V0.359999H2045.54V1.36H2046.54ZM2063.58 1.36H2064.58V0.359999H2063.58V1.36ZM2063.58 17.14H2062.58V18.14H2063.58V17.14ZM2091.48 17.14V18.14H2092.48V17.14H2091.48ZM2091.48 1.36V0.359999H2090.48V1.36H2091.48ZM2108.46 1.36H2109.46V0.359999H2108.46V1.36ZM2108.46 46V47H2109.46V46H2108.46ZM2091.48 46H2090.48V47H2091.48V46ZM2091.48 29.02H2092.48V28.02H2091.48V29.02ZM2063.58 29.02V28.02H2062.58V29.02H2063.58ZM2063.58 46V47H2064.58V46H2063.58ZM2047.54 46V1.36H2045.54V46H2047.54ZM2046.54 2.36H2063.58V0.359999H2046.54V2.36ZM2062.58 1.36V17.14H2064.58V1.36H2062.58ZM2063.58 18.14H2091.48V16.14H2063.58V18.14ZM2092.48 17.14V1.36H2090.48V17.14H2092.48ZM2091.48 2.36H2108.46V0.359999H2091.48V2.36ZM2107.46 1.36V46H2109.46V1.36H2107.46ZM2108.46 45H2091.48V47H2108.46V45ZM2092.48 46V29.02H2090.48V46H2092.48ZM2091.48 28.02H2063.58V30.02H2091.48V28.02ZM2062.58 29.02V46H2064.58V29.02H2062.58ZM2063.58 45H2046.54V47H2063.58V45ZM2160.72 46H2159.72V47H2160.72V46ZM2160.72 17.98H2161.72V15.5658L2160.02 17.2729L2160.72 17.98ZM2132.7 46V47H2133.12L2133.41 46.7071L2132.7 46ZM2115.66 46H2114.66V47H2115.66V46ZM2115.66 1.36V0.359999H2114.66V1.36H2115.66ZM2132.7 1.36H2133.7V0.359999H2132.7V1.36ZM2132.7 29.44H2131.7V31.8579L2133.41 30.1463L2132.7 29.44ZM2160.72 1.36V0.359999H2160.31L2160.02 0.653648L2160.72 1.36ZM2177.76 1.36H2178.76V0.359999H2177.76V1.36ZM2177.76 46V47H2178.76V46H2177.76ZM2161.72 46V17.98H2159.72V46H2161.72ZM2160.02 17.2729L2132 45.2929L2133.41 46.7071L2161.43 18.6871L2160.02 17.2729ZM2132.7 45H2115.66V47H2132.7V45ZM2116.66 46V1.36H2114.66V46H2116.66ZM2115.66 2.36H2132.7V0.359999H2115.66V2.36ZM2131.7 1.36V29.44H2133.7V1.36H2131.7ZM2133.41 30.1463L2161.43 2.06635L2160.02 0.653648L2132 28.7337L2133.41 30.1463ZM2160.72 2.36H2177.76V0.359999H2160.72V2.36ZM2176.76 1.36V46H2178.76V1.36H2176.76ZM2177.76 45H2160.72V47H2177.76V45ZM2230.02 46H2229.02V47H2230.02V46ZM2230.02 17.98H2231.02V15.5658L2229.32 17.2729L2230.02 17.98ZM2202 46V47H2202.42L2202.71 46.7071L2202 46ZM2184.96 46H2183.96V47H2184.96V46ZM2184.96 1.36V0.359999H2183.96V1.36H2184.96ZM2202 1.36H2203V0.359999H2202V1.36ZM2202 29.44H2201V31.8579L2202.71 30.1463L2202 29.44ZM2230.02 1.36V0.359999H2229.61L2229.32 0.653648L2230.02 1.36ZM2247.06 1.36H2248.06V0.359999H2247.06V1.36ZM2247.06 46V47H2248.06V46H2247.06ZM2231.02 46V17.98H2229.02V46H2231.02ZM2229.32 17.2729L2201.3 45.2929L2202.71 46.7071L2230.73 18.6871L2229.32 17.2729ZM2202 45H2184.96V47H2202V45ZM2185.96 46V1.36H2183.96V46H2185.96ZM2184.96 2.36H2202V0.359999H2184.96V2.36ZM2201 1.36V29.44H2203V1.36H2201ZM2202.71 30.1463L2230.73 2.06635L2229.32 0.653648L2201.3 28.7337L2202.71 30.1463ZM2230.02 2.36H2247.06V0.359999H2230.02V2.36ZM2246.06 1.36V46H2248.06V1.36H2246.06ZM2247.06 45H2230.02V47H2247.06V45Z" fill="#453C3C" mask="url(#path-1-inside-1_44_2452)"/>
</svg>
