<svg width="151" height="36" viewBox="0 0 151 36" fill="none" xmlns="http://www.w3.org/2000/svg">
<path fill-rule="evenodd" clip-rule="evenodd" d="M0 18C0 8.05888 8.05888 0 18 0H97C102.8 0 107.959 2.74285 111.251 7.00211C112.162 8.18129 113.51 9 115 9C116.49 9 117.838 8.18129 118.749 7.00211C122.041 2.74285 127.2 0 133 0C142.941 0 151 8.05888 151 18C151 27.9411 142.941 36 133 36C127.2 36 122.041 33.2572 118.749 28.9979C117.838 27.8187 116.49 27 115 27C113.51 27 112.162 27.8187 111.251 28.9979C107.959 33.2572 102.8 36 97 36H18C8.05888 36 0 27.9411 0 18Z" fill="white"/>
</svg>
