<svg width="82" height="82" viewBox="0 0 82 82" fill="none" xmlns="http://www.w3.org/2000/svg">
<path d="M41 0L43.1458 0.0561905L45.2857 0.224602L47.4138 0.50478L49.5244 0.895947L51.6116 1.39704L53.6697 2.00668L55.6931 2.7232L57.6762 3.54464L59.6136 4.46873L61.5 5.49296L63.3302 6.61451L65.0992 7.8303L66.8021 9.13702L68.4344 10.5311L69.9914 12.0086L71.4689 13.5656L72.863 15.1979L74.1697 16.9008L75.3855 18.6698L76.507 20.5L77.5313 22.3864L78.4554 24.3238L79.2768 26.3069L79.9933 28.3303L80.603 30.3884L81.104 32.4756L81.4952 34.5862L81.7754 36.7143L81.9438 38.8542L82 41L81.9438 43.1458L81.7754 45.2857L81.4952 47.4138L81.104 49.5244L80.603 51.6116L79.9933 53.6697L79.2768 55.6931L78.4554 57.6762L77.5313 59.6136L76.507 61.5L75.3855 63.3302L74.1697 65.0992L72.863 66.8021L71.4689 68.4344L69.9914 69.9914L68.4344 71.4689L66.8021 72.863L65.0992 74.1697L63.3302 75.3855L61.5 76.507L59.6136 77.5313L57.6762 78.4554L55.6931 79.2768L53.6697 79.9933L51.6116 80.603L49.5244 81.104L47.4138 81.4952L45.2857 81.7754L43.1458 81.9438L41 82L38.8542 81.9438L36.7143 81.7754L34.5862 81.4952L32.4756 81.104L30.3884 80.603L28.3303 79.9933L26.3069 79.2768L24.3238 78.4554L22.3864 77.5313L20.5 76.507L18.6698 75.3855L16.9008 74.1697L15.1979 72.863L13.5656 71.4689L12.0086 69.9914L10.5311 68.4344L9.13702 66.8021L7.8303 65.0992L6.61451 63.3302L5.49296 61.5L4.46873 59.6136L3.54464 57.6762L2.7232 55.6931L2.00668 53.6697L1.39704 51.6116L0.895947 49.5244L0.50478 47.4138L0.224602 45.2857L0.0561905 43.1458L0 41L0.0561905 38.8542L0.224602 36.7143L0.50478 34.5862L0.895947 32.4756L1.39704 30.3884L2.00668 28.3303L2.7232 26.3069L3.54464 24.3238L4.46873 22.3864L5.49296 20.5L6.61451 18.6698L7.8303 16.9008L9.13702 15.1979L10.5311 13.5656L12.0086 12.0086L13.5656 10.5311L15.1979 9.13702L16.9008 7.8303L18.6698 6.61451L20.5 5.49296L22.3864 4.46873L24.3238 3.54464L26.3069 2.7232L28.3303 2.00668L30.3884 1.39704L32.4756 0.895947L34.5862 0.50478L36.7143 0.224602L38.8542 0.0561905L41 0Z" fill="#AACBB1"/>
<path d="M48.9519 54.7062C46.38 56.5402 43.2895 57.5044 40.131 57.4583C37.3721 57.4147 34.6444 56.8661 32.0831 55.8396C31.4933 57.214 31.0113 58.6321 30.6414 60.0812C30.5449 60.4751 30.299 60.8159 29.9557 61.0318C29.6124 61.2477 29.1987 61.3216 28.8019 61.2381C28.4051 61.1545 28.0563 60.9199 27.8293 60.5839C27.6022 60.2479 27.5147 59.8368 27.5852 59.4375C30.3025 49.6068 36.2902 40.9964 44.5602 35.0271C44.8917 34.7784 45.3084 34.6717 45.7187 34.7303C46.1289 34.7889 46.4991 35.0081 46.7477 35.3396C46.9963 35.6711 47.1031 36.0878 47.0445 36.498C46.9859 36.9083 46.7667 37.2784 46.4352 37.5271C40.9625 41.6147 36.5019 46.9049 33.3977 52.9896C36.6769 54.2396 42.406 55.5625 47.1269 52.1687C57.0206 45.0521 53.8852 30.7896 52.0831 25.0021C50.5804 26.575 48.7293 27.7732 46.6789 28.5C44.9206 29.1021 43.3144 29.525 41.7602 29.9375C39.365 30.4624 37.042 31.2746 34.8414 32.3562C27.1644 36.4937 27.1498 44.9917 29.0081 49.6958C29.1462 50.0779 29.13 50.4986 28.9631 50.869C28.7962 51.2393 28.4916 51.5301 28.1139 51.6796C27.7362 51.8292 27.3151 51.8258 26.9399 51.6701C26.5647 51.5145 26.2649 51.2188 26.1039 50.8458C23.8331 45.1042 23.8873 34.7104 33.3602 29.6042C35.7761 28.4034 38.3288 27.5003 40.9623 26.9146C42.4623 26.5167 44.0144 26.1062 45.6581 25.5437C47.7759 24.7858 49.607 23.3906 50.8998 21.55C51.1038 21.2472 51.3885 21.0076 51.7218 20.8583C52.055 20.7091 52.4234 20.6562 52.7852 20.7056C53.1469 20.7551 53.4876 20.9049 53.7686 21.1381C54.0495 21.3713 54.2595 21.6785 54.3748 22.025C55.7685 25.7917 62.1248 45.2333 48.9519 54.7062Z" fill="white"/>
</svg>
