<svg width="16" height="15" viewBox="0 0 16 15" fill="none" xmlns="http://www.w3.org/2000/svg">
<path d="M7.56512 0.766502C7.75671 0.428815 8.24329 0.428814 8.43488 0.766501L10.4366 4.29455C10.5078 4.42008 10.6298 4.50871 10.7712 4.53765L14.7451 5.35113C15.1254 5.42899 15.2758 5.89176 15.0139 6.17832L12.277 9.17225C12.1797 9.27878 12.1331 9.42219 12.1492 9.56561L12.6036 13.5964C12.6471 13.9822 12.2534 14.2682 11.8999 14.1076L8.2068 12.4299C8.07539 12.3703 7.9246 12.3703 7.7932 12.4299L4.10008 14.1076C3.7466 14.2682 3.35294 13.9822 3.39643 13.5964L3.85078 9.56561C3.86694 9.42219 3.82035 9.27878 3.72297 9.17225L0.986149 6.17832C0.724193 5.89176 0.874555 5.42899 1.25492 5.35113L5.22884 4.53765C5.37024 4.50871 5.49223 4.42008 5.56345 4.29455L7.56512 0.766502Z" fill="#AFA3A3"/>
</svg>
