<svg width="200" height="200" viewBox="0 0 200 200" fill="none" xmlns="http://www.w3.org/2000/svg">
<path d="M192.644 101.166L182.334 100.449L182.239 101.81L191.322 102.442L190.987 107.261L181.904 106.629L181.809 107.991L192.119 108.708L192.644 101.166Z" fill="#A09C9C"/>
<path d="M190.515 118.943L191.362 114.921L181.249 112.791L180.968 114.127L184.769 114.928L184.203 117.614C183.752 119.757 185.126 120.951 186.726 121.287C188.296 121.618 190.064 121.086 190.515 118.943ZM185.47 117.789L186.017 115.191L189.848 115.997L189.285 118.669C189.032 119.872 187.946 120.15 187.007 119.952C186.038 119.748 185.204 119.051 185.47 117.789Z" fill="#A09C9C"/>
<path d="M179.754 124.483L182.759 125.521L181.408 129.434L182.613 129.85L183.965 125.937L187.14 127.035L185.592 131.515L186.783 131.926L188.772 126.17L179.004 122.795L176.966 128.693L178.157 129.105L179.754 124.483Z" fill="#A09C9C"/>
<path d="M182.114 142.423L177.264 134.686L184.242 138.205L184.857 136.986L175.629 132.332L175.041 133.497L179.945 141.329L172.886 137.77L172.272 138.988L181.5 143.642L182.114 142.423Z" fill="#A09C9C"/>
<path d="M163.199 152.542L172.27 157.657L173 156.668L169.018 149.158L177.376 150.744L178.107 149.754L170.542 142.601L169.749 143.674L175.522 149.113L168.123 147.769L167.419 148.723L170.897 155.375L163.992 151.469L163.199 152.542Z" fill="#A09C9C"/>
<path d="M163.127 167.47L161.221 161.404L167.438 163.253L168.553 162.162L160.791 159.977L159.727 156.338L158.666 157.377L162.066 168.509L163.127 167.47Z" fill="#A09C9C"/>
<path d="M143.916 170.934L149.092 178.388L150.213 177.609L145.037 170.155L148.376 167.836L153.552 175.29L154.673 174.512L149.497 167.058L152.824 164.748L158 172.202L159.121 171.423L153.226 162.934L143.591 169.625L142.205 167.629L141.084 168.407L143.189 171.438L143.916 170.934Z" fill="#A09C9C"/>
<path d="M137.474 174.481L138.821 177.362L135.071 179.116L135.611 180.27L139.361 178.517L140.785 181.56L136.491 183.568L137.025 184.71L142.541 182.13L138.163 172.768L132.511 175.411L133.045 176.553L137.474 174.481Z" fill="#A09C9C"/>
<path d="M124.504 178.178C122.987 178.652 121.87 179.707 121.319 181.011L122.514 181.518C122.931 180.539 123.777 179.725 124.88 179.381C126.956 178.733 129.142 179.999 129.799 182.104C130.461 184.223 129.391 186.537 127.315 187.185C126.213 187.529 125.054 187.34 124.154 186.773L123.459 187.869C124.654 188.628 126.173 188.861 127.69 188.387C130.483 187.516 131.974 184.489 131.102 181.697C130.231 178.905 127.297 177.307 124.504 178.178Z" fill="#A09C9C"/>
<path d="M112.458 191.676L120.014 190.385L119.801 189.143L116.696 189.674L115.167 180.728L113.821 180.958L115.351 189.904L112.246 190.434L112.458 191.676Z" fill="#A09C9C"/>
<path d="M102.888 187.616C101.931 188.036 101.644 188.965 101.686 189.864C101.761 191.483 102.887 192.451 104.595 192.372L108.476 192.192L107.997 181.869L103.787 182.064C101.899 182.151 100.841 183.627 100.91 185.11C100.962 186.234 101.662 187.403 102.888 187.616ZM103.043 189.666C103.002 188.782 103.437 188.116 104.366 188.073L106.913 187.955L107.054 190.997L104.551 191.113C103.608 191.157 103.084 190.55 103.043 189.666ZM104.13 183.309L106.692 183.19L106.857 186.757L104.22 186.879C102.961 186.937 102.322 186.096 102.279 185.167C102.234 184.208 102.856 183.368 104.13 183.309Z" fill="#A09C9C"/>
<path d="M89.9789 181.641L88.559 181.52L91.599 192.151L93.0338 192.273L97.8256 182.308L96.4057 182.187L95.1793 184.748L90.7553 184.371L89.9789 181.641ZM94.6292 185.905L92.4677 190.433L91.102 185.605L94.6292 185.905Z" fill="#A09C9C"/>
<path d="M72.66 188.558L80.0657 190.534L80.3907 189.317L77.3472 188.505L79.6877 179.737L78.3688 179.385L76.0284 188.153L72.985 187.34L72.66 188.558Z" fill="#A09C9C"/>
<path d="M68.7084 175.972C65.9911 174.811 62.9376 176.116 61.7881 178.806C60.6327 181.509 61.7881 184.645 64.5054 185.807C67.2088 186.962 70.2604 185.624 71.4157 182.92C72.5652 180.23 71.4118 177.128 68.7084 175.972ZM68.2132 177.131C70.2132 177.986 71.0271 180.356 70.1606 182.384C69.2881 184.425 67.0006 185.503 65.0005 184.648C62.973 183.781 62.1709 181.383 63.0433 179.342C63.9098 177.314 66.1856 176.264 68.2132 177.131Z" fill="#A09C9C"/>
<path d="M50.9996 178.723L54.4992 180.878L59.9186 172.078L58.7563 171.362L56.7191 174.67L54.3818 173.23C52.517 172.082 50.9297 172.972 50.0723 174.364C49.2307 175.731 49.1348 177.574 50.9996 178.723ZM53.7898 174.363L56.0505 175.755L53.9976 179.089L51.6731 177.658C50.6257 177.013 50.7312 175.897 51.2346 175.08C51.7538 174.237 52.6914 173.687 53.7898 174.363Z" fill="#A09C9C"/>
<path d="M40.912 169.939L40.1306 170.927L44.8489 174.658L51.2588 166.551L50.1881 165.704L47.4343 169.187L44.5398 166.899L43.749 167.899L46.6436 170.187L44.5596 172.823L40.912 169.939Z" fill="#A09C9C"/>
<path d="M39.4899 156.14L38.4822 155.133L33.9532 165.22L34.9715 166.238L45.0583 161.709L44.0507 160.701L41.4627 161.868L38.3231 158.728L39.4899 156.14ZM40.296 162.398L35.7245 164.466L37.7928 159.895L40.296 162.398Z" fill="#A09C9C"/>
<path d="M34.3525 149.753C33.3893 148.488 32.0162 147.799 30.6027 147.726L30.5341 149.022C31.5966 149.08 32.6504 149.598 33.3501 150.517C34.6677 152.247 34.2239 154.734 32.4695 156.07C30.7033 157.415 28.1637 157.2 26.846 155.469C26.1463 154.55 25.9279 153.397 26.1543 152.357L24.8862 152.078C24.5813 153.461 24.8803 154.968 25.8435 156.233C27.6156 158.56 30.9693 158.928 33.2965 157.156C35.6236 155.384 36.1246 152.08 34.3525 149.753Z" fill="#A09C9C"/>
<path d="M28.0062 143.098L25.2389 144.664L23.1992 141.062L22.0897 141.69L24.1294 145.292L21.2055 146.948L18.8702 142.823L17.7737 143.444L20.7741 148.743L29.7677 143.652L26.6934 138.221L25.597 138.842L28.0062 143.098Z" fill="#A09C9C"/>
<path d="M17.0434 120.861C16.7127 119.583 15.4258 118.826 14.1479 119.156C12.87 119.487 12.1123 120.774 12.443 122.052C12.7737 123.33 14.0606 124.088 15.3385 123.757C16.6164 123.426 17.3742 122.139 17.0434 120.861Z" fill="#A09C9C"/>
<path d="M6.72011 100.727L17.0458 101.166L17.1037 99.8023L8.00693 99.4159L8.2119 94.5902L17.3087 94.9766L17.3666 93.6129L7.04094 93.1743L6.72011 100.727Z" fill="#A09C9C"/>
<path d="M8.37574 82.8203L7.63659 86.8633L17.8031 88.722L18.0486 87.3792L14.2269 86.6805L14.7206 83.9803C15.1144 81.826 13.7095 80.6695 12.1012 80.3754C10.5223 80.0868 8.7696 80.666 8.37574 82.8203ZM13.4502 83.8395L12.9727 86.4512L9.12153 85.7472L9.6125 83.0617C9.83371 81.8517 10.9113 81.5455 11.8557 81.7182C12.8295 81.8962 13.6822 82.5706 13.4502 83.8395Z" fill="#A09C9C"/>
<path d="M18.877 77.3595L15.8414 76.4122L17.0747 72.4601L15.8576 72.0803L14.6243 76.0323L11.4168 75.0314L12.8289 70.5066L11.6261 70.1312L9.81187 75.9447L19.6776 79.0235L21.5365 73.0668L20.3337 72.6915L18.877 77.3595Z" fill="#A09C9C"/>
<path d="M16.1072 59.1953L21.1567 66.8047L14.0898 63.468L13.507 64.7023L22.8527 69.115L23.4098 67.9349L18.3046 60.2328L25.4528 63.608L26.0356 62.3736L16.69 57.961L16.1072 59.1953Z" fill="#A09C9C"/>
<path d="M34.6956 48.6295L25.4971 43.7483L24.7919 44.756L28.9646 52.1618L20.569 50.7901L19.8637 51.7978L27.6086 58.756L28.3741 57.6622L22.464 52.3727L29.895 53.527L30.5744 52.5561L26.9277 45.9945L33.9301 49.7233L34.6956 48.6295Z" fill="#A09C9C"/>
<path d="M34.1724 33.861L36.2547 39.87L29.9867 38.2016L28.9038 39.3246L36.7259 41.2829L37.8947 44.8897L38.9255 43.8208L35.2032 32.7921L34.1724 33.861Z" fill="#A09C9C"/>
<path d="M53.5606 29.6139L48.1955 22.2946L47.0946 23.1016L52.4597 30.4209L49.1812 32.8241L43.8161 25.5049L42.7152 26.3118L48.0803 33.6311L44.8139 36.0254L39.4487 28.7062L38.3478 29.5132L44.4579 37.8486L53.9184 30.9139L55.355 32.8737L56.4559 32.0667L54.2744 29.0907L53.5606 29.6139Z" fill="#A09C9C"/>
<path d="M59.839 25.9175L58.4176 23.0729L62.121 21.2223L61.5511 20.0818L57.8477 21.9323L56.3458 18.9267L60.5859 16.808L60.0227 15.6808L54.575 18.403L59.1946 27.6481L64.7765 24.8588L64.2133 23.7317L59.839 25.9175Z" fill="#A09C9C"/>
<path d="M72.3905 21.971C73.8953 21.4575 74.9833 20.3729 75.5004 19.0552L74.2921 18.58C73.9007 19.5695 73.0766 20.4055 71.9835 20.7786C69.9251 21.4811 67.706 20.2731 66.9938 18.1863C66.2767 16.0853 67.2846 13.7442 69.343 13.0417C70.4361 12.6687 71.5994 12.8264 72.514 13.3701L73.1797 12.2554C71.9649 11.5288 70.4408 11.3357 68.936 11.8493C66.1678 12.794 64.7572 15.8589 65.7019 18.6272C66.6467 21.3954 69.6223 22.9158 72.3905 21.971Z" fill="#A09C9C"/>
<path d="M84.363 8.04108L76.8449 9.53469L77.0905 10.7705L80.1801 10.1567L81.9484 19.0578L83.2873 18.7918L81.5189 9.89074L84.6085 9.27693L84.363 8.04108Z" fill="#A09C9C"/>
<path d="M93.7839 11.8508C94.7288 11.4054 94.9909 10.4687 94.925 9.57115C94.8064 7.9555 93.6546 7.01732 91.9492 7.14254L88.0746 7.42703L88.8314 17.7343L93.0351 17.4256C94.92 17.2872 95.9376 15.7837 95.8289 14.3027C95.7465 13.1807 95.0154 12.0311 93.7839 11.8508ZM93.5735 9.80574C93.6383 10.6884 93.2218 11.3657 92.2943 11.4338L89.7512 11.6205L89.5282 8.58369L92.0265 8.40026C92.9689 8.33106 93.5087 8.92312 93.5735 9.80574ZM92.6586 16.1899L90.1005 16.3777L89.839 12.8173L92.472 12.624C93.7286 12.5317 94.3907 13.3554 94.4588 14.2829C94.5291 15.2404 93.9302 16.0965 92.6586 16.1899Z" fill="#A09C9C"/>
<path d="M106.715 17.4297L108.138 17.5121L104.812 6.96707L103.375 6.88377L98.8536 16.9741L100.276 17.0566L101.433 14.4641L105.866 14.721L106.715 17.4297ZM101.952 13.2922L103.99 8.70743L105.486 13.497L101.952 13.2922Z" fill="#A09C9C"/>
<path d="M124.065 10.0187L116.609 8.23963L116.317 9.46522L119.381 10.1963L117.274 19.0235L118.602 19.3403L120.708 10.5132L123.772 11.2443L124.065 10.0187Z" fill="#A09C9C"/>
<path d="M128.549 22.5274C131.295 23.6172 134.314 22.2328 135.392 19.5139C136.477 16.7812 135.24 13.6761 132.493 12.5863C129.76 11.5021 126.745 12.9199 125.661 15.6527C124.582 18.3715 125.816 21.4432 128.549 22.5274ZM129.013 21.3563C126.992 20.5541 126.116 18.2057 126.929 16.1561C127.748 14.0926 130.007 12.9554 132.028 13.7575C134.078 14.5707 134.942 16.947 134.124 19.0105C133.311 21.0601 131.063 22.1694 129.013 21.3563Z" fill="#A09C9C"/>
<path d="M145.793 19.0699L142.231 17.0187L137.073 25.9745L138.256 26.6558L140.195 23.2892L142.574 24.6592C144.471 25.7522 146.032 24.816 146.848 23.3992C147.649 22.0084 147.69 20.1629 145.793 19.0699ZM143.132 23.5094L140.831 22.1844L142.785 18.7918L145.151 20.1543C146.217 20.7681 146.144 21.8861 145.665 22.718C145.171 23.5759 144.25 24.1532 143.132 23.5094Z" fill="#A09C9C"/>
<path d="M156.51 27.8066L157.266 26.7986L152.454 23.1897L146.253 31.4577L147.345 32.2767L150.009 28.7247L152.961 30.9387L153.726 29.9187L150.774 27.7047L152.79 25.0167L156.51 27.8066Z" fill="#A09C9C"/>
<path d="M158.163 41.425L159.196 42.4067L163.467 32.2079L162.424 31.2159L152.455 36L153.488 36.9817L156.046 35.7495L159.264 38.8082L158.163 41.425ZM157.198 35.1897L161.716 33.0058L159.764 37.6284L157.198 35.1897Z" fill="#A09C9C"/>
<path d="M163.508 47.6615C164.503 48.9015 165.894 49.5553 167.309 49.5929L167.344 48.295C166.28 48.2639 165.214 47.7736 164.491 46.8729C163.129 45.1766 163.51 42.6788 165.229 41.2986C166.961 39.9091 169.505 40.0597 170.866 41.756C171.589 42.6568 171.837 43.8043 171.637 44.8494L172.912 45.0957C173.182 43.7061 172.844 42.2074 171.849 40.9673C170.018 38.6862 166.656 38.4033 164.375 40.2341C162.094 42.0649 161.677 45.3803 163.508 47.6615Z" fill="#A09C9C"/>
<path d="M170.09 54.1832L172.816 52.5456L174.948 56.0945L176.041 55.438L173.909 51.8891L176.79 50.1589L179.231 54.2221L180.311 53.5733L177.175 48.3528L168.315 53.6747L171.528 59.0238L172.609 58.375L170.09 54.1832Z" fill="#A09C9C"/>
<path d="M182.217 78.0393C182.553 79.316 183.843 80.0688 185.119 79.7332C186.396 79.3977 187.149 78.1079 186.813 76.8313C186.478 75.5546 185.188 74.8018 183.911 75.1374C182.635 75.4729 181.882 76.7627 182.217 78.0393Z" fill="#A09C9C"/>
</svg>
